<svg id="vuesax_bold_buliding" data-name="vuesax/bold/buliding" xmlns="http://www.w3.org/2000/svg" width="45.322" height="45.322" viewBox="0 0 45.322 45.322">
  <g id="buliding" transform="translate(0 0)">
    <path id="Vector" d="M0,0H45.322V45.322H0Z" fill="none" opacity="0"/>
    <path id="Vector-2" d="M39.184,0H1.416A1.427,1.427,0,0,0,0,1.416,1.427,1.427,0,0,0,1.416,2.833H39.184A1.427,1.427,0,0,0,40.6,1.416,1.427,1.427,0,0,0,39.184,0Z" transform="translate(2.361 40.129)" fill="#aeaeae"/>
    <path id="Vector-3" d="M26.438,0H7.554C1.888,0,0,3.38,0,7.554V37.768H33.991V7.554C33.991,3.38,32.1,0,26.438,0ZM13.219,28.8H7.554a1.416,1.416,0,1,1,0-2.833h5.665a1.416,1.416,0,0,1,0,2.833Zm0-8.5H7.554a1.416,1.416,0,0,1,0-2.833h5.665a1.416,1.416,0,0,1,0,2.833Zm0-8.5H7.554a1.416,1.416,0,1,1,0-2.833h5.665a1.416,1.416,0,0,1,0,2.833Zm13.219,17H20.772a1.416,1.416,0,1,1,0-2.833h5.665a1.416,1.416,0,0,1,0,2.833Zm0-8.5H20.772a1.416,1.416,0,1,1,0-2.833h5.665a1.416,1.416,0,0,1,0,2.833Zm0-8.5H20.772a1.416,1.416,0,1,1,0-2.833h5.665a1.416,1.416,0,0,1,0,2.833Z" transform="translate(5.665 3.777)" fill="#aeaeae"/>
  </g>
</svg>
