<svg xmlns="http://www.w3.org/2000/svg" width="24" height="24" viewBox="0 0 24 24">
  <g id="user-add" transform="translate(-172 -188)">
    <path id="Vector" d="M5.75,11.5A5.75,5.75,0,1,1,11.5,5.75,5.757,5.757,0,0,1,5.75,11.5Zm0-10A4.25,4.25,0,1,0,10,5.75,4.259,4.259,0,0,0,5.75,1.5Z" transform="translate(178.25 189.25)" fill="#292d32"/>
    <path id="Vector-2"  d="M.75,8.5A.755.755,0,0,1,0,7.75C0,3.48,4.19,0,9.34,0A10.894,10.894,0,0,1,12.3.4a.747.747,0,1,1-.4,1.44A9.467,9.467,0,0,0,9.34,1.5C5.02,1.5,1.5,4.3,1.5,7.75A.755.755,0,0,1,.75,8.5Z" transform="translate(174.66 202.25)" fill="#292d32"/>
    <path id="Vector-3"  d="M4.75,9.5A4.7,4.7,0,0,1,1.58,8.27a4.281,4.281,0,0,1-.9-1.08,4.742,4.742,0,0,1,.66-5.75,4.745,4.745,0,0,1,6.94.14A4.739,4.739,0,0,1,9.5,4.75a4.2,4.2,0,0,1-.15,1.12A4.262,4.262,0,0,1,8.8,7.2,4.7,4.7,0,0,1,4.75,9.5Zm0-8A3.243,3.243,0,0,0,1.5,4.75a3.169,3.169,0,0,0,.47,1.67,2.9,2.9,0,0,0,.61.74,3.2,3.2,0,0,0,2.17.85A3.256,3.256,0,0,0,7.53,6.44a3.114,3.114,0,0,0,.37-.91A2.908,2.908,0,0,0,8,4.76a3.242,3.242,0,0,0-.84-2.17A3.159,3.159,0,0,0,4.75,1.5Z" transform="translate(185.25 201.25)" fill="#292d32"/>
    <path id="Vector-4"  d="M3.74,1.5H.75A.755.755,0,0,1,0,.75.755.755,0,0,1,.75,0H3.74a.755.755,0,0,1,.75.75A.755.755,0,0,1,3.74,1.5Z" transform="translate(187.76 205.23)" fill="#292d32"/>
    <path id="Vector-5"  d="M.75,4.49A.755.755,0,0,1,0,3.74V.75A.755.755,0,0,1,.75,0,.755.755,0,0,1,1.5.75V3.74A.749.749,0,0,1,.75,4.49Z" transform="translate(189.25 203.77)" fill="#292d32"/>
    <path id="Vector-6"  d="M0,0H24V24H0Z" transform="translate(172 188)" fill="none" opacity="0"/>
  </g>
</svg>
