<svg xmlns="http://www.w3.org/2000/svg" width="18.912" height="18.912" viewBox="0 0 18.912 18.912">
    <g id="Group_10109" transform="translate(-99 -97.144)">
        <g id="vuesax_bold_dollar-circle" transform="translate(-137 -474.856)">
            <g id="dollar-circle" transform="translate(236 572)">
                <path id="Vector"
                    d="M0,2.246H.512A.982.982,0,0,0,1.45,1.237C1.45.552,1.206.418.8.276L.008,0V2.246Z"
                    transform="translate(10.047 10.299)" fill="#fff" />
                <path id="Vector-2"
                    d="M7.856,0a7.88,7.88,0,1,0,7.9,7.856A7.883,7.883,0,0,0,7.856,0Zm1.8,7.959a1.972,1.972,0,0,1,1.442,2.08,2.157,2.157,0,0,1-2.12,2.191H8.471v.457a.591.591,0,1,1-1.182,0V12.23H7.005A2.386,2.386,0,0,1,4.665,9.8a.591.591,0,0,1,1.182,0,1.206,1.206,0,0,0,1.158,1.245h.284V8.384L6.1,7.959a1.972,1.972,0,0,1-1.442-2.08,2.157,2.157,0,0,1,2.12-2.191h.512V3.231a.591.591,0,1,1,1.182,0v.457h.284A2.386,2.386,0,0,1,11.1,6.115a.591.591,0,0,1-1.182,0A1.206,1.206,0,0,0,8.755,4.87H8.471V7.533Z"
                    transform="translate(1.576 1.497)" fill="#fff" />
                <path id="Vector-3"
                    d="M0,1.017c0,.686.244.82.646.961l.8.276V0H.93A.978.978,0,0,0,0,1.017Z"
                    transform="translate(7.423 6.367)" fill="#fff" />
                <path id="Vector-4" d="M0,0H18.912V18.912H0Z" fill="none" opacity="0" />
            </g>
        </g>
    </g>
</svg>
