<svg xmlns="http://www.w3.org/2000/svg" width="24" height="24" viewBox="0 0 24 24">
  <g id="vuesax_bold_teacher" transform="translate(-172 -252)">
    <path id="Vector" d="M11.21.171a1,1,0,0,1,1.55.84V2.3a3.427,3.427,0,0,1-2.18,3.03L7.39,6.391a3.651,3.651,0,0,1-2.02,0L2.18,5.331A3.411,3.411,0,0,1,0,2.3V1A1,1,0,0,1,1.54.161L3.6,1.5a5.047,5.047,0,0,0,2.79.79A5.047,5.047,0,0,0,9.18,1.5Z" transform="translate(177.62 267.469)"/>
    <path id="Vector-2" d="M17.4,4.463,11.407.532a3.91,3.91,0,0,0-3.94,0l-6.02,3.93a3.186,3.186,0,0,0,0,5.34l1.6,1.04,4.42,2.88a3.91,3.91,0,0,0,3.94,0l4.39-2.88,1.37-.9V13a.75.75,0,0,0,1.5,0V8.082A3.175,3.175,0,0,0,17.4,4.463Z" transform="translate(174.583 253.997)"/>
    <path id="Vector-3" d="M0,0H24V24H0Z" transform="translate(196 276) rotate(180)" fill="none" opacity="0"/>
  </g>
</svg>
