<svg xmlns="http://www.w3.org/2000/svg" width="24" height="24" viewBox="0 0 24 24">
  <g id="teacher" transform="translate(-172 -252)">
    <path id="Vector" d="M10.19,15.751a4.475,4.475,0,0,1-2.38-.65l-6.02-3.93a3.937,3.937,0,0,1,0-6.6L7.82.651a4.644,4.644,0,0,1,4.76.01l5.99,3.93a3.93,3.93,0,0,1,0,6.58L12.58,15.1A4.4,4.4,0,0,1,10.19,15.751Zm0-14.25a2.8,2.8,0,0,0-1.55.41L2.62,5.831a2.43,2.43,0,0,0,0,4.08l6.02,3.93a3.207,3.207,0,0,0,3.12,0l5.99-3.93a2.442,2.442,0,0,0,0-4.08L11.76,1.9A3.052,3.052,0,0,0,10.19,1.5Z" transform="translate(173.82 253.249)"/>
    <path id="Vector-2"  d="M7.13,10.42a4.1,4.1,0,0,1-1.25-.18L2.69,9.18A4.133,4.133,0,0,1,0,5.44L.01.75A.755.755,0,0,1,.76,0a.755.755,0,0,1,.75.75L1.5,5.44A2.69,2.69,0,0,0,3.17,7.76L6.36,8.82a3.089,3.089,0,0,0,1.54,0l3.19-1.06a2.688,2.688,0,0,0,1.67-2.31V.81a.75.75,0,0,1,1.5,0V5.45a4.159,4.159,0,0,1-2.69,3.74L8.38,10.25A4.445,4.445,0,0,1,7.13,10.42Z" transform="translate(176.87 264.33)"/>
    <path id="Vector-3"  d="M.75,7.5A.755.755,0,0,1,0,6.75v-6A.755.755,0,0,1,.75,0,.755.755,0,0,1,1.5.75v6A.755.755,0,0,1,.75,7.5Z" transform="translate(192.65 260.25)"/>
    <path id="Vector-4"  d="M0,0H24V24H0Z" transform="translate(172 252)" fill="none" opacity="0"/>
  </g>
</svg>
