<svg xmlns="http://www.w3.org/2000/svg" width="24" height="24" viewBox="0 0 24 24">
  <g id="vuesax_bold_document-like" transform="translate(-556 -252)">
    <g id="document-like">
      <path id="Vector" d="M0,0H24V24H0Z" transform="translate(556 252)" fill="none" opacity="0"/>
      <path id="Vector-2"  d="M13,0H5C1.5,0,0,2,0,5V15c0,3,1.5,5,5,5h8c3.5,0,5-2,5-5V5C18,2,16.5,0,13,0ZM10.07,13.49a3.909,3.909,0,0,1-2.8,2.48,3.948,3.948,0,0,1-2.79-2.48,2.071,2.071,0,0,1,1.13-2.65,1.484,1.484,0,0,1,1.66.52,1.45,1.45,0,0,1,1.66-.52A2.075,2.075,0,0,1,10.07,13.49ZM15.5,7.25h-2A2.748,2.748,0,0,1,10.75,4.5v-2a.75.75,0,0,1,1.5,0v2A1.25,1.25,0,0,0,13.5,5.75h2a.75.75,0,0,1,0,1.5Z" transform="translate(559 254)" fill="#32292f"/>
      <path id="Vector-3"  d="M0,0H24V24H0Z" transform="translate(580 276) rotate(180)" fill="none" opacity="0"/>
    </g>
  </g>
</svg>
