<svg xmlns="http://www.w3.org/2000/svg" width="24" height="24" viewBox="0 0 24 24">
  <g id="vuesax_outline_arrow-circle-down" transform="translate(-252 580) rotate(-90)">
    <g id="arrow-circle-down">
      <path id="Vector" d="M10.75,21.5A10.75,10.75,0,1,1,21.5,10.75,10.759,10.759,0,0,1,10.75,21.5Zm0-20A9.25,9.25,0,1,0,20,10.75,9.261,9.261,0,0,0,10.75,1.5Z" transform="translate(557.25 253.25)" fill="#fff"/>
      <path id="Vector-2"  d="M4.278,5.028a.742.742,0,0,1-.53-.22L.218,1.278A.75.75,0,0,1,1.277.218l3,3,3-3a.75.75,0,0,1,1.06,1.06l-3.53,3.53A.742.742,0,0,1,4.278,5.028Z" transform="translate(563.722 261.983)" fill="#fff"/>
      <path id="Vector-3"  d="M0,0H24V24H0Z" transform="translate(556 252)" fill="none" opacity="0"/>
    </g>
  </g>
</svg>
