<svg xmlns="http://www.w3.org/2000/svg" width="21.234" height="21.234" viewBox="0 0 21.234 21.234">
    <g id="vuesax_bold_star" transform="translate(-108 -188)">
        <g id="star" transform="translate(108 188)">
            <path id="Vector"
                d="M3.345,12.387a1.653,1.653,0,0,0-.389-1.363L.805,8.874A2.048,2.048,0,0,1,.062,6.866a2.048,2.048,0,0,1,1.77-1.2l2.76-.46a1.7,1.7,0,0,0,1.071-.787L7.185,1.363C7.627.487,8.229,0,8.883,0s1.256.487,1.7,1.363L12.1,4.415a1.6,1.6,0,0,0,.61.6L3.186,14.546a.18.18,0,0,1-.3-.168Z"
                transform="translate(1.734 1.77)" fill="#f8cf00" />
            <path id="Vector-2"
                d="M12.077,5.538A1.6,1.6,0,0,0,11.688,6.9l.61,2.663c.257,1.106.1,1.938-.451,2.336a1.326,1.326,0,0,1-.8.239,3.178,3.178,0,0,1-1.566-.513l-2.592-1.54a1.631,1.631,0,0,0-1.486,0l-2.592,1.54C1.831,12.2.991,12.3.451,11.9A1.3,1.3,0,0,1,0,11.28L10.759.521a1.756,1.756,0,0,1,1.54-.5l.894.15a2.048,2.048,0,0,1,1.77,1.2,2.048,2.048,0,0,1-.743,2.008Z"
                transform="translate(4.468 7.256)" fill="#f8cf00" />
            <path id="Vector-3" d="M0,0H21.234V21.234H0Z"
                transform="translate(21.234 21.234) rotate(180)" fill="none" opacity="0" />
        </g>
    </g>
</svg>
