<svg xmlns="http://www.w3.org/2000/svg" width="56.543" height="56.543" viewBox="0 0 56.543 56.543">
  <g id="vuesax_bold_teacher" transform="translate(-172 -252)">
    <path id="Vector" d="M26.41.4a2.354,2.354,0,0,1,3.652,1.979V5.422a8.074,8.074,0,0,1-5.136,7.139l-7.515,2.5a8.6,8.6,0,0,1-4.759,0l-7.515-2.5A8.037,8.037,0,0,1,0,5.422V2.359A2.355,2.355,0,0,1,3.628.38L8.481,3.537A11.89,11.89,0,0,0,15.054,5.4a11.89,11.89,0,0,0,6.573-1.861Z" transform="translate(185.24 288.443)" fill="#8204ff"/>
    <path id="Vector-2"  d="M40.988,10.513,26.875,1.255a9.212,9.212,0,0,0-9.282,0L3.41,10.513a7.507,7.507,0,0,0,0,12.581l3.77,2.45,10.413,6.785a9.212,9.212,0,0,0,9.282,0l10.343-6.785,3.228-2.12v7.209a1.767,1.767,0,0,0,3.534,0V19.042A7.481,7.481,0,0,0,40.988,10.513Z" transform="translate(178.084 256.706)" fill="#8204ff"/>
    <path id="Vector-3"  d="M0,0H56.543V56.543H0Z" transform="translate(228.543 308.543) rotate(180)" fill="none" opacity="0"/>
  </g>
</svg>
