<svg xmlns="http://www.w3.org/2000/svg" width="98.979" height="56.543" viewBox="0 0 98.979 56.543">
  <g id="Group_10100" transform="translate(-232 -426.729)">
    <g id="Rectangle_22152" transform="translate(275.864 431)" fill="none" stroke="#8204ff" stroke-width="3">
      <rect width="49" height="49" rx="14" stroke="none"/>
      <rect x="1.5" y="1.5" width="46" height="46" rx="12.5" fill="none"/>
    </g>
    <rect id="Rectangle_22119"  width="17" height="28" transform="translate(273 455)" fill="#f8f8f8"/>
    <g id="vuesax_bold_frame" transform="translate(124 174.729)">
      <g id="frame" transform="translate(108 252)">
        <path id="Vector" d="M11.191,0a11.181,11.181,0,0,0-.283,22.358,1.9,1.9,0,0,1,.518,0h.165A11.182,11.182,0,0,0,11.191,0Z" transform="translate(17.081 4.712)" fill="#8204ff"/>
        <path id="Vector-2" d="M28.554,3.287C21.981-1.1,11.261-1.1,4.641,3.287,1.649,5.289,0,8,0,10.9s1.649,5.584,4.618,7.563a21.767,21.767,0,0,0,11.968,3.322,21.767,21.767,0,0,0,11.968-3.322c2.968-2,4.618-4.688,4.618-7.61C33.148,7.951,31.523,5.266,28.554,3.287Z" transform="translate(11.685 30.05)" fill="#8204ff"/>
        <path id="Vector-3" d="M0,0H98.979V56.543H0Z" transform="translate(98.979 56.543) rotate(180)" fill="none" opacity="0"/>
      </g>
    </g>
    <line id="Line_49" y1="19" x2="16.729" transform="translate(281.771 445.5)" fill="none" stroke="#8204ff" stroke-linecap="round" stroke-width="2"/>
    <line id="Line_50" x2="11" y2="4" transform="translate(270.5 462.5)" fill="none" stroke="#8204ff" stroke-linecap="round" stroke-width="6"/>
  </g>
</svg>
