<svg xmlns="http://www.w3.org/2000/svg" xml:space="preserve" style="enable-background:new 0 0 42.51 42.51" viewBox="0 0 42.51 42.51"><path d="M7.93 42.51h26.64c4.36 0 7.93-3.57 7.93-7.93V7.93C42.5 3.57 38.93 0 34.57 0H7.93C3.57 0 0 3.57 0 7.93v26.64c0 4.37 3.57 7.94 7.93 7.94z" style="fill:#fff"/><linearGradient id="a" x1="43.768" x2="12.665" y1="45.004" y2="11.649" gradientUnits="userSpaceOnUse"><stop offset="0" style="stop-color:#0828ff"/><stop offset="1" style="stop-color:#00b1ff"/></linearGradient><path d="M29.25 9.27h-18c-.55 0-1 .45-1 1v19.98c0 .55.45 1 1 1h2v1c0 .55.45 1 1 1s1-.45 1-1v-1h14c1.66 0 3-1.34 3-3V12.27c0-1.66-1.34-3-3-3zm-4 19.97h-13V11.27h13v17.97zm5-1c0 .55-.45 1-1 1h-2V11.27h2c.55 0 1 .45 1 1v15.97z" style="fill:url(#a)"/><linearGradient id="b" x1="43.529" x2="13.341" y1="43.822" y2="11.449" gradientUnits="userSpaceOnUse"><stop offset="0" style="stop-color:#0828ff"/><stop offset="1" style="stop-color:#00b1ff"/></linearGradient><path d="m23.05 16.03-4.27-3.37a.736.736 0 0 0-.91 0l-4.26 3.36c-.33.26-.38.73-.12 1.05l.31.39c.26.33.73.38 1.05.12l.56-.44v2.11c0 .32.26.58.58.58h4.81c.32 0 .58-.26.58-.58v-2.02l.45.35c.32.25.78.2 1.03-.12l.33-.41c.23-.3.18-.77-.14-1.02zm-3.72 1.7h-1.92v-1.48l.96-.67.96.67v1.48z" style="fill:url(#b)"/></svg>