<svg xmlns="http://www.w3.org/2000/svg" xml:space="preserve"
    style="enable-background:new 0 0 42.5 42.5" viewBox="0 0 42.5 42.5"><path d="M7.9 42.5h26.6c4.4 0 7.9-3.6 7.9-7.9V7.9c0-4.4-3.6-7.9-7.9-7.9H7.9C3.6 0 0 3.6 0 7.9v26.6c0 4.4 3.6 8 7.9 8z" style="fill:#fff"/>
    <linearGradient id="a" x1="10.667" x2="49.637" y1="8.08" y2="47.763"
        gradientUnits="userSpaceOnUse"><stop offset="0" style="stop-color:#00b1ff"/>
        <stop offset="1" style="stop-color:#0828ff" /></linearGradient>
    <path
        d="M32.2 24.4c0 .1-.1.3-.1.4-.4 1.5-1.7 2.6-3.3 2.6h-4.1c-.5 0-.9-.4-.9-.9s.4-.8.9-.8h3.9c1.1 0 1.8-.7 1.8-1.8v-10c0-1.1-.7-1.8-1.8-1.8H13.8c-1.1 0-1.8.7-1.8 1.8v10c0 1.1.7 1.8 1.8 1.8h7.3c.6 0 1 .3 1 1v3.6c0 .2 0 .3.2.2h2.2c.5 0 .9.3 1 .7.1.4-.2.8-.6 1h-7.2c-.5-.2-.7-.5-.6-1 .1-.4.4-.7 1-.7h2.3c.2 0 .2 0 .2-.2v-2.6c0-.2 0-.2-.2-.2h-6.5c-1.9 0-3.4-1.5-3.4-3.4V13.8c0-1.9 1.5-3.4 3.4-3.4H29c1.5 0 2.9 1 3.3 2.5 0 .2.1.3.1.5-.2 3.6-.2 7.3-.2 11z"
        style="fill:url(#a)" />
    <linearGradient id="b" x1="8.018" x2="46.989" y1="10.681" y2="50.364"
        gradientUnits="userSpaceOnUse"><stop offset="0" style="stop-color:#00b1ff"/>
        <stop offset="1" style="stop-color:#0828ff" /></linearGradient>
    <path
        d="M16.6 18.8c-1.6-.3-2.3-1.6-2.2-2.8.1-1.3 1.2-2.3 2.4-2.3 1.3 0 2.4.9 2.7 2.1.2 1.1-.4 2.6-2.2 3 .2 0 .3.1.4.1 1.5.3 2.7 1.7 2.7 3.3v.9c0 .5-.4.9-.9.9h-5.1c-.5 0-.9-.4-.9-.9 0-.6-.1-1.2.1-1.8.5-1.3 1.4-2.1 2.8-2.4.1 0 .2 0 .2-.1zm.4 3.5h1.5c.1 0 .2 0 .2-.2-.1-.9-.8-1.5-1.7-1.5-.9 0-1.6.7-1.7 1.5 0 .1 0 .2.2.2H17zm.8-6c0-.5-.4-.9-.8-.9-.5 0-.9.4-.9.8 0 .5.4.9.8.9.5.1.9-.3.9-.8z"
        style="fill:url(#b)" />
    <linearGradient id="c" x1="12.626" x2="51.596" y1="6.156" y2="45.84"
        gradientUnits="userSpaceOnUse"><stop offset="0" style="stop-color:#00b1ff"/>
        <stop offset="1" style="stop-color:#0828ff" /></linearGradient>
    <path
        d="M22.1 18v-2.5c0-.7.3-1.3.9-1.6.6-.3 1.3-.2 1.8.2 1.1.8 2.2 1.6 3.3 2.5 1 .8 1 2.1 0 2.8-1.1.8-2.2 1.7-3.3 2.5-.6.4-1.2.5-1.8.2-.6-.3-.9-.9-.9-1.6V18zm1.7-2.5v5.1h.1c1.1-.8 2.1-1.6 3.2-2.4.1-.1.1-.1 0-.2l-1.2-.9c-.7-.6-1.4-1.1-2.1-1.6z"
        style="fill:url(#c)" /></svg>