<svg xmlns="http://www.w3.org/2000/svg" viewBox="0 0 512 512">
    <path d="M457 60H356.8l-9.7-29.2C340.9 12.4 323.8 0 304.4 0h-96.8c-19.4 0-36.6 12.4-42.7 30.8L155.2 60H131V35c0-19.3-15.7-35-35-35H76C56.7 0 41 15.7 41 35v26.8C17.4 68 0 89.5 0 115v260c0 30.3 24.7 55 55 55h402c30.3 0 55-24.7 55-55V115c0-30.3-24.7-55-55-55zM71 35c0-2.8 2.2-5 5-5h20c2.8 0 5 2.2 5 5v25H71V35zm411 340c0 13.8-11.2 25-25 25H55c-13.8 0-25-11.2-25-25V115c0-13.8 11.2-25 25-25h111c6.5 0 12.2-4.1 14.2-10.3l13.2-39.5c2-6.1 7.8-10.3 14.2-10.3h96.8c6.5 0 12.2 4.1 14.2 10.3l13.2 39.5c2 6.1 7.8 10.3 14.2 10.3h111c13.8 0 25 11.2 25 25v260z"/>
    <circle cx="436" cy="135" r="15"/>
    <path d="M106 120H76c-8.3 0-15 6.7-15 15s6.7 15 15 15h30c8.3 0 15-6.7 15-15s-6.7-15-15-15zM256 370c-74.4 0-135-60.6-135-135s60.6-135 135-135 135 60.6 135 135-60.6 135-135 135zm0-240c-57.9 0-105 47.1-105 105s47.1 105 105 105 105-47.1 105-105-47.1-105-105-105z"/>
    <g>
        <path d="M449.6 494.4H338.9c-26.2 0-47.6-21.4-47.6-47.6V343.2c0-26.2 21.4-47.6 47.6-47.6h110.7c26.2 0 47.6 21.4 47.6 47.6v103.6c0 26.2-21.4 47.6-47.6 47.6z"
              fill="#f4f4f6"/>
        <path d="M395 473.5c8 0 14.5-6.5 14.5-14.5V331c0-8-6.5-14.5-14.5-14.5s-14.5 6.5-14.5 14.5v128c0 8 6.5 14.5 14.5 14.5z"/>
        <path d="M316.5 395c0 8 6.5 14.5 14.5 14.5h128c8 0 14.5-6.5 14.5-14.5s-6.5-14.5-14.5-14.5H331c-8 0-14.5 6.5-14.5 14.5z"/>
        <path d="M456.3 278H333.7c-30.7 0-55.7 25.1-55.7 55.7v122.5c0 30.7 25.1 55.7 55.7 55.7h122.5c30.7 0 55.7-25.1 55.7-55.7V333.7c.1-30.6-25-55.7-55.6-55.7zm31.6 172.9c0 20.3-16.6 37-37 37H339.1c-20.3 0-37-16.6-37-37V339.1c0-20.3 16.6-37 37-37h111.8c20.3 0 37 16.6 37 37v111.8z"/>
    </g>
</svg>
