<svg xmlns="http://www.w3.org/2000/svg" xml:space="preserve" viewBox="0 0 490 490"><path d="M369 12.6H121C60.7 12.6 11.6 61.7 11.6 122v246.1c0 60.3 49.1 109.4 109.4 109.4h248c60.3 0 109.4-49.1 109.4-109.4V121.9c0-60.3-49.1-109.3-109.4-109.3zm72.9 355.5c0 40.2-32.7 72.9-72.9 72.9H121c-40.2 0-72.9-32.7-72.9-72.9V121.9C48.1 81.7 80.8 49 121 49h248c40.2 0 72.9 32.7 72.9 72.9v246.2z"/><path d="M95.5 199.4c-10.1 0-18.2-8.2-18.2-18.2v-51c0-30.2 24.5-54.7 54.7-54.7h52c10.1 0 18.2 8.2 18.2 18.2s-8.2 18.2-18.2 18.2h-52c-10.1 0-18.2 8.2-18.2 18.2v51c-.1 10.2-8.2 18.3-18.3 18.3zm301.3 93.5c10.1 0 18.2 8.2 18.2 18.2v51c0 30.2-24.5 54.7-54.7 54.7h-52c-10.1 0-18.2-8.2-18.2-18.2s8.2-18.2 18.2-18.2h52c10.1 0 18.2-8.2 18.2-18.2v-51c0-10.2 8.2-18.3 18.3-18.3z"/><path d="M351.3 348.6c7.1-7.1 7.1-18.7 0-25.8L169.9 142.3c-7.1-7.1-18.7-7.1-25.8 0-7.1 7.1-7.1 18.7 0 25.8l181.4 180.5c3.6 3.6 8.2 5.3 12.9 5.3 4.7 0 9.4-1.8 12.9-5.3z"/></svg>