<svg xmlns="http://www.w3.org/2000/svg" xml:space="preserve"
    style="enable-background:new 0 0 42.5 42.5" viewBox="0 0 42.5 42.5"><path d="M7.9 42.5h26.6c4.4 0 7.9-3.6 7.9-7.9V7.9c0-4.4-3.6-7.9-7.9-7.9H7.9C3.6 0 0 3.6 0 7.9v26.6c0 4.4 3.6 8 7.9 8z" style="fill:#fff"/>
    <linearGradient id="a" x1="6.721" x2="36.84" y1="11.166" y2="41.285"
        gradientUnits="userSpaceOnUse"><stop offset="0" style="stop-color:#00b1ff"/>
        <stop offset="1" style="stop-color:#0828ff" /></linearGradient>
    <path
        d="M14.9 33.8c-.2-.1-.4-.1-.6-.3-.7-.5-1.1-1.3-.9-2.2.1-.4.2-.9.3-1.3.2-.9.2-1.8 0-2.7l-.3-2.1c-.1-.4.1-.8.1-1.2.2-1 .3-2.1.3-3.1 0-.9-.1-1.8-.3-2.7-.1-.7-.1-1.3 0-1.9.2-.8.3-1.6.3-2.4.1-.9-.2-1.7-.4-2.6-.1-.4-.2-.8-.1-1.2.2-.9 1-1.5 1.9-1.5h3.1c1.2 0 2.1 1.1 1.8 2.3-.1.7-.3 1.3-.4 2-.1.9 0 1.7.1 2.6.1.6.2 1.1.3 1.7.1.3-.1.7-.1 1-.5 2.2-.4 4.4.1 6.6.1.5 0 .9-.1 1.4l-.3 2.4c-.1.9.2 1.7.4 2.6.1.4.2.8.1 1.2-.2.8-.7 1.3-1.4 1.5-.1 0-.1 0-.2.1-1.2-.2-2.4-.2-3.7-.2zm3.4-1.9V31.6c-.2-1-.5-2.1-.4-3.1.1-.7.1-1.4.3-2.1 0-.1 0-.2-.1-.2h-2.2c-.2 0-.2.1-.1.2.1.3.1.6.1 1 .1.9.2 1.8 0 2.7-.1.5-.2 1.1-.4 1.6 0 .2 0 .3.2.3h2c.1-.1.3-.1.6-.1zm-1.5-21.2h-1.2c-.3 0-.3.1-.2.3v.1c.2.9.4 1.8.4 2.8 0 .8-.1 1.6-.3 2.5 0 .1 0 .2.1.2h2.2c.1 0 .1 0 .1-.2-.1-.3-.1-.6-.1-1-.1-.8-.2-1.5-.1-2.3.1-.7.3-1.4.4-2.1 0-.2 0-.2-.2-.2-.2-.1-.6-.1-1.1-.1zm1.3 13.4c-.1-.9-.3-1.7-.3-2.6 0-1 .1-2 .3-3 0-.2 0-.2-.2-.2h-2.2c-.2 0-.2 0-.2.2.2 1.2.3 2.5.2 3.7-.1.6-.1 1.2-.2 1.9h2.6z"
        style="fill:url(#a)" />
    <linearGradient id="b" x1="9.248" x2="39.367" y1="8.639" y2="38.758"
        gradientUnits="userSpaceOnUse"><stop offset="0" style="stop-color:#00b1ff"/>
        <stop offset="1" style="stop-color:#0828ff" /></linearGradient>
    <path
        d="M23.9 33.8c-.2-.1-.5-.2-.7-.3-.7-.5-1-1.2-.8-2.1.1-.5.2-1.1.4-1.6.2-.8.1-1.6 0-2.4-.1-.7-.2-1.4-.4-2.1-.1-.4.1-.8.1-1.2.1-.8.2-1.6.3-2.5.1-.8-.1-1.5-.3-2.3-.1-.5-.3-1-.1-1.5.2-.9 1-1.5 1.8-1.5h3.1c1.2 0 2.1 1.1 1.8 2.2-.1.6-.2 1.1-.3 1.7-.2.9-.1 1.7 0 2.6.1.6.2 1.2.3 1.9.1.4-.1.9-.1 1.3l-.3 2.4c-.1.9.2 1.8.4 2.7.1.4.2.8.1 1.3-.2.7-.7 1.2-1.4 1.4-.1 0-.1 0-.2.1-1.3-.1-2.5-.1-3.7-.1zm.4-1.9H27c.3 0 .3 0 .2-.3-.2-1-.5-2-.4-3.1.1-.7.1-1.5.3-2.2 0-.1 0-.2-.1-.2h-2.3c-.1 0-.1 0-.1.2.1.3.1.7.1 1 .1 1.1.2 2.1-.1 3.1l-.3 1.5zm0-13.5c0 .2.1.3.1.4.2.9.4 1.8.4 2.7 0 .8-.1 1.7-.3 2.5 0 .1 0 .2.1.2h2.2c.1 0 .2 0 .1-.2 0-.3-.1-.6-.1-.9-.1-.8-.2-1.6-.1-2.4.1-.7.3-1.4.4-2.1 0-.2 0-.2-.2-.2h-2.6z"
        style="fill:url(#b)" />
    <linearGradient id="c" x1="1.577" x2="31.696" y1="16.31" y2="46.429"
        gradientUnits="userSpaceOnUse"><stop offset="0" style="stop-color:#00b1ff"/>
        <stop offset="1" style="stop-color:#0828ff" /></linearGradient>
    <path
        d="M8.7 21.7s0-.1.1-.1c.2-.5.6-.7 1.1-.6.5.1.8.5.8 1 0 .8.3 1.5.9 2.1.2.2.4.3.6.4.4.2.6.6.6 1.1-.3 1.5-1.6 2.5-3.1 2.4-.5 0-.8-.3-.9-.8v-.4c.2-.5.5-.8 1.1-.8.2 0 .3 0 .5-.1s.2-.2 0-.3c-.7-.6-1.2-1.3-1.4-2.2-.1-.3-.1-.6-.2-.9-.1-.3-.1-.6-.1-.8z"
        style="fill:url(#c)" />
    <linearGradient id="d" x1="12.926" x2="43.045" y1="4.961" y2="35.08"
        gradientUnits="userSpaceOnUse"><stop offset="0" style="stop-color:#00b1ff"/>
        <stop offset="1" style="stop-color:#0828ff" /></linearGradient>
    <path
        d="M33.8 22c-.1 1.5-.6 2.6-1.6 3.5-.2.1-.1.2 0 .3.2.1.4.1.6.1.6 0 1 .4 1 1s-.5 1-1.1 1c-1.5 0-2.7-1-3-2.4-.1-.5.1-.9.5-1.1.9-.4 1.2-1.1 1.4-1.9.1-.2.1-.4.1-.6.1-.5.4-.8.8-.9.4-.1.8.2 1 .5.3.1.3.3.3.5z"
        style="fill:url(#d)" />
    <linearGradient id="e" x1="14.067" x2="44.186" y1="3.82" y2="33.939"
        gradientUnits="userSpaceOnUse"><stop offset="0" style="stop-color:#00b1ff"/>
        <stop offset="1" style="stop-color:#0828ff" /></linearGradient>
    <path
        d="M24.9 11.3c-.1 1.6-.9 2.9-2.4 3.8-.1.1-.3.2-.5.2-.4.1-.9-.1-1.1-.5-.2-.4-.1-.9.3-1.2.1 0 .1-.1.2-.1 1-.5 1.4-1.3 1.5-2.4 0-.5.3-.9.7-1 .8-.2 1.3.2 1.3 1.2z"
        style="fill:url(#e)" /></svg>