<svg xmlns="http://www.w3.org/2000/svg" xml:space="preserve" id="Layer_1" x="0" y="0"
    style="enable-background:new 0 0 42.51 42.51" version="1.1" viewBox="0 0 42.51 42.51"><path d="M21.25 7.08c-3.91 0-7.09 3.17-7.09 7.09s3.17 7.09 7.09 7.09 7.09-3.17 7.09-7.09-3.17-7.09-7.09-7.09zm0 10.63c-1.96 0-3.54-1.59-3.54-3.54s1.59-3.54 3.54-3.54 3.54 1.59 3.54 3.54-1.58 3.54-3.54 3.54z" class="st0"/>
    <path
        d="M33.65 0H8.86A8.877 8.877 0 0 0 0 8.86v24.8a8.877 8.877 0 0 0 8.86 8.86h1.91c.9 0 1.63-.73 1.63-1.63V37.3c0-4.89 3.93-8.94 8.82-8.95a8.851 8.851 0 0 1 8.89 8.86v3.68c0 .9.73 1.63 1.63 1.63h1.91a8.877 8.877 0 0 0 8.86-8.86V8.86A8.877 8.877 0 0 0 33.65 0zm5.32 33.65c0 2.93-2.38 5.31-5.31 5.31V37.2c0-6.85-5.55-12.4-12.4-12.4s-12.4 5.55-12.4 12.4v1.77c-2.93 0-5.31-2.38-5.31-5.31V8.86c0-2.93 2.38-5.31 5.31-5.31h24.8c2.93 0 5.31 2.38 5.31 5.31v24.79z"
        class="st0" />
</svg>