<svg xmlns="http://www.w3.org/2000/svg" xml:space="preserve" id="Layer_1" x="0" y="0"
    style="enable-background:new 0 0 42.51 42.51" version="1.1" viewBox="0 0 42.51 42.51"><path d="M33.65 0H8.86A8.877 8.877 0 0 0 0 8.86v24.8a8.877 8.877 0 0 0 8.86 8.86V37.2c0-6.85 5.55-12.4 12.4-12.4s12.4 5.55 12.4 12.4v5.31a8.877 8.877 0 0 0 8.86-8.86V8.86C42.5 3.97 38.54.01 33.65 0zm-12.4 21.25c-3.91 0-7.09-3.17-7.09-7.09s3.17-7.08 7.09-7.08 7.08 3.17 7.08 7.08-3.16 7.09-7.08 7.09z" class="st0"/>
    <circle cx="21.25" cy="14.17" r="3.54" class="st0" />
    <path d="M21.25 28.34a8.877 8.877 0 0 0-8.86 8.86v5.31H30.1V37.2c.01-4.89-3.96-8.85-8.85-8.86z"
        class="st0" />
</svg>