<?xml version="1.0" encoding="utf-8"?>
<!-- Generator: Adobe Illustrator 24.3.0, SVG Export Plug-In . SVG Version: 6.00 Build 0)  -->
<svg version="1.1" id="Layer_1" xmlns="http://www.w3.org/2000/svg" xmlns:xlink="http://www.w3.org/1999/xlink" x="0px" y="0px"
	 viewBox="0 0 40 40" style="enable-background:new 0 0 40 40;" xml:space="preserve">
<g>
	<path d="M27,16.5L27,16.5c-1.9-1.8-5.7-5.1-5.7-5.1c-0.8-0.7-1.8-1.1-2.6-1.1s-1.8,0.4-2.6,1.1c0,0-3.7,3.4-5.7,5.1l0,0l-0.4,0.4
		c-0.8,0.7-0.6,2,0.4,2.5c0.5,0.2,0.9,0.2,1.4,0v4c0.1,1.6,1.6,3,3.5,3h3.5h3.4c1.9,0,3.3-1.4,3.5-3v-4c0.5,0.2,0.9,0.2,1.4,0
		c0.9-0.5,1.1-1.8,0.4-2.5L27,16.5z M22.1,21.5c0,0.4-0.2,0.6-0.6,0.7h-2.7h-2.7c-0.4-0.1-0.6-0.4-0.6-0.7v-4.7l2.2-2l0.5-0.5
		c0.2-0.2,0.5-0.4,0.6-0.4c0.2,0,0.4,0.1,0.6,0.4l0.5,0.5l2.2,2V21.5z"/>
	<path d="M39.8,37.1c-0.1-0.4-0.5-0.8-0.8-1.1c-4.9-4.9-0.1-0.1-5-5c-0.1-0.1-0.2-0.2-0.4-0.5c0.1-0.1,0.1-0.2,0.2-0.4
		c0.8-1.1,1.4-2.1,2-3.3c0.9-2,1.5-4.1,1.6-6.3c0.1-1.5,0.1-3-0.2-4.7c-0.5-2.8-1.5-5.3-3-7.6c-1.6-2.3-3.6-4.2-6.1-5.6
		c-2.3-1.4-4.9-2.2-7.5-2.5c-1.9-0.2-3.6-0.1-5.5,0.2s-3.7,1.1-5.5,2c-1.5,0.8-3,2-4.3,3.3c-1.6,1.6-2.8,3.5-3.7,5.5
		c-0.7,1.4-1.2,2.9-1.4,4.6c-0.1,0.6-0.8,5.3,0.6,8.8c0.7,2.1,1.6,4.1,3,5.9c2,2.6,4.6,4.6,7.6,5.9s6.3,1.8,9.6,1.3
		c2.6-0.4,5-1.2,7.2-2.6c0.7-0.4,1.3-0.8,2.1-1.4c0.1,0.1,0.2,0.4,0.4,0.5c4.8,4.8-0.1-0.1,4.7,4.7c0.5,0.5,1.1,1.1,1.8,1.3
		c0.2,0,0.6,0,0.8,0c0.1,0,0.2-0.1,0.4-0.1C39.7,39.5,40.3,38.2,39.8,37.1z M18.8,33.6c-8.1,0-14.7-6.6-14.6-14.6
		c0-8.1,6.5-14.6,14.6-14.6s14.6,6.6,14.6,14.6S26.9,33.6,18.8,33.6z"/>
</g>
</svg>
