<svg xmlns="http://www.w3.org/2000/svg" xml:space="preserve" id="Layer_1" x="0" y="0"
    style="enable-background:new 0 0 42.51 42.51" version="1.1" viewBox="0 0 42.51 42.51"><circle cx="14.92" cy="13.09" r="4.94" class="st0"/>
    <circle cx="27.64" cy="13.09" r="4.94" class="st0" />
    <path
        d="M.06 25.24v-.06.06zM33.66.02H8.88C4 .02.04 3.98.03 8.87v15.79l.03.53v.03c0 .05.01.09.03.14.16.52.36 1.03.61 1.53 1.06 2.19 3.1 3.85 5.58 4.54 2.3.62 4.74.61 7.03-.02.65-.17 1.29-.39 1.9-.66 1.14-.49 2.07-1.05 2.73-1.71 3.65-3.65 1.58-7.4-1.21-8.19-1.87-.53-4.21-.51-6.66 1.4-.75.59-1.47 1.25-2.14 1.87-.34.31-.67.62-.88.81-.89.79-1.77 1.4-2.63 1.48-.28.03-.56 0-.86-.1V8.87c0-2.93 2.38-5.31 5.31-5.31h24.78c2.93 0 5.31 2.38 5.31 5.31v17.44c-.27.08-.54.11-.8.08-.86-.08-1.74-.69-2.63-1.48-.21-.19-.54-.49-.88-.81-.67-.62-1.39-1.28-2.14-1.87-2.44-1.91-4.79-1.93-6.66-1.4-2.79.79-4.86 4.54-1.21 8.19.66.66 1.59 1.22 2.73 1.71.61.26 1.25.48 1.9.66 2.29.63 4.73.64 7.03.02.96-.27 1.86-.68 2.65-1.21 1.26-.84 2.28-1.98 2.93-3.33.19-.38.35-.76.48-1.15.03-.1.07-.19.1-.29l.03-.09V8.87A8.824 8.824 0 0 0 33.66.02z"
        class="st0" />
    <path
        d="M41.9 30.21a8.467 8.467 0 0 1-2.93 3.33v.13c0 2.93-2.38 5.31-5.31 5.31H8.85c-2.93 0-5.31-2.38-5.31-5.31v-.13c-1.26-.84-2.28-1.98-2.93-3.33-.19-.38-.35-.76-.48-1.15A9.71 9.71 0 0 1 0 28.9v4.76a8.86 8.86 0 0 0 8.85 8.85h24.81a8.86 8.86 0 0 0 8.85-8.85V28.9c-.04.05-.08.1-.13.15-.13.4-.29.78-.48 1.16z"
        class="st0" />
</svg>