<svg xmlns="http://www.w3.org/2000/svg" xml:space="preserve"
    style="enable-background:new 0 0 42.51 42.51" viewBox="0 0 42.51 42.51"><path d="M25.89 20.75c1.91-.54 4.29-.52 6.78 1.42.77.6 1.48 1.29 2.18 1.91 2.71 2.38 6.7 1.72 7.64-.33V7.6C42.48 2.71 38.52 0 33.64 0H8.85C3.97.01.01 2.72 0 7.6v16.15c.94 2.05 4.94 2.71 7.64.33.7-.62 1.41-1.31 2.18-1.91 2.49-1.94 4.87-1.96 6.78-1.42 2.84.81 4.95 4.63 1.23 8.34-.68.68-1.62 1.25-2.78 1.75-.63.27-1.27.49-1.93.67-2.34.64-4.82.65-7.16.02-2.53-.7-4.61-2.39-5.69-4.62-.1-.2-.19-.39-.27-.59v7.34c.01 4.89 3.97 8.85 8.85 8.85h24.79c4.89-.01 8.85-3.97 8.85-8.85v-7.34c-.08.2-.17.4-.27.59-1.08 2.23-3.16 3.92-5.69 4.62-2.34.63-4.83.62-7.16-.02-.66-.18-1.31-.4-1.93-.67-1.16-.5-2.1-1.07-2.78-1.75-3.71-3.71-1.61-7.53 1.23-8.34zm-11.05-2.59c-2.78 0-5.03-2.25-5.03-5.03 0-2.78 2.25-5.03 5.03-5.03 2.78 0 5.03 2.25 5.03 5.03 0 2.78-2.25 5.03-5.03 5.03zm7.79-5.03c0-2.78 2.25-5.03 5.03-5.03 2.78 0 5.03 2.25 5.03 5.03 0 2.78-2.25 5.03-5.03 5.03-2.77 0-5.03-2.25-5.03-5.03z" style="fill:#0094d9"/>
</svg>