<svg xmlns="http://www.w3.org/2000/svg" xml:space="preserve" id="Layer_1" x="0" y="0" style="enable-background:new 0 0 42.5 42.5" version="1.1" viewBox="0 0 42.5 42.5"><style>.st1{display:none;fill:url(#SVGID_1_)}.st2{fill:url(#SVGID_2_)}.st2,.st3{display:none}.st4,.st5{display:inline;fill:url(#SVGID_3_)}.st5{fill:#fff}.st6,.st7{fill:none;stroke-width:1.3472;stroke-miterlimit:10}.st6{display:none;stroke:url(#SVGID_4_)}.st7{stroke:url(#SVGID_5_)}.st8{fill:url(#SVGID_6_)}.st9{fill:url(#SVGID_7_)}.st10{fill:url(#SVGID_8_)}</style><path id="Layer_1_3_" d="M7.9 42.5h26.6c4.4 0 7.9-3.6 7.9-7.9V7.9c0-4.4-3.6-7.9-7.9-7.9H7.9C3.6 0 0 3.6 0 7.9v26.6c0 4.4 3.6 8 7.9 8z" style="fill:#fff"/><linearGradient id="SVGID_1_" x1="11.449" x2="29.016" y1="11.783" y2="29.35" gradientUnits="userSpaceOnUse"><stop offset="0" style="stop-color:#0828ff"/><stop offset="0" style="stop-color:#00b1ff"/><stop offset=".781" style="stop-color:#064eff"/><stop offset="1" style="stop-color:#082dff"/></linearGradient><path d="M14.1 10.4s0-.9.5-1.7c1.1-1.5 3.3-1.6 4.3-.1.1.2.3.5.4.8 0 0 3.6-.2 5.2 0 1.5.2 4.9 1.5 5.3 5.1 0 0 .6 4.2-3.1 5.9-.1.1-.2.2 0 .3.9.5 3.2 2.2 3.2 5.3v.2c0 .4-.2 1.7-.9 2.9-.9 1.7-2.6 2.8-4.5 3.1-1.3.1-3.1.2-5.3 0 0 0-.5 1.3-2.5 1.4 0 0-2.4-.2-2.6-2.8 0 0-.2-2.2 2.3-2.9 0 0 2.1-.5 3 2 0 0 3.6.4 5.5-.2 0 0 2.1-.6 2.5-2.6 0-.2 0-.4.1-.5 0-.8.4-2.7-2.2-4.1 0 0-1.5-.6-5.9-.7 0 0-.8 1.9-3 1.7 0 0-2.1-.4-2.2-2.7 0 0-.1-2.2 2-2.8 0 0 2.2-.7 3.2 1.6 0 0 5.8.6 7.3-1.8 0 0 .2-.2.4-.8.7-1.9 0-4.5-2.6-5-1.2-.2-2.7-.3-5.3-.1 0 0-.3 1-1.5 1.4-.7.2-1.6.2-2.3-.2-.7-.6-1.4-1.3-1.3-2.7z" style="fill:url(#SVGID_1_)"/></svg>