<svg xmlns="http://www.w3.org/2000/svg" viewBox="0 0 25 25" fill="currentColor">
    <path d="M23 20.8V5.9c0-1.1-.9-1.9-1.9-1.9h-1.3v1c0 .5-.4 1-1 1s-1-.4-1-1V4h-4.4v1c0 .5-.4 1-1 1s-1-.4-1-1V4H7.1v1c0 .5-.4 1-1 1s-1-.4-1-1V4H4c-1.1-.1-2 .8-2 1.9v1.5h18.1c.5 0 1 .4 1 1s-.4 1-1 1H2v11.8c0 .9.9 1.8 2 1.8h17.1c1.1 0 1.9-.9 1.9-1.9 0-.5.4-1 1-1s1 .4 1 1c0 2.1-1.7 3.9-3.9 3.9H4C1.9 25 .1 23.3.1 21.1V5.9C.1 3.7 1.8 2 4 2h1.2V1c0-.5.4-1 1-1s1 .4 1 1v1h4.4V1c0-.5.4-1 1-1s1 .4 1 1v1H18V1c0-.5.4-1 1-1s1 .4 1 1v1h1.3C23.2 2 25 3.7 25 5.9v14.9c0 .5-.4 1-1 1s-1-.5-1-1z"/>
</svg>
