<svg xmlns="http://www.w3.org/2000/svg" viewBox="0 0 50 50">
    <path fill="#383838"
        d="M44 9.6h-7.1c-.2 0-.4-.1-.5-.3l-2-4.1c-.8-1.5-2.3-2.5-4-2.5H19.8c-1.7 0-3.2 1-4 2.5l-2 4.1c-.1.2-.3.3-.5.3H6C2.8 9.6.2 12.2.2 15.4v26.2c0 3.2 2.6 5.8 5.8 5.8h38c3.2 0 5.8-2.6 5.8-5.8V15.4c0-3.2-2.6-5.8-5.8-5.8zm-19 30c-6.7 0-12.1-5.4-12.1-12.1 0-6.7 5.4-12.1 12.1-12.1 6.7 0 12.1 5.4 12.1 12.1 0 6.7-5.4 12.1-12.1 12.1zm15.1-18.4c-1.1 0-1.9-.9-1.9-1.9 0-1.1.9-1.9 1.9-1.9 1.1 0 1.9.9 1.9 1.9.1 1-.8 1.9-1.9 1.9zM25 19.3c-4.5 0-8.2 3.7-8.2 8.2s3.7 8.2 8.2 8.2c4.5 0 8.2-3.7 8.2-8.2s-3.7-8.2-8.2-8.2z" />
</svg>