<svg xmlns="http://www.w3.org/2000/svg" viewBox="0 0 512 512" fill="currentColor">
    <path d="M486.4 473.8h-20.1V293.1l7.7 7.7c6.9 6.9 18 6.9 24.9 0 6.9-6.9 6.9-18 0-24.9L272.5 49.5c-3.3-3.3-7.8-5.2-12.5-5.2s-9.2 1.9-12.5 5.2l-64.3 64.3V92.5c0-9.7-7.9-17.6-17.6-17.6H90.2c-9.7 0-17.6 7.9-17.6 17.6v132l-51.4 51.4c-6.9 6.9-6.9 18 0 24.9 6.9 6.9 18 6.9 24.9 0l7.7-7.7v180.7H33.6c-9.7 0-17.6 7.9-17.6 17.6S23.9 509 33.6 509h452.8c9.7 0 17.6-7.9 17.6-17.6s-7.9-17.6-17.6-17.6zM107.8 110.1H148V149l-40.2 40.2v-79.1zm96.9 363.7h-40.2V362.5h40.2v111.3zm226.3 0H239.9V344.9c0-9.7-7.9-17.6-17.6-17.6h-75.5c-9.7 0-17.6 7.9-17.6 17.6v128.8H89V257.9l171-171 171 171v215.9z"/>
    <path d="M297.7 438h75.5c9.7 0 17.6-7.9 17.6-17.6v-75.5c0-9.7-7.9-17.6-17.6-17.6h-75.5c-9.7 0-17.6 7.9-17.6 17.6v75.5c0 9.7 7.9 17.6 17.6 17.6zm17.6-75.5h40.2v40.2h-40.2v-40.2z"/>
</svg>
