<svg xmlns="http://www.w3.org/2000/svg" viewBox="0 0 512 512"><path d="M504.4 497h-8.5v-56.6c0-4.1-3.4-7.5-7.5-7.5h-88.7v-72.7c0-4.1-3.4-7.5-7.5-7.5h-40.6v-24.5c0-4.1-3.4-7.5-7.5-7.5h-72.7V248c0-4.1-3.4-7.5-7.5-7.5h-9.2c-3-15.8-15.5-28.3-31.4-31.3V168c0-4.1-3.4-7.5-7.5-7.5s-7.5 3.4-7.5 7.5v41.3c-15.8 3-28.3 15.5-31.4 31.3h-9.2c-4.1 0-7.5 3.4-7.5 7.5v56.6h-56.6c-4.1 0-7.5 3.4-7.5 7.5v56.6H23.6c-4.1 0-7.5 3.4-7.5 7.5V497H7.6c-4.1 0-7.5 3.4-7.5 7.5s3.4 7.5 7.5 7.5h496.9c4.1 0 7.5-3.4 7.5-7.5-.1-4.1-3.5-7.5-7.6-7.5zM111.2 319.8h81.2v17.1h-81.2v-17.1zM144.3 497h-17.1v-8.5c0-4.1-3.4-7.5-7.5-7.5s-7.5 3.4-7.5 7.5v8.5h-17v-8.5c0-4.1-3.4-7.5-7.5-7.5s-7.5 3.4-7.5 7.5v8.5h-17v-8.5c0-4.1-3.4-7.5-7.5-7.5s-7.5 3.4-7.5 7.5v8.5H31.1V383.8h113.3V497zm-33.1-128.2v-17.1h81.2v17.1h-81.2zM176.4 497h-17.1v-17.1h17.1V497zm0-32h-17.1v-17.1h17.1V465zm0-32.1h-17.1v-17.1h17.1v17.1zm-17.1-32.1v-17.1h33.1v17.1h-33.1zm177.4-48.1h-24.6c-4.1 0-7.5 3.4-7.5 7.5s3.4 7.5 7.5 7.5h24.6v17.1h-24.6c-4.1 0-7.5 3.4-7.5 7.5s3.4 7.5 7.5 7.5h24.6v17.1h-24.6c-4.1 0-7.5 3.4-7.5 7.5s3.4 7.5 7.5 7.5h24.6V449h-24.6c-4.1 0-7.5 3.4-7.5 7.5s3.4 7.5 7.5 7.5h24.6v33.1h-49.1v-8.5c0-4.1-3.4-7.5-7.5-7.5s-7.5 3.4-7.5 7.5v8.5h-17.1v-16.5c0-4.1-3.4-7.5-7.5-7.5s-7.5 3.4-7.5 7.5v16.5h-17.1v-16.5c0-4.1-3.4-7.5-7.5-7.5s-7.5 3.4-7.5 7.5v16.5h-17.1v-81.2h81.2v40.6c0 4.1 3.4 7.5 7.5 7.5s7.5-3.4 7.5-7.5v-48.1c0-4.1-3.4-7.5-7.5-7.5h-8.5v-24.6c0-4.1-3.4-7.5-7.5-7.5s-7.5 3.4-7.5 7.5v24.6h-49.1v-88.7c0-4.1-3.4-7.5-7.5-7.5h-24.6v-49.1h8.5c4.1 0 7.5-3.4 7.5-7.5 0-13.5 11-24.6 24.6-24.6 13.6 0 24.6 11 24.6 24.6 0 4.1 3.4 7.5 7.5 7.5h8.5v88.6c0 4.1 3.4 7.5 7.5 7.5s7.5-3.4 7.5-7.5v-8.5h65.2v17zm32 87.7V497h-17.1V367.7h33.1v65.2h-8.5c-4.1 0-7.5 3.4-7.5 7.5zM480.9 497h-25.1v-24.6c0-4.1-3.4-7.5-7.5-7.5s-7.5 3.4-7.5 7.5V497h-17.1v-24.6c0-4.1-3.4-7.5-7.5-7.5s-7.5 3.4-7.5 7.5V497h-25.1v-49.1h97.3V497z"/><path d="M232 272.7c-4.2 0-7.5 3.4-7.5 7.5s3.4 7.5 7.5 7.5 7.5-3.4 7.5-7.5c0-4.2-3.3-7.5-7.5-7.5zm0 96.1c-4.2 0-7.5 3.4-7.5 7.5s3.4 7.5 7.5 7.5 7.5-3.4 7.5-7.5c0-4.2-3.3-7.5-7.5-7.5zm0-32c-4.2 0-7.5 3.4-7.5 7.5s3.4 7.5 7.5 7.5 7.5-3.4 7.5-7.5-3.3-7.5-7.5-7.5zm0-32c-4.2 0-7.5 3.4-7.5 7.5s3.4 7.5 7.5 7.5 7.5-3.4 7.5-7.5c0-4.2-3.3-7.5-7.5-7.5zm-32-32.1c-4.2 0-7.5 3.4-7.5 7.5s3.4 7.5 7.5 7.5 7.5-3.4 7.5-7.5c0-4.2-3.4-7.5-7.5-7.5zM55.7 440.9c-4.1 0-7.5 3.4-7.5 7.5v8c0 4.1 3.4 7.5 7.5 7.5s7.5-3.4 7.5-7.5v-8c0-4.1-3.4-7.5-7.5-7.5zm32 0c-4.1 0-7.5 3.4-7.5 7.5v8c0 4.1 3.4 7.5 7.5 7.5s7.5-3.4 7.5-7.5v-8c0-4.1-3.4-7.5-7.5-7.5zm32 0c-4.1 0-7.5 3.4-7.5 7.5v8c0 4.1 3.4 7.5 7.5 7.5s7.5-3.4 7.5-7.5v-8c0-4.1-3.3-7.5-7.5-7.5zm-64-40.1c-4.1 0-7.5 3.4-7.5 7.5v8c0 4.1 3.4 7.5 7.5 7.5s7.5-3.4 7.5-7.5v-8c0-4.1-3.4-7.5-7.5-7.5zm32 0c-4.1 0-7.5 3.4-7.5 7.5v8c0 4.1 3.4 7.5 7.5 7.5s7.5-3.4 7.5-7.5v-8c0-4.1-3.4-7.5-7.5-7.5zm32 0c-4.1 0-7.5 3.4-7.5 7.5v8c0 4.1 3.4 7.5 7.5 7.5s7.5-3.4 7.5-7.5v-8c0-4.1-3.3-7.5-7.5-7.5zm96.2 32.1c-4.1 0-7.5 3.4-7.5 7.5v8c0 4.1 3.4 7.5 7.5 7.5s7.5-3.4 7.5-7.5v-8c0-4.1-3.3-7.5-7.5-7.5zm32.1 0c-4.1 0-7.5 3.4-7.5 7.5v8c0 4.1 3.4 7.5 7.5 7.5s7.5-3.4 7.5-7.5v-8c0-4.1-3.4-7.5-7.5-7.5z"/></svg>