<svg xmlns="http://www.w3.org/2000/svg" width="44" height="50" fill="none"><path fill="#fff" d="M43.033 22.184c-.764-2.384-1.528-4.769-3.056-6.812-1.146-1.363-2.674-1.363-3.438 0-.764 1.021-1.147 1.703-2.293 2.384v-.34c0-1.704-.382-3.407-1.146-5.11-1.146-2.725-2.292-5.45-4.584-7.494-3.82-3.407-8.788-5.11-14.136-4.77-1.529 0-2.675 1.363-1.529 2.726 1.147 2.044 2.293 4.088 2.675 6.472.382 3.406-.382 6.813-3.056 9.538-.383.34-.383.34-.765 0-.764-.34-1.528-.681-1.91-1.363-.764-1.021-1.528-2.043-1.91-3.406 0-.681-.764-1.022-1.528-1.363-1.147-.34-1.91 0-2.293 1.022-1.528 2.726-2.674 5.791-3.056 8.857-1.146 4.769-1.528 9.197 0 13.966 1.528 6.132 5.73 10.56 12.226 13.285 1.146.34 1.91.34 2.674-.34.764-.682.764-1.363 0-2.385-1.146-2.044-1.91-4.088-2.292-6.131v-3.407s0 .34.382.34c1.146 1.704 2.674 3.407 4.584 4.43 1.146.68 2.293.68 3.057-.682 2.292-3.407 3.82-7.154 3.438-11.241v-.681c.382.68.764 1.362 1.146 1.703 1.146 3.065 1.529 6.131 1.146 9.197-.382 2.384-.764 4.428-1.528 6.472-.382.681 0 1.363.382 2.044.764.34 1.529.681 2.293.34 8.405-2.724 13.371-8.175 14.9-16.01 1.146-3.406.382-7.494-.383-11.24Zm-4.202 14.307c-1.528 3.407-3.82 6.472-7.641 8.516 0 0-.382.34-.764.34 0-1.021.382-2.043.382-3.065.382-3.747.382-7.494-1.146-11.241-1.146-3.066-3.439-5.45-6.877-7.153-.382 0-.382-.341-.764-.341-.764-.34-1.529 0-1.91.34-.765.682-.765 1.023-.383 1.704.764 1.362 1.147 3.066 1.147 4.428.382 2.725-.383 5.45-1.91 8.175-1.147-1.021-2.293-2.384-2.675-3.747-.382-.68-.764-1.703-.764-2.725s-.764-1.362-1.528-1.703c-.764-.34-1.528 0-2.293.681-2.674 3.747-3.438 7.494-2.292 11.923v.681c-1.528-1.363-2.674-2.725-3.82-4.428-1.91-3.066-2.293-6.472-1.91-9.879.381-3.406.763-6.472 1.91-9.878 0 0 0-.341.382-.682.764 1.022.764 1.363 1.146 1.704 1.146 1.022 2.292 2.043 3.82 2.725 1.146.681 1.91.681 3.057-.341 5.348-5.11 6.877-11.241 4.202-18.054v-.34c.764 0 1.146 0 1.91.34 4.967 1.363 8.024 4.088 9.552 8.516 1.146 2.725 1.528 5.791 1.146 8.516 0 1.363 1.146 2.044 2.292 2.044.382 0 .764 0 .764-.34 1.91-.682 3.439-2.044 4.585-3.407.382 0 .382.34.382.681 1.146 3.066 1.91 6.132 1.91 9.538-.764 2.044-.764 4.428-1.91 6.472Z"/></svg>