<svg xmlns="http://www.w3.org/2000/svg" xml:space="preserve" id="Layer_1" x="0" y="0" version="1.1" viewBox="0 0 134 55.9"><path fill="#d52027" d="M133.8 36.8h-7.9v19c7.9-.3 7.9-7.1 7.9-7.1V36.8z"/><path fill="#8a0304" d="M133.8 36.8h-7.9v19c7.9-.3 7.9-7.1 7.9-7.1V36.8z"/><path fill="#d71921" d="M.3.2s9.6 20.6 14.1 29.7c4.4 8.9 13.9 11.4 21.1 11.4h89c2.5 0 8.4 1.8 9.3 7.4V9.9c0-5.3-4.3-9.6-9.6-9.6L.3.2z"/><path fill="#fff" d="m27.79 18.34 2.474-2.474 2.475 2.475-2.475 2.475z"/><path fill="#fff" d="m42.6 30.3 2.2 2.2 2.1-2.2-2.1-2.2zm4.8 0 2.2 2.2 2.3-2.2-2.3-2.2zm-3-4.1h1.1c.4 0 .8-.1 1.1-.1.4 0 .7-.1.9-.2.8-.2 1.5-.6 2.1-1.1s1.1-1.1 1.4-1.9c.3-.7.4-1.4.4-2.2 0-.5-.1-1-.2-1.6-.1-.6-.2-1.2-.4-1.8l-.6-1.8c-.2-.6-.5-1.1-.7-1.5l-3 1.5c.1.2.3.5.4.9s.3.7.5 1.1.3.8.5 1.2.3.8.4 1.2c.1.4.1.7.1 1s-.1.6-.2.8c-.2.3-.4.5-.8.6-.4.2-.7.3-1.2.4s-.9.2-1.4.2h-3.7c-.3 0-.6-.1-1-.3-.3-.2-.7-.5-1-.9s-.7-1-1.1-1.8l-1.1-2.1-2.7 1.7c.4.8.8 1.6 1.1 2.4.4.8.6 1.5.9 2.3.2.7.3 1.4.4 2.1 0 .7 0 1.3-.3 1.9-.2.6-.6 1.2-1 1.6-.4.4-.9.8-1.5 1.1-.6.3-1.3.5-2 .6s-1.5.2-2.4.3h-.3c-.7 0-1.3-.1-1.8-.2-.5-.2-1-.3-1.4-.6-.4-.2-.7-.5-1-.8-.3-.3-.5-.6-.7-.9-.2-.3-.3-.6-.4-.9-.1-.3-.2-.5-.2-.7-.1-.6-.1-1.2 0-1.8.1-.6.2-1.2.4-1.9.2-.6.4-1.2.7-1.8.3-.6.5-1.1.8-1.6l-2.7-2c-.4.7-.7 1.4-1 2.1-.3.7-.4 1.3-.6 1.9-.2.6-.3 1.3-.4 1.9-.1.6-.1 1.3-.1 2 0 1.3.2 2.5.7 3.6s1.1 2.1 2 3c.8.6 1.7 1.1 2.7 1.5 1 .3 2.3.5 3.7.5.6 0 1.3-.1 1.8-.2.6-.1 1.1-.2 1.6-.3s1-.3 1.5-.5.9-.4 1.3-.7c.7-.4 1.2-.9 1.7-1.5s.8-1.2 1.1-1.9c.3-.7.5-1.4.6-2.2.1-.7.2-1.5.2-2.2.5.2 1 .4 1.6.5.2.1.3.1.5.1h2.7zm42.9-14.4L85 9.6l-2.1 2.2L85 14zm-4.9 0-2.2-2.2-2.3 2.2 2.3 2.2zm17.4 10.3c-.4.1-.9.1-1.4.2s-1 .1-1.5.2c-.5 0-1 0-1.5-.2-.5-.1-.9-.3-1.3-.6s-.7-.6-.9-1c-.2-.4-.3-.8-.3-1.3 0-.3.1-.7.2-1s.3-.6.5-.8.5-.4.8-.6.7-.2 1.1-.2c.5 0 1 .1 1.5.3s.9.4 1.2.7c.4.3.8.6 1.1 1l2.1-2.6c-.5-.5-1.1-.9-1.7-1.3-.3-.2-.5-.3-.9-.5s-.6-.3-1-.4c-.4-.1-.7-.2-1.1-.3s-.8-.1-1.2-.1c-.9 0-1.6.2-2.4.5-.7.3-1.4.7-1.9 1.3-.5.5-.9 1.2-1.2 1.9-.3.7-.5 1.5-.5 2.3 0 .7.1 1.3.3 1.9.2.6.5 1.1.9 1.7h-3c-.4 0-.7-.1-.9-.3s-.4-.4-.5-.7l-.3-.9c-.1-.3-.1-.6-.1-.9 0-.4-.1-.8-.1-1.1s-.1-.6-.1-1-.1-.6-.2-1c-.1-.3-.2-.7-.3-1.1l-3.2.9c.1.4.2.7.3 1s.2.6.2.8c.1.3.1.5.1.7v.7c0 .6-.2 1.1-.5 1.4-.3.4-.7.6-1.2.8s-1 .3-1.6.4-1.4.1-1.9.1H65.2c-.4 0-.7-.1-1-.2-.3-.2-.6-.4-.9-.8-.3-.4-.6-.9-.9-1.6-.3-.7-.6-1.5-.9-2.5l-3.1 1.3c.1.3.3.7.4 1.2s.3.9.5 1.3c.2.5.3.9.5 1.4s.2 1 .3 1.5v.4c0 .5-.1 1.1-.3 1.6s-.5 1-.8 1.5-.8 1-1.2 1.4c-.5.5-1 .9-1.5 1.3s-1.1.8-1.7 1.2c-.6.4-1.2.7-1.8 1l1.4 3c1.1-.5 2.2-1.2 3.2-1.9s2-1.5 2.8-2.4 1.5-1.8 2.1-2.8c.5-1 .9-2 1-3.1.2.1.4.2.7.3.2.1.4.1.6.2.2 0 .4.1.5.1H78c.6 0 1.2 0 1.8-.1s1.2-.1 1.8-.3 1.1-.3 1.6-.5.9-.4 1.3-.7c.4.4.9.8 1.5 1.1.6.3 1.3.4 2.1.4h3c1.4 0 2.6 0 3.7-.1s2.1-.2 2.9-.3c.9-.1 1.6-.2 2.3-.4.7-.1 1.3-.3 1.8-.4l-.4-3.2c-.6 0-1.1.1-1.6.2zM92.045 8.573l2.474-2.475 2.475 2.474-2.474 2.475zM107.9 5.6l-3.3 1.1c.3 2.8.5 6 .6 9.5.1 2.7 0 6-.2 10l3.4-.5c.1-2.7.2-6.3.2-10.9-.1-2.9-.2-5.9-.7-9.2zm16.3 14.3c-.2-.9-.5-1.7-1-2.5s-1-1.6-1.7-2.4c-.7-.8-1.4-1.5-2.1-2.2-.8-.7-1.6-1.3-2.3-1.8l-1.9 2.9c.4.3.9.6 1.3.9.5.4 1 .8 1.4 1.2.5.4.9.9 1.4 1.4.4.5.8 1 1.2 1.4s.6.9.8 1.4c.2.4.3.8.3 1.2s-.1.7-.4.9-.6.4-.9.5-.7.2-1.1.2h-.9c-.4 0-.8-.1-1.3-.2s-1-.3-1.5-.4c-.5-.2-1-.4-1.4-.6s-.9-.4-1.2-.6l-1.4 3.2c.4.3.9.5 1.5.8.5.2 1.1.5 1.6.6.6.2 1.1.3 1.7.4s1.2.2 1.7.2c1.1.1 2-.1 2.9-.4s1.6-.8 2.1-1.3c.6-.6.9-1.3 1.2-2.1.2-.9.2-1.7 0-2.7z"/></svg>