<svg xmlns="http://www.w3.org/2000/svg" viewBox="0 0 512 512"><path d="M444.7 107.7c-1.7-1.7-3.9-2.6-6.6-2.6h-88.2l-20-47.7c-2.9-7-8-13-15.4-18-7.4-4.9-14.9-7.4-22.6-7.4h-91.4c-7.6 0-15.1 2.5-22.6 7.4-7.4 4.9-12.6 10.9-15.4 18l-20 47.7H54.4c-2.7 0-4.9.9-6.6 2.6-1.7 1.7-2.6 3.9-2.6 6.6v18.3c0 2.7.9 4.9 2.6 6.6 1.7 1.7 3.9 2.6 6.6 2.6h27.4v271.8c0 15.8 4.5 29.3 13.4 40.4 8.9 11.1 19.7 16.7 32.3 16.7H365c12.6 0 23.3-5.8 32.3-17.3 8.9-11.5 13.4-25.2 13.4-41V141.6h27.4c2.7 0 4.9-.9 6.6-2.6 1.7-1.7 2.6-3.9 2.6-6.6v-18.3c0-2.5-.9-4.7-2.6-6.4zm-248.4-36c1.3-1.7 2.9-2.8 4.9-3.1h90.5c1.9.4 3.5 1.4 4.9 3.1l13.7 33.4h-128l14-33.4zm177.9 340.6c0 4.2-.7 8-2 11.6-1.3 3.5-2.7 6.1-4.1 7.7-1.4 1.6-2.4 2.4-3 2.4H127.5c-.6 0-1.6-.8-3-2.4-1.4-1.6-2.8-4.2-4.1-7.7-1.3-3.5-2-7.4-2-11.6V141.6h255.8v270.7z"/><path d="M164 379.2h18.3c2.7 0 4.9-.9 6.6-2.6 1.7-1.7 2.6-3.9 2.6-6.6V205.6c0-2.7-.9-4.9-2.6-6.6-1.7-1.7-3.9-2.6-6.6-2.6H164c-2.7 0-4.9.9-6.6 2.6-1.7 1.7-2.6 3.9-2.6 6.6V370c0 2.7.9 4.9 2.6 6.6 1.8 1.7 4 2.6 6.6 2.6zm73.1 0h18.3c2.7 0 4.9-.9 6.6-2.6 1.7-1.7 2.6-3.9 2.6-6.6V205.6c0-2.7-.9-4.9-2.6-6.6-1.7-1.7-3.9-2.6-6.6-2.6h-18.3c-2.7 0-4.9.9-6.6 2.6-1.7 1.7-2.6 3.9-2.6 6.6V370c0 2.7.9 4.9 2.6 6.6 1.8 1.7 4 2.6 6.6 2.6zm73.1 0h18.3c2.7 0 4.9-.9 6.6-2.6 1.7-1.7 2.6-3.9 2.6-6.6V205.6c0-2.7-.9-4.9-2.6-6.6-1.7-1.7-3.9-2.6-6.6-2.6h-18.3c-2.7 0-4.9.9-6.6 2.6-1.7 1.7-2.6 3.9-2.6 6.6V370c0 2.7.9 4.9 2.6 6.6 1.8 1.7 3.9 2.6 6.6 2.6z"/></svg>