<svg xmlns="http://www.w3.org/2000/svg" viewBox="0 0 477.9 477.9"><path d="M392.5 238.9c-9.4 0-17.1 7.6-17.1 17.1v170.7c0 9.4-7.6 17.1-17.1 17.1H51.2c-9.4 0-17.1-7.6-17.1-17.1V85.3c0-9.4 7.6-17.1 17.1-17.1H256c9.4 0 17.1-7.6 17.1-17.1S265.5 34 256 34H51.2C22.9 34.1 0 57.1 0 85.3v341.3c0 28.3 22.9 51.2 51.2 51.2h307.2c28.3 0 51.2-22.9 51.2-51.2V256c0-9.4-7.6-17.1-17.1-17.1z"/><path d="M458.7 19.1C446.5 6.9 429.9 0 412.5 0c-17.3-.1-34 6.8-46.2 19.1L141.5 243.9c-1.9 1.9-3.3 4.2-4.1 6.7L103.3 353c-3 8.9 1.9 18.6 10.8 21.6 1.7.6 3.6.9 5.4.9 1.8 0 3.7-.3 5.4-.9l102.4-34.1c2.5-.8 4.8-2.3 6.7-4.1l224.8-224.8c25.5-25.6 25.5-66.9-.1-92.5zm-24.1 68.3L212.7 309.3l-66.3 22.1 22.1-66.2 222-221.9c12.2-12.2 32-12.2 44.1 0 5.8 5.8 9.1 13.7 9.1 22 .1 8.3-3.2 16.3-9.1 22.1z"/></svg>