<svg xmlns="http://www.w3.org/2000/svg" viewBox="0 0 485.1 485.1"><path d="M460.5 95.6h-88.6c-13.6 0-24.7 11-24.7 24.6v64h-64c-13.6 0-24.7 11-24.7 24.6v64h-64c-13.6 0-24.7 11-24.7 24.6v67.1h-67.1c-6.5 0-12.8 2.6-17.4 7.2-4.6 4.6-7.2 10.9-7.2 17.4v51.6c0 13.6 11 24.7 24.7 24.7h357.6c13.6 0 24.7-11 24.7-24.7V120.3c0-13.6-11-24.7-24.6-24.7z"/><path d="M330.8 24.6c-6.3-6.5-16.7-6.6-23.2-.3-105.5 102.7-205.8 203-302.8 300-3.1 3.1-4.8 7.3-4.8 11.6v112.5c0 9.1 7.4 16.4 16.4 16.4 9.1 0 16.4-7.4 16.4-16.4V342.7c95.4-95.4 194.1-194 297.6-294.9 6.5-6.3 6.7-16.7.4-23.2z"/></svg>