<svg xmlns="http://www.w3.org/2000/svg" xml:space="preserve"
    style="enable-background:new 0 0 42.5 42.5" viewBox="0 0 42.5 42.5"><path d="M7.9 42.5h26.6c4.4 0 7.9-3.6 7.9-7.9V7.9c0-4.4-3.6-7.9-7.9-7.9H7.9C3.6 0 0 3.6 0 7.9v26.6c0 4.4 3.6 8 7.9 8z" style="fill:#fff"/>
    <linearGradient id="a" x1="-223.406" x2="291.317" y1="-220.572" y2="294.151"
        gradientUnits="userSpaceOnUse"><stop offset="0" style="stop-color:#00b1ff"/>
        <stop offset="1" style="stop-color:#0828ff" /></linearGradient>
    <path
        d="M32.1 27.6V19c-.1-1.2-.6-2-1.7-2.5-2.2-1.2-4.5-2.4-6.7-3.6-.3-.2-.6-.3-1-.4-.5-.2-1.7-.5-3.1.1-.3.1-.5.2-.8.4-2.2 1.2-4.5 2.4-6.7 3.6-1.1.6-1.7 1.5-1.7 2.8v9.5c0 1.7 1.1 2.9 2.5 3.1H29.6c1.3-.3 2.2-1.2 2.4-2.5.1-.7.1-1.3.1-1.9zm-2 1.3c0 .6-.4 1.1-1 1.1H13.5c-.6 0-1-.4-1-1v-9.7c0-.4.2-.8.6-1 2.3-1.2 4.6-2.5 6.9-3.7.9-.5 1.8-.5 2.7 0 2.3 1.2 4.6 2.5 7 3.7.4.2.5.5.6.9-.2 1.9-.2 7.8-.2 9.7z"
        style="fill:url(#a)" />
    <linearGradient id="b" x1="1.095" x2="43.359" y1="3.019" y2="45.282"
        gradientUnits="userSpaceOnUse"><stop offset="0" style="stop-color:#00b1ff"/>
        <stop offset="1" style="stop-color:#0828ff" /></linearGradient>
    <path
        d="M24.4 19.4c-.4-.2-.8-.1-1.1.2-1.9 1.9-3.7 3.7-5.5 5.6-.4.4-.4 1 0 1.4.4.4 1 .4 1.4 0 1.9-1.8 3.7-3.7 5.6-5.6.2-.2.3-.4.3-.8-.2-.3-.4-.6-.7-.8z"
        style="fill:url(#b)" />
    <linearGradient id="c" x1="-1.631" x2="40.519" y1=".293" y2="42.442"
        gradientUnits="userSpaceOnUse"><stop offset="0" style="stop-color:#00b1ff"/>
        <stop offset="1" style="stop-color:#0828ff" /></linearGradient>
    <path d="M18.4 21.3c.5 0 1-.4 1-1 0-.5-.5-1-1-1s-1 .5-1 1c0 .6.5 1 1 1z" style="fill:url(#c)" />
    <linearGradient id="d" x1="3.925" x2="46.073" y1="5.858" y2="48.006"
        gradientUnits="userSpaceOnUse"><stop offset="0" style="stop-color:#00b1ff"/>
        <stop offset="1" style="stop-color:#0828ff" /></linearGradient>
    <path d="M24 24.9c-.5 0-1 .4-1 1 0 .5.4 1 1 1 .5 0 1-.4 1-1-.1-.6-.5-1-1-1z"
        style="fill:url(#d)" /></svg>