<svg xmlns="http://www.w3.org/2000/svg" viewBox="0 0 512 512"><g transform="translate(1 1)"><linearGradient id="a" x1="283.808" x2="370.422" y1="78.833" y2="295.902" gradientUnits="userSpaceOnUse"><stop offset="0" stop-color="#f9df7b"/><stop offset=".204" stop-color="#b57e10"/><stop offset=".264" stop-color="#b78114"/><stop offset=".323" stop-color="#bf8c1f"/><stop offset=".38" stop-color="#cb9e33"/><stop offset=".437" stop-color="#ddb64e"/><stop offset=".493" stop-color="#f3d671"/><stop offset=".508" stop-color="#f9df7b"/><stop offset=".519" stop-color="#fff3a6"/><stop offset=".593" stop-color="#f9df7b"/><stop offset=".843" stop-color="#b57e10"/><stop offset=".949" stop-color="#e5c35c"/><stop offset="1" stop-color="#f9df7b"/></linearGradient><path fill="url(#a)" d="M491.9 165.3c-19.2-51-76.2-76.8-127.2-57.6l-43 16.2c-10.2 3.8-15.4 15.2-11.5 25.4 3.8 10.2 15.2 15.4 25.4 11.5l43-16.2c30.6-11.5 64.8 3.9 76.3 34.5s-3.9 64.8-34.5 76.3l-116.9 44.1c-30.6 11.5-64.8-3.9-76.3-34.5-3.8-10.2-15.2-15.4-25.4-11.5-10.2 3.8-15.4 15.2-11.5 25.4 19.2 51 76.2 76.8 127.2 57.6l116.9-44.1c50.9-19.2 76.7-76.1 57.5-127.1z"/><linearGradient id="b" x1="113.576" x2="200.19" y1="146.758" y2="363.827" gradientUnits="userSpaceOnUse"><stop offset="0" stop-color="#f9df7b"/><stop offset=".204" stop-color="#b57e10"/><stop offset=".264" stop-color="#b78114"/><stop offset=".323" stop-color="#bf8c1f"/><stop offset=".38" stop-color="#cb9e33"/><stop offset=".437" stop-color="#ddb64e"/><stop offset=".493" stop-color="#f3d671"/><stop offset=".508" stop-color="#f9df7b"/><stop offset=".519" stop-color="#fff3a6"/><stop offset=".593" stop-color="#f9df7b"/><stop offset=".843" stop-color="#b57e10"/><stop offset=".949" stop-color="#e5c35c"/><stop offset="1" stop-color="#f9df7b"/></linearGradient><path fill="url(#b)" d="M18.8 344.3C38 395.3 95 421.1 146 401.9l43-16.2c10.2-3.8 15.4-15.2 11.5-25.4-3.8-10.2-15.2-15.4-25.4-11.5l-43 16.2c-30.6 11.5-64.8-3.9-76.3-34.5s3.9-64.8 34.5-76.3l116.9-44.1c30.6-11.5 64.8 3.9 76.3 34.5 3.8 10.2 15.2 15.4 25.4 11.5s15.4-15.2 11.5-25.4c-19.2-51-76.2-76.8-127.2-57.6l-116.8 44c-51 19.2-76.8 76.2-57.6 127.2z"/></g><g transform="translate(1 1)"><linearGradient id="c" x1="186.631" x2="501.045" y1="222.027" y2="222.027" gradientUnits="userSpaceOnUse"><stop offset="0" stop-color="#f9df7b"/><stop offset=".204" stop-color="#b57e10"/><stop offset=".264" stop-color="#b78114"/><stop offset=".323" stop-color="#bf8c1f"/><stop offset=".38" stop-color="#cb9e33"/><stop offset=".437" stop-color="#ddb64e"/><stop offset=".493" stop-color="#f3d671"/><stop offset=".508" stop-color="#f9df7b"/><stop offset=".519" stop-color="#fff3a6"/><stop offset=".593" stop-color="#f9df7b"/><stop offset=".843" stop-color="#b57e10"/><stop offset=".949" stop-color="#e5c35c"/><stop offset="1" stop-color="#f9df7b"/></linearGradient><path fill="none" stroke="url(#c)" stroke-miterlimit="10" stroke-width="4" d="M492.6 165c-19.3-51.2-76.5-77.1-127.7-57.8l-43.1 16.3c-10.2 3.9-15.4 15.3-11.6 25.5 3.9 10.2 15.3 15.4 25.5 11.6l43.1-16.3c30.7-11.6 65 3.9 76.6 34.7 11.6 30.7-3.9 65-34.6 76.6l-117.3 44.2c-30.7 11.6-65-3.9-76.6-34.6-3.9-10.2-15.3-15.4-25.5-11.6-10.2 3.9-15.4 15.3-11.6 25.5 19.3 51.2 76.5 77.1 127.7 57.7l117.3-44.2c51.3-19.3 77.2-76.4 57.8-127.6z"/><linearGradient id="d" x1="9.648" x2="324.062" y1="287.536" y2="287.536" gradientUnits="userSpaceOnUse"><stop offset="0" stop-color="#f9df7b"/><stop offset=".204" stop-color="#b57e10"/><stop offset=".264" stop-color="#b78114"/><stop offset=".323" stop-color="#bf8c1f"/><stop offset=".38" stop-color="#cb9e33"/><stop offset=".437" stop-color="#ddb64e"/><stop offset=".493" stop-color="#f3d671"/><stop offset=".508" stop-color="#f9df7b"/><stop offset=".519" stop-color="#fff3a6"/><stop offset=".593" stop-color="#f9df7b"/><stop offset=".843" stop-color="#b57e10"/><stop offset=".949" stop-color="#e5c35c"/><stop offset="1" stop-color="#f9df7b"/></linearGradient><path fill="none" stroke="url(#d)" stroke-miterlimit="10" stroke-width="4" d="M18 344.6c19.3 51.2 76.5 77.1 127.7 57.8l43.1-16.3c10.2-3.9 15.4-15.3 11.6-25.5-3.9-10.2-15.3-15.4-25.5-11.6l-43.1 16.3c-30.7 11.6-65-3.9-76.6-34.7-11.6-30.7 3.9-65 34.6-76.6l117.3-44.2c30.7-11.6 65 3.9 76.6 34.6 3.9 10.2 15.3 15.4 25.5 11.6 10.2-3.9 15.4-15.3 11.6-25.5-19.3-51.2-76.5-77.1-127.7-57.7L75.8 217C24.6 236.3-1.3 293.4 18 344.6z"/></g></svg>