<svg xmlns="http://www.w3.org/2000/svg" viewBox="0 0 512 512"><path d="M255.7 508.7c-28.5 0-55-12.8-72.6-35.2-31.8-40.4-75.9-100.4-105.4-156.9-14-26.9-7-60.1 16.6-78.9l90-71.8c.1-.1.3-.2.4-.3 42.1-31.7 100.9-31.7 143 0l20.5 15.4v-17.6c0-10.9 8.8-19.7 19.7-19.7 10.9 0 19.7 8.8 19.7 19.7v57.1c0 7.5-4.2 14.3-10.9 17.6-6.7 3.3-14.7 2.6-20.6-1.9l-52-39.1c-28.1-21.1-67.3-21.2-95.5-.2l-89.8 71.6c-9 7.2-11.6 19.7-6.3 29.9 28.1 53.8 70.7 111.7 101.5 150.8 10.1 12.9 25.3 20.2 41.7 20.2 16.4 0 31.6-7.4 41.8-20.3C379.8 344.6 427 259.6 427 215.8c0-94.6-76.8-171.6-171.2-171.6-86.2 0-159.2 64.5-169.9 150-1.3 10.8-11.2 18.4-22 17.1-10.8-1.3-18.4-11.2-17.1-22C59.9 84.2 149.8 4.9 255.8 4.9c56.3 0 109.2 21.9 149 61.8 39.7 39.8 61.6 92.8 61.6 149.1 0 32.5-15.9 75-48.5 129.9-22.7 38.2-52.7 81.1-89.4 127.7-17.7 22.4-44.2 35.3-72.8 35.3zm.1-178.1c13.6 0 24.6-11 24.6-24.6 0-13.6-11-24.6-24.6-24.6s-24.6 11-24.6 24.6c0 13.6 11 24.6 24.6 24.6"/></svg>