<svg width="104" height="100" viewBox="0 0 104 100" fill="none" xmlns="http://www.w3.org/2000/svg">
<g id="Mr-Logo">
<path id="mustache" d="M97.9606 61.9546C97.9606 61.9546 97.9433 61.9546 97.9606 61.9546C97.1324 61.7264 96.2525 62.0249 95.7694 62.6744C92.9398 65.9749 90.5415 67.1335 88.4366 66.9229C86.3317 66.7122 84.037 65.1322 81.8285 63.1484L81.7077 63.0431C81.1728 62.5691 80.4137 61.8317 79.6028 61.0769C77.9291 59.4969 76.1348 57.8115 74.237 56.3017C68.112 51.4037 62.0559 50.8595 57.5183 52.7379C55.189 53.6859 53.2048 55.2659 51.8591 57.2849C50.496 55.2659 48.5291 53.6684 46.1999 52.7379C41.6623 50.8946 35.6235 51.4389 29.4812 56.3017C27.6006 57.8115 25.7889 59.4969 24.1154 61.0944C23.27 61.9019 22.4418 62.6744 21.9069 63.1484C19.6812 65.1673 17.4727 66.7122 15.2988 66.9229C13.1249 67.1335 10.7956 65.9573 7.89706 62.5691C7.22418 61.7439 5.96466 61.6035 5.10198 62.2531C4.4636 62.7271 4.18754 63.5346 4.4291 64.2719C4.82592 65.6062 5.34353 66.9053 5.96466 68.1693C8.63896 73.7695 13.746 78.0004 19.9745 79.7559C25.7373 81.3359 31.8622 81.3184 37.6249 79.7033C39.264 79.2644 40.8513 78.7026 42.3869 78.0355C47.0281 75.9991 50.0992 73.3306 51.8764 70.4691C53.6535 73.3131 56.7246 75.9991 61.3658 78.0355C62.9186 78.7026 64.5059 79.2644 66.1451 79.7033C71.8904 81.3184 78.0155 81.3359 83.7782 79.7735C90.0067 78.0179 95.131 73.7871 97.788 68.1869C98.4092 66.9229 98.9095 65.6237 99.3236 64.2895C99.6342 63.2889 99.013 62.2355 97.9606 61.9546Z" fill="#008BD2"/>
<path id="bottom" d="M89.3511 78.5459C87.1081 78.5284 85.2964 80.3717 85.2964 82.6364C85.2964 87.1307 81.8803 90.8349 77.4633 90.8349H26.4964C22.045 90.8349 18.439 87.1657 18.439 82.6364V82.5135C18.439 80.2489 16.6447 78.423 14.419 78.423C12.1932 78.423 10.3988 80.2489 10.3988 82.5135V82.6364C10.3988 91.6951 17.6109 99.0333 26.5136 99.0333H77.2563C86.0729 99.0333 93.2676 91.7829 93.3712 82.8295C93.3712 80.5297 91.6113 78.5635 89.3511 78.5459Z" fill="#008BD2"/>
<path id="hat" d="M102.239 44.2606L60.2788 3.32105C60.2271 3.26838 60.1753 3.21571 60.1063 3.16305C55.5169 -1.01518 48.5982 -1.03274 44.0087 3.12793C43.957 3.1806 43.8879 3.23326 43.8362 3.28593L1.496 44.2431C-0.0740753 45.8406 -0.0740753 48.4389 1.496 50.0364C3.06607 51.6339 5.6196 51.6339 7.18967 50.0364L10.3816 46.7886V57.7784C10.3816 60.0431 12.176 61.8689 14.4017 61.8689C16.6274 61.8689 18.4217 60.0431 18.4217 57.7784V38.7482C18.4217 38.7131 18.4217 38.6779 18.4217 38.6253L49.4264 9.16705C50.9274 7.86793 53.1532 7.86793 54.6541 9.1846L85.2792 38.5199V57.4273C85.2792 59.6393 86.9528 61.5353 89.1095 61.6407C91.4214 61.746 93.3367 59.8675 93.3367 57.5502V46.7886L96.5286 50.0539C97.3222 50.8615 98.3574 51.2653 99.3926 51.2653C100.411 51.2653 101.446 50.8615 102.222 50.0715C103.81 48.4564 103.81 45.8582 102.239 44.2606Z" fill="#008BD2"/>
</g>
</svg>
