<svg xmlns="http://www.w3.org/2000/svg" width="100" height="100" fill="none"><path fill="#717171" d="M47.9 35c1.568 1.774 4.132 1.774 5.841 0 1.567-1.774 1.567-4.677 0-6.613L30.378 2.097c-.854-.968-1.851-1.452-2.849-1.29-.997 0-2.136.483-2.849 1.29L1.175 28.548c-1.567 1.775-1.567 4.678 0 6.452s4.131 1.774 5.84 0l16.383-18.548v78.225c0 2.581 1.852 4.678 4.131 4.678 2.28 0 4.132-2.097 4.132-4.678V16.613L47.9 35Z"/><path fill="#717171" d="M66.562 39.677c-.855-.967-1.852-1.451-2.849-1.29-.997 0-2.137.484-2.85 1.29L42.06 60.967c-1.567 1.775-1.567 4.678 0 6.452 1.567 1.775 4.131 1.775 5.84 0l11.824-13.387v40.484c0 2.58 1.852 4.677 4.132 4.677 2.279 0 4.13-2.096 4.13-4.677V54.193L79.81 67.582c1.567 1.774 4.132 1.774 5.841 0 1.567-1.775 1.567-4.678 0-6.613l-19.089-21.29Zm32.053-22.903L85.65 2.097c-.427-.484-.855-.807-1.424-1.13h-.143c-.142-.16-.427-.16-.57-.16-.285 0-.57-.162-.855-.162-.997 0-2.136.484-2.849 1.29l-13.105 15c-1.567 1.775-1.567 4.678 0 6.452s4.13 1.774 5.84 0l6.268-7.097v21.452c0 2.58 1.852 4.677 4.131 4.677 2.28 0 4.132-2.096 4.132-4.677v-21.13l5.983 6.775c1.567 1.774 4.131 1.774 5.84 0 1.71-1.774 1.283-4.839-.284-6.613Z"/></svg>