<svg xmlns="http://www.w3.org/2000/svg" viewBox="0 0 512 512"><path d="M463.7 480H456V165.6c0-5.4-4.4-9.8-9.9-9.8l-156.3.5c-5.4 0-9.8 4.4-9.8 9.8v90h-88c-4.4 0-8 3.6-8 8v216h-64v-48.6c30.6-4.4 51.8-32.8 47.4-63.4-2.1-14.2-9.5-27.1-20.8-36 11-19.1 4.5-43.6-14.7-54.6s-43.6-4.5-54.6 14.7c-7.1 12.4-7.1 27.6 0 40-24.3 19.1-28.5 54.4-9.3 78.6 8.9 11.3 21.8 18.7 36 20.8v11.6L83.6 433c-3.9-2-8.8-.4-10.8 3.5s-.4 8.8 3.5 10.8c0 0 .1 0 .1.1l27.6 13.8V480H16.3c-4.3 0-8 3.2-8.3 7.5-.3 4.7 3.4 8.5 8 8.5h448c4.6 0 8.3-3.9 8-8.5-.3-4.3-4-7.5-8.3-7.5zM72 376c0-14.5 7.9-27.9 20.6-35 3.9-2.1 5.3-7 3.1-10.9-.3-.6-.7-1.1-1.2-1.6-9.1-9.6-8.7-24.8.9-33.9s24.8-8.7 33.9.9c8.7 9.3 8.7 23.7 0 33-3 3.2-2.9 8.3.3 11.3.5.5 1 .9 1.6 1.2 19.3 10.7 26.3 35 15.6 54.4-5.7 10.2-15.5 17.5-27 19.8V384c0-4.4-3.6-8-8-8s-8 3.6-8 8v31.2C85.4 411.4 72 395 72 376zm128-104h80v208h-80V272zm128 208v-80h32v80h-32zm48 0v-80h32v80h-32zm48 0v-88c0-4.4-3.6-8-8-8h-96c-4.4 0-8 3.6-8 8v88h-16V172.9l144-.1V480h-16z"/><path d="M496 480h-65c-4.4 0-8 3.6-8 8s3.6 8 8 8h65c4.4 0 8-3.6 8-8s-3.6-8-8-8zm-80-168h-96c-4.4 0-8 3.6-8 8v40c0 4.4 3.6 8 8 8h96c4.4 0 8-3.6 8-8v-40c0-4.4-3.6-8-8-8zm-8 40h-80v-24h80v24zm8-104h-96c-4.4 0-8 3.6-8 8v40c0 4.4 3.6 8 8 8h96c4.4 0 8-3.6 8-8v-40c0-4.4-3.6-8-8-8zm-8 40h-80v-24h80v24zm8-104h-96c-4.4 0-8 3.6-8 8v40c0 4.4 3.6 8 8 8h96c4.4 0 8-3.6 8-8v-40c0-4.4-3.6-8-8-8zm-8 40h-80v-24h80v24zm-152 64h-40c-4.4 0-8 3.6-8 8v40c0 4.4 3.6 8 8 8h40c4.4 0 8-3.6 8-8v-40c0-4.4-3.6-8-8-8zm-8 40h-24v-24h24v24zm8 24h-40c-4.4 0-8 3.6-8 8v40c0 4.4 3.6 8 8 8h40c4.4 0 8-3.6 8-8v-40c0-4.4-3.6-8-8-8zm-8 40h-24v-24h24v24zm8 24h-40c-4.4 0-8 3.6-8 8v40c0 4.4 3.6 8 8 8h40c4.4 0 8-3.6 8-8v-40c0-4.4-3.6-8-8-8zm-8 40h-24v-24h24v24z"/></svg>