<svg xmlns="http://www.w3.org/2000/svg" xml:space="preserve" id="Layer_1" x="0" y="0" style="enable-background:new 0 0 141.7 141.7" version="1.1" viewBox="0 0 141.7 141.7"><path d="M104.1 78.3c-.6-.2-1.2 0-1.6.5-2 2.3-3.8 3.2-5.3 3-1.5-.1-3.2-1.3-4.8-2.7V79c-.4-.3-.9-.9-1.5-1.4-1.2-1.1-2.5-2.3-3.9-3.4-4.4-3.5-8.8-3.9-12-2.5-1.7.7-3.1 1.8-4.1 3.2-1-1.4-2.4-2.6-4.1-3.2-3.3-1.3-7.6-.9-12 2.5-1.4 1.1-2.7 2.3-3.9 3.4-.6.6-1.2 1.1-1.6 1.5-1.6 1.4-3.2 2.5-4.8 2.7-1.6.2-3.3-.7-5.3-3.1-.5-.6-1.4-.7-2-.2-.5.3-.7.9-.5 1.4.3.9.7 1.9 1.1 2.8 1.9 4 5.6 7 10.1 8.2 4.2 1.1 8.6 1.1 12.7 0 1.2-.3 2.3-.7 3.4-1.2 3.3-1.4 5.6-3.3 6.8-5.4 1.3 2 3.5 3.9 6.8 5.4 1.1.5 2.3.9 3.4 1.2 4.1 1.1 8.6 1.2 12.7 0 4.5-1.2 8.2-4.2 10.1-8.2.4-.9.8-1.8 1.1-2.8.4-.7 0-1.4-.8-1.6z" class="st0"/><path d="M97.9 91.4c-1.6 0-2.9 1.3-2.9 2.9 0 3.2-2.5 5.8-5.6 5.8H52.6c-3.2 0-5.8-2.6-5.8-5.8v-.1c0-1.6-1.3-2.9-2.9-2.9-1.6 0-2.9 1.3-2.9 2.9v.1c0 6.4 5.2 11.6 11.6 11.6h36.6c6.4 0 11.5-5.1 11.6-11.5 0-1.6-1.3-3-2.9-3zM107.2 67.1 77 38.1l-.1-.1c-3.3-3-8.3-3-11.6 0l-.1.1-30.5 29c-1.1 1.1-1.1 3 0 4.1 1.1 1.1 3 1.1 4.1 0l2.3-2.3v7.8c0 1.6 1.3 2.9 2.9 2.9 1.6 0 2.9-1.3 2.9-2.9V63.1l22.3-20.9c1.1-.9 2.7-.9 3.8 0l22 20.9v13.4c0 1.6 1.2 2.9 2.8 3 1.7.1 3-1.3 3-2.9V69l2.3 2.3c.6.6 1.3.9 2.1.9.7 0 1.5-.3 2-.8 1.1-1.3 1.1-3.1 0-4.3z" class="st0"/></svg>