<svg xmlns="http://www.w3.org/2000/svg" viewBox="0 0 50 50"><path d="M49.6 39.7c-.1-1.9-.9-3.6-2.2-4.9-2.7-2.5-4.9-4-7.1-4.6-3-.8-5.7-.1-8.1 2.3L29.5 35c-1.6-.9-4.8-2.9-8.2-6.2l-.3-.2c-3.4-3.3-5.4-6.4-6.3-8l2.6-2.5c2.4-2.4 3.2-5.1 2.3-7.9-.6-2.2-2.1-4.4-4.7-7-1.3-1.3-3.1-2.1-5-2.2-1.9-.1-3.7.6-5.1 1.8h-.1s-.1 0-.1.1C1.8 5.7.4 9.5.4 14.1c0 7.7 4.4 16.5 11.6 23.6 7 6.9 15.8 11 23.5 11.3h.8c4.6 0 8.5-1.4 11.3-4.2l.1-.1v-.1c1.3-1.3 2-3.1 1.9-4.9zm-5 2.6c-1.9 1.8-4.6 2.8-7.9 2.8h-.1c-.6 0-1.1-.1-1.7-.1C21 43.8 11.4 30.4 10.3 29c-3.7-4.9-5.7-10.3-5.9-15-.2-4.3 2.9-7.8 2.9-7.8 1.3-1.1 3.2-1.1 4.4.2 4.6 4.6 4.2 6.8 2.2 8.8l-3.3 3.2c-.5.5-.7 1.3-.4 1.9 8.4 14.8 19.7 19 19.9 19 .7.3 1.4.1 2-.3l3.3-3.2c2.1-2 4.3-2.3 9 2.2 1.3 1.1 1.4 3 .2 4.3z"/></svg>