<svg xmlns="http://www.w3.org/2000/svg" viewBox="0 0 512 512"><ellipse cx="249.9" cy="396.6" opacity=".35" rx="157.7" ry="113.9"/><path fill="#008ad1" d="M429.5 172.1C427.9 75.7 352.2 1.5 255.8 1.6c-96.7.1-172.4 75.1-173.3 171.7-.3 28.2 3.6 54.9 15.2 78.6 15.8 32.5 41.2 59.4 72.6 76.9 3.8 2.1 7.4 4.3 11 6.7 18 11.9 33.7 24.6 45.9 42.6l16.3 23.9c6 8.9 19.1 8.9 25.1 0l17-25c14.2-20.9 33.4-38 55.5-50.2 55-30.5 89.6-87.1 88.4-154.7z"/><path fill="#fff" d="M391.9 160.6c-1.3-.9-3.6-2.3-6-3-2.4-.7-4.8-.7-5.3-.7-7.1 0-13.4 4.7-16.1 11.1v.1c-.9 2.3 2.1 4 3.7 2.2 2-2.2 4.4-4.1 7-4 6 .2 10.8 5.3 10.8 10.5 0 2.2-.4 4.6-1.5 6.3-1.5 2.7-5 5.5-10.8 7.1-.7.2-1.3.3-2.1.5-13.6 2.6-26.5-7.2-31.1-10.9-6.2-5.1-11.9-10.8-17.7-16.2-5.3-5-10.7-9.7-16.9-13.5-10.7-6.6-21.9-8.2-33.9-3.7-5.1 1.9-10.1 4-15 6.2-.4.2-.8.4-1.1.4-.4 0-.7-.2-1.1-.4-5-2.2-9.9-4.3-15-6.2-11.9-4.5-23.1-3-33.9 3.7-6.2 3.8-11.6 8.6-16.9 13.5-5.8 5.5-11.5 11.2-17.7 16.2-4.6 3.8-17.6 13.6-31.1 10.9-.7-.1-1.4-.3-2.1-.5-5.7-1.5-9.3-4.4-10.8-7.1-1.1-1.7-1.5-4.1-1.5-6.3 0-5.2 4.9-10.4 10.8-10.5 2.6-.1 5 1.7 6.9 3.9 1.7 1.9 4.6-.1 3.7-2.4l-.6-1.2c-3.1-5.6-8.8-9.6-15.4-9.6-.5 0-2.9 0-5.3.7s-4.7 2.1-6 3c-7.2 5.3-11.7 16.1-8 29.3 5.8 20.4 36.7 47.1 89.2 36.8 30-5.9 44.6-17.5 50.4-23.3l.6-.6c2-2 5.3-2 7.3.1 5.5 5.6 20 17.8 50.9 23.8 52.6 10.3 83.4-16.3 89.2-36.8 4.1-13.3-.4-24.1-7.6-29.4z"/></svg>