<svg xmlns="http://www.w3.org/2000/svg" xml:space="preserve" id="Capa_1" x="0" y="0" version="1.1" viewBox="0 0 512 512"><path d="M151.8 251.9c0 10.1 8.5 18.7 18.7 18.7h163.7c10.1 0 18.7-8.5 18.7-18.7s-8.5-18.7-18.7-18.7H170.5c-10.1.6-18.7 8.6-18.7 18.7z" class="st0"/><path d="M252.1 151.6c-10.1 0-18.7 8.5-18.7 18.7V334c0 10.1 8.5 18.7 18.7 18.7s18.7-8.5 18.7-18.7V170.3c0-10.1-8.6-18.7-18.7-18.7z" class="st0"/><path d="M252.1 19.9c-128 0-232 104-232 232s104 232 232 232 232-104 232-232c0-127.5-104-232-232-232zm0 435.2c-112 0-202.7-91.2-202.7-202.7 0-112 91.2-202.7 202.7-202.7S454.8 141 454.8 252.4s-90.7 202.7-202.7 202.7z" class="st0"/></svg>