<svg xmlns="http://www.w3.org/2000/svg" viewBox="0 0 477.9 477.9"><path fill="#1795d7" d="M439.4 38.6c-14.6-14.6-34.3-22.7-54.9-22.7s-40.4 8.1-54.9 22.7L62.4 305.7c-2.3 2.3-3.9 4.9-4.9 7.9L16.8 435.3c-3.5 10.6 2.3 22.2 12.8 25.7 2.1.7 4.2 1.1 6.3 1.1s4.4-.4 6.3-1.1L164 420.3c3-1.1 5.6-2.6 7.9-4.9L439 148.3c30.6-30.2 30.6-79.3.4-109.7zM146.9 383.4l-78.8 26.4 26.2-78.6L305 120.7l52.4 52.4-210.5 210.3zm263.8-263.8-27.1 27.1-52.4-52.4 27.1-27.1c14.4-14.4 38-14.4 52.4 0 6.9 6.9 10.7 16.4 10.9 26-.2 10.1-4 19.6-10.9 26.4z"/></svg>