<svg xmlns="http://www.w3.org/2000/svg" viewBox="0 0 25 25" fill="currentColor">
    <path d="M22.2 1C20.8.4 18.8.1 16.8.1s-3.8.3-5.3.9c-2.3.9-2.7 2.1-2.7 2.8 0 .7.4 1.9 2.7 2.8 1.4.6 3.4.9 5.4.9 2 0 3.9-.3 5.4-.9 2.4-.9 2.7-2.2 2.7-2.8s-.4-1.9-2.8-2.8zm-.7 3.8c-1.2.5-2.9.7-4.7.7-1.8 0-3.5-.3-4.7-.7-1.1-.4-1.5-.9-1.5-1 0-.1.4-.6 1.5-1 1.3-.5 3-.8 4.8-.8 1.8 0 3.5.3 4.7.7 1.1.4 1.5.9 1.5 1-.1.2-.5.7-1.6 1.1zM24.8 22.3c.2.5 0 1.1-.5 1.3-2 .9-4.7 1.4-7.5 1.4h-.3c-.5 0-1-.4-1-1 0-.5.4-1 1-1 2.6 0 5.2-.4 7-1.2.5-.2 1.1 0 1.3.5zM24.8 18c.2.5 0 1.1-.5 1.3-1.5.7-3.3 1.1-5.3 1.3h-.1c-.5 0-.9-.4-1-.9-.1-.5.3-1 .9-1.1 1.8-.2 3.4-.6 4.7-1.1.5-.2 1.1 0 1.3.5zM24.8 13.6c.2.5 0 1.1-.5 1.3-1.4.6-3.1 1.1-5 1.3h-.1c-.5 0-.9-.4-1-.9-.1-.5.3-1 .9-1.1 1.7-.2 3.2-.6 4.4-1.1.5-.2 1.1 0 1.3.5zM24.3 10.5c-1.8.8-4.1 1.3-6.6 1.4-.5 0-1-.4-1-.9s.4-1 .9-1c2.2-.1 4.3-.5 5.9-1.2.5-.2 1.1 0 1.3.5.2.4 0 1-.5 1.2zM8.3 8.5C3.7 8.5 0 12.2 0 16.7S3.7 25 8.3 25s8.3-3.7 8.3-8.3-3.8-8.2-8.3-8.2zm0 14.6c-3.5 0-6.3-2.8-6.3-6.3s2.8-6.3 6.3-6.3 6.3 2.8 6.3 6.3c0 3.4-2.8 6.3-6.3 6.3z"/>
</svg>
