<svg xmlns="http://www.w3.org/2000/svg" xml:space="preserve" viewBox="0 0 490 490"><path d="M467.1 395.6H41.7v-59.3c0-20.8 16.9-37.6 37.6-37.6h331.3c20.8 0 37.6 16.9 37.6 37.6 0 10.4 8.4 18.8 18.8 18.8s18.8-8.4 18.8-18.8c0-27-14.3-50.8-35.8-64.1-.1-3-.4-6-.9-8.9V22.9c0-10.4-8.4-18.8-18.8-18.8s-18.8 8.4-18.8 18.8v43.3c-23-4.3-101.3-17.9-169.4-17.9-67.4 0-139.6 13.4-161.9 17.8V22.9c0-10.4-8.4-18.8-18.8-18.8s-18.8 8.4-18.8 18.8v247.7C19.6 283.5 4 308.1 4 336.3v78.1c0 10.4 8.4 18.8 18.8 18.8h18.8v33.9c0 10.4 8.4 18.8 18.8 18.8s18.8-8.4 18.8-18.8v-33.9h331.3v33.9c0 10.4 8.4 18.8 18.8 18.8s18.8-8.4 18.8-18.8v-33.9h18.8c10.4 0 18.8-8.4 18.8-18.8.2-10.4-8.3-18.8-18.6-18.8zM84.1 261c3.2-7.6 8.8-14.8 16.8-20.8 14.2-10.8 33.3-16.8 53.8-16.8s39.6 6 53.8 16.8c7.9 6.1 13.6 13.2 16.8 20.8H84.1zm184.4 0c3.2-7.6 8.8-14.8 16.8-20.8 14.2-10.8 33.3-16.8 53.8-16.8s39.6 6 53.8 16.8c7.9 6.1 13.6 13.2 16.8 20.8H268.5zM80.3 104.5c.4-.1.8-.1 1.2-.2.8-.2 85.5-18.4 160.7-18.4 75.3 0 167.6 18.3 168.5 18.5.3.1.6.1.9.1v102.7c-20.1-13.9-45.6-21.5-72.5-21.5-28.7 0-56 8.7-76.7 24.5-5.9 4.5-11.1 9.5-15.6 14.8-4.5-5.3-9.7-10.3-15.6-14.8-20.7-15.8-47.9-24.5-76.7-24.5-27.7 0-54 8.1-74.3 22.9l.1-104.1z"/><path d="m486 414.4-37.6 2.7v-79.6H486z"/></svg>