<svg xmlns="http://www.w3.org/2000/svg" xmlns:xlink="http://www.w3.org/1999/xlink" width="42.4" height="42.5" viewBox="0 0 42.4 42.5"><defs><linearGradient id="a" x2="0.847" y2="0.942" gradientUnits="objectBoundingBox"><stop offset="0" stop-color="#00b1ff"/><stop offset="1" stop-color="#0828ff"/></linearGradient></defs><g transform="translate(-129 -184)"><path d="M7.9,42.5H34.5a7.917,7.917,0,0,0,7.9-7.9V7.9A7.917,7.917,0,0,0,34.5,0H7.9A7.982,7.982,0,0,0,0,7.9V34.5A8,8,0,0,0,7.9,42.5Z" transform="translate(129 184)" fill="#fff"/><g transform="translate(135.622 193.308)"><path d="M23.556,1.476A.979.979,0,0,0,22.58.5H8.479A2.884,2.884,0,0,0,5.6,3.379V20.554a2.764,2.764,0,0,0,.829,2,2.876,2.876,0,0,0,2.049.829h14.1a.944.944,0,0,0,.829-.488,1,1,0,0,0-.049-.976,2.345,2.345,0,0,1,0-2.732.37.37,0,0,0,.1-.2v-.049c0-.049.049-.1.049-.2V1.476ZM8.479,2.4H21.653V17.675H8.479a3.381,3.381,0,0,0-.976.146V3.379A.979.979,0,0,1,8.479,2.4ZM21.165,21.53H8.479a.976.976,0,0,1,0-1.952H21.165A4.391,4.391,0,0,0,21.165,21.53Z" fill="url(#a)"/><path d="M16.076,16.252h6.88a.976.976,0,0,0,0-1.952h-6.88a.976.976,0,0,0,0,1.952Zm0,3.757h6.88a.976.976,0,1,0,0-1.952h-6.88a.976.976,0,0,0,0,1.952Z" transform="translate(-4.865 -7.067)" fill="url(#a)"/></g></g></svg>