<svg xmlns="http://www.w3.org/2000/svg" xml:space="preserve" style="enable-background:new 0 0 42.51 42.51" viewBox="0 0 42.51 42.51"><path d="M7.94 42.51h26.64c4.36 0 7.93-3.57 7.93-7.93V7.94c0-4.36-3.57-7.93-7.93-7.93H7.94C3.57 0 0 3.57 0 7.94v26.64c0 4.36 3.57 7.93 7.94 7.93z" style="fill:#fff"/><path d="M21.2 21.19v.01l.11.12z" style="fill:none"/><linearGradient id="a" x1="45.427" x2="15.926" y1="46.479" y2="14.842" gradientUnits="userSpaceOnUse"><stop offset="0" style="stop-color:#0828ff"/><stop offset="1" style="stop-color:#00b1ff"/></linearGradient><path d="M27.32 11.04a.99.99 0 0 0-1-.78h-10a.99.99 0 0 0-1 .78l-2 9a1.003 1.003 0 0 0 1 1.22h3.94c.04.33.06.67.06 1 .01 2.36.09 6.62-1.57 8.3a.996.996 0 0 0 .01 1.41c.19.18.44.28.7.29h7.72c.55 0 1-.45 1-1 0-.26-.1-.51-.29-.7-1.66-1.68-1.58-5.94-1.57-8.3 0-.33.02-.67.06-1h.94v2c0 .55.45 1 1 1s1-.45 1-1v-2h1c.3 0 .59-.14.78-.37.19-.24.27-.55.2-.85l-1.98-9zm-7.78 19.22c1.17-1.78.79-5.87.78-8 0-.33 0-.67-.05-1h2.1c0 .33-.05.67-.05 1-.01 2.13-.39 6.22.78 8h-3.56zm-4-11 1.58-7h8.4l1.55 7H15.54z" style="fill:url(#a)"/></svg>