<svg xmlns="http://www.w3.org/2000/svg" xml:space="preserve" viewBox="0 0 42.51 42.51"><path fill="#fff" d="M7.93 42.51h26.64c4.36 0 7.93-3.57 7.93-7.93V7.93C42.5 3.57 38.93 0 34.57 0H7.93C3.57 0 0 3.57 0 7.93v26.64c0 4.37 3.57 7.94 7.93 7.94z"/><linearGradient id="a" x1="43.623" x2="9.879" y1="44.286" y2="8.101" gradientUnits="userSpaceOnUse"><stop offset="0" stop-color="#0828ff"/><stop offset="1" stop-color="#00b1ff"/></linearGradient><path fill="url(#a)" d="M32.22 23.49c0-.06-.01-.12-.03-.17l-2.3-6.14c.85-.55 1.37-1.5 1.37-2.51 0-.55-.45-1-1-1s-1 .45-1 1-.45 1-1 1c-.37 0-.71-.2-.88-.53a2.883 2.883 0 0 0-2.58-1.47h-2.54v-2.42c0-.55-.45-1-1-1s-1 .45-1 1v2.42h-2.54c-1.06-.02-2.06.54-2.58 1.47-.26.49-.87.67-1.35.41-.32-.17-.53-.51-.53-.88 0-.55-.45-1-1-1s-1 .45-1 1c0 1.01.52 1.96 1.37 2.51l-2.3 6.14c-.01.06-.02.12-.03.17-.02.06-.03.12-.04.18v.07a3.982 3.982 0 0 0 4.05 3.93c2.16-.03 3.9-1.77 3.93-3.93v-.07c-.01-.06-.02-.12-.04-.18 0-.06-.01-.12-.03-.17l-2.31-6.14c.42-.27.77-.64 1.01-1.08.18-.28.49-.44.82-.42h2.54v14.58h-3c-.55 0-1 .45-1 1s.45 1 1 1h8c.55 0 1-.45 1-1s-.45-1-1-1h-3V15.67h2.54c.33-.02.64.14.82.42.24.44.59.81 1.01 1.08l-2.31 6.14c-.01.06-.02.12-.03.17-.02.06-.03.12-.04.18v.07a3.982 3.982 0 0 0 4.05 3.93c2.16-.03 3.9-1.77 3.93-3.93v-.07c.05-.05.03-.11.02-.17zm-17.97-4.96 1.56 4.14H12.7l1.55-4.14zm1.73 6.14c-.36.61-1.01.99-1.72 1-.71 0-1.37-.38-1.73-1h3.45zm12.27-6.14 1.56 4.14H26.7l1.55-4.14zm0 7.14c-.71 0-1.37-.38-1.73-1h3.45c-.35.61-1.01.99-1.72 1z"/></svg>