<svg xmlns="http://www.w3.org/2000/svg" xmlns:xlink="http://www.w3.org/1999/xlink" width="42.4" height="42.5" viewBox="0 0 42.4 42.5"><defs><linearGradient id="a" x1="0.258" x2="0.724" y2="1" gradientUnits="objectBoundingBox"><stop offset="0" stop-color="#00b1ff"/><stop offset="1" stop-color="#0828ff"/></linearGradient></defs><g transform="translate(-84 -184)"><path d="M7.9,42.5H34.5a7.917,7.917,0,0,0,7.9-7.9V7.9A7.917,7.917,0,0,0,34.5,0H7.9A7.982,7.982,0,0,0,0,7.9V34.5A8,8,0,0,0,7.9,42.5Z" transform="translate(84 184)" fill="#fff"/><g transform="translate(90.763 190.814)"><path d="M25.252,11.124l-.551-.552a.941.941,0,0,1-.275-.662V9.133a4.69,4.69,0,0,0-4.685-4.685h-.776a.941.941,0,0,1-.662-.275l-.552-.551a4.687,4.687,0,0,0-6.625,0l-.552.551a.941.941,0,0,1-.662.275H9.133A4.69,4.69,0,0,0,4.448,9.133V9.91a.941.941,0,0,1-.275.662l-.551.552a4.687,4.687,0,0,0,0,6.625l.551.552a.941.941,0,0,1,.275.662v.776a4.69,4.69,0,0,0,4.685,4.685H9.91a.941.941,0,0,1,.662.275l.552.551a4.69,4.69,0,0,0,6.625,0L18.3,24.7a.945.945,0,0,1,.662-.274h.776a4.69,4.69,0,0,0,4.685-4.685v-.776A.941.941,0,0,1,24.7,18.3l.551-.552a4.687,4.687,0,0,0,0-6.625Zm-1.325,5.3-.552.551a2.8,2.8,0,0,0-.824,1.989v.776a2.814,2.814,0,0,1-2.81,2.81h-.776a2.827,2.827,0,0,0-1.989.824l-.551.552a2.875,2.875,0,0,1-3.975,0l-.551-.552a2.827,2.827,0,0,0-1.989-.824H9.133a2.814,2.814,0,0,1-2.81-2.81v-.776A2.8,2.8,0,0,0,5.5,16.976l-.552-.551a2.812,2.812,0,0,1,0-3.975L5.5,11.9A2.8,2.8,0,0,0,6.323,9.91V9.133a2.814,2.814,0,0,1,2.81-2.81H9.91A2.832,2.832,0,0,0,11.9,5.5l.551-.552a2.875,2.875,0,0,1,3.975,0l.551.552a2.832,2.832,0,0,0,1.989.824h.776a2.814,2.814,0,0,1,2.81,2.81V9.91a2.8,2.8,0,0,0,.824,1.989l.552.551a2.812,2.812,0,0,1,0,3.975Zm-6.052.281A3.039,3.039,0,0,1,15.349,19.7v.364a.937.937,0,1,1-1.875,0V19.7a3.045,3.045,0,0,1-2.456-2.655.937.937,0,1,1,1.862-.21,1.172,1.172,0,0,0,1.162,1.042h.787a1.169,1.169,0,0,0,.281-2.3l-1.8-.449a3.04,3.04,0,0,1,.162-5.935V8.812a.937.937,0,1,1,1.875,0v.361a3.04,3.04,0,0,1,2.5,2.659.937.937,0,0,1-1.862.21A1.172,1.172,0,0,0,14.824,11h-.787a1.169,1.169,0,0,0-1.169,1.169,1.142,1.142,0,0,0,.241.711,1.174,1.174,0,0,0,.646.424l1.806.449a3.046,3.046,0,0,1,2.312,2.954Z" transform="translate(0)" fill="url(#a)"/></g></g></svg>