<svg xmlns="http://www.w3.org/2000/svg" xml:space="preserve" style="enable-background:new 0 0 42.51 42.51" viewBox="0 0 42.51 42.51"><path d="M7.94 42.51h26.64c4.36 0 7.93-3.57 7.93-7.93V7.94c0-4.36-3.57-7.93-7.93-7.93H7.94C3.57 0 0 3.57 0 7.94v26.64c0 4.36 3.57 7.93 7.94 7.93z" style="fill:#fff"/><linearGradient id="a" x1="37.287" x2="13.084" y1="39.52" y2="13.565" gradientUnits="userSpaceOnUse"><stop offset="0" style="stop-color:#0828ff"/><stop offset="1" style="stop-color:#00b1ff"/></linearGradient><path d="M31.22 30.25h-1V16.26h1c.55 0 1-.45 1-1s-.45-1-1-1h-1v-3c0-.55-.45-1-1-1H13.29c-.55 0-1 .45-1 1v3h-1c-.55 0-1 .45-1 1s.45 1 1 1h1v13.99h-1c-.55 0-1 .45-1 1s.45 1 1 1h19.92c.55 0 1-.45 1-1s-.44-1-.99-1zm-6.93 0h-6v-3.53c0-2.18 1.13-4.2 3-5.33 1.87 1.13 3 3.15 3 5.33v3.53zm3.93 0H26.3v-3.53a8.17 8.17 0 0 0-4.55-7.36c-.28-.14-.62-.14-.9 0a8.17 8.17 0 0 0-4.55 7.36v3.53h-2V16.26h13.92v13.99zm0-15.99H14.29v-2h13.92v2z" style="fill:url(#a)"/></svg>