<svg xmlns="http://www.w3.org/2000/svg" xml:space="preserve" style="enable-background:new 0 0 42.51 42.51" viewBox="0 0 42.51 42.51"><path d="M7.94 42.51h26.64c4.36 0 7.93-3.57 7.93-7.93V7.94c0-4.36-3.57-7.93-7.93-7.93H7.94C3.57 0 0 3.57 0 7.94v26.64c0 4.36 3.57 7.93 7.94 7.93z" style="fill:#fff"/><linearGradient id="a" x1="36.624" x2="11.222" y1="40.606" y2="13.365" gradientUnits="userSpaceOnUse"><stop offset="0" style="stop-color:#0828ff"/><stop offset="1" style="stop-color:#00b1ff"/></linearGradient><path d="M33.25 31.41c-.3-.45-.62-.87-.95-1.31-.86-1.16-1.73-2.32-2.6-3.47-.16-.22-.24-.45-.24-.73.01-3.12 0-9.58.01-12.7 0-.32-.02-.65-.13-.95-.26-.75-.83-1.15-1.61-1.16-.63-.01-3.06 0-3.06 0 0-.46-.37-.84-.82-.84h-5.18c-.45 0-.82.38-.82.84h-3.06c-.78.01-1.35.41-1.61 1.16-.11.3-.13.62-.13.95 0 3.12 0 9.58.01 12.7 0 .28-.07.51-.24.73-.87 1.16-1.74 2.31-2.6 3.47-.32.43-.65.86-.95 1.31-.24.36-.05.77.37.84.12.02.24.01.36.01h6.16c.75 0 1.66-1.36 2.14-2.22.69-1.25 2.92-5.06 2.97-5.13.05.07 2.28 3.88 2.97 5.13.48.86 1.39 2.22 2.14 2.22h6.16c.12 0 .24.01.36-.01.4-.07.59-.48.35-.84zm-17.76-1.42h-3.11c1.32-1.73 2.78-3.43 4.07-5.13.02 0-.96 5.13-.96 5.13zm1.68-9.11c-.24.31-2.4 2.89-2.4 2.89V12.81h2.57s0 6 .01 7.49c0 .23-.05.41-.18.58zm6.64.94c-.37-.45-.87-.96-1.49-1.42.43-.21.83-.37 1.17-.49.11.64.22 1.28.32 1.91zm-2.55-2.11c-.49-.26-1.29-.6-1.29-.6l1.29-1.35 1.29 1.35c-.01 0-.81.34-1.29.6zm-2-6.56c0-.52.42-.95.93-.95h2.12c.51 0 .93.42.93.95V18l-1.99-2.12L19.26 18v-4.85zm-.24 6.76c.34.12.74.28 1.17.49-.62.45-1.12.97-1.49 1.42.1-.63.21-1.27.32-1.91zm5.4 6.03s-3.01-3.58-3.17-3.59c-.16 0-3.17 3.59-3.17 3.59l.22-1.8s2.43-3.12 2.95-3.12c.57 0 2.95 3.12 2.95 3.12l.22 1.8zm.92-5.06a.91.91 0 0 1-.18-.58c.01-1.49.01-7.49.01-7.49h2.57v10.96s-2.16-2.58-2.4-2.89zm1.68 9.11s-.98-5.13-.96-5.13c1.29 1.7 2.75 3.4 4.07 5.13h-3.11z" style="fill:url(#a)"/></svg>