<svg xmlns="http://www.w3.org/2000/svg" xml:space="preserve" viewBox="0 0 42.51 42.51"><path fill="#fff" d="M7.93 42.51h26.64c4.36 0 7.93-3.57 7.93-7.93V7.93C42.5 3.57 38.93 0 34.57 0H7.93C3.57 0 0 3.57 0 7.93v26.64c0 4.37 3.57 7.94 7.93 7.94z"/><linearGradient id="a" x1="43.918" x2="15.708" y1="43.757" y2="13.504" gradientUnits="userSpaceOnUse"><stop offset="0" stop-color="#0828ff"/><stop offset="1" stop-color="#00b1ff"/></linearGradient><path fill="url(#a)" d="m24.96 16.96-2.42-2.4a.996.996 0 0 0-1.41 0l-3.58 3.58c-.19.18-.3.44-.3.7v2.4c0 .55.45 1 1 1h2.42c.27 0 .52-.1.71-.29l3.58-3.58a.996.996 0 0 0 0-1.41zm-4.7 3.28h-1l-.01-1 2.59-2.56 1 1-2.58 2.56z"/><linearGradient id="b" x1="44.079" x2="16.182" y1="43.164" y2="13.249" gradientUnits="userSpaceOnUse"><stop offset="0" stop-color="#0828ff"/><stop offset="1" stop-color="#00b1ff"/></linearGradient><path fill="url(#b)" d="M31.25 24.25h-1v-12h1c.55 0 1-.45 1-1s-.45-1-1-1h-20c-.55 0-1 .45-1 1s.45 1 1 1h1v12h-1c-.55 0-1 .45-1 1s.45 1 1 1h8.81v1.15l-4.55 3a1 1 0 0 0 .55 1.85c.2 0 .39-.06.55-.17l3.45-2.28v1.45c0 .55.45 1 1 1s1-.45 1-1V29.8l3.45 2.28c.16.11.35.17.55.17.55 0 1-.46.99-1.01 0-.33-.17-.64-.44-.82l-4.55-3v-1.17h9.19c.55 0 1-.45 1-1s-.44-1-1-1zm-3 0h-14v-12h14v12z"/></svg>