<svg xmlns="http://www.w3.org/2000/svg" xml:space="preserve" style="enable-background:new 0 0 42.51 42.51" viewBox="0 0 42.51 42.51"><path d="M7.94 42.51h26.64c4.36 0 7.93-3.57 7.93-7.93V7.94c0-4.36-3.57-7.93-7.93-7.93H7.94C3.57 0 0 3.57 0 7.94v26.64c0 4.36 3.57 7.93 7.94 7.93z" style="fill:#fff"/><linearGradient id="a" x1="50.132" x2="16.442" y1="52.014" y2="15.886" gradientUnits="userSpaceOnUse"><stop offset="0" style="stop-color:#0828ff"/><stop offset="1" style="stop-color:#00b1ff"/></linearGradient><path d="M20.39 22.08v4.69c0 1.17 1.09 2.04 2.23 1.78l3.63-.8c.83-.19 1.43-.93 1.43-1.78v-4.69c0-1.17-1.09-2.04-2.23-1.78l-3.63.8c-.83.19-1.43.93-1.43 1.78zm4.8 3.97-1.88.42a.947.947 0 0 1-1.16-.93v-2.51c0-.44.3-.82.73-.93l1.88-.46a.95.95 0 0 1 1.17.93v2.54c0 .45-.31.84-.74.94z" style="fill:url(#a)"/><linearGradient id="b" x1="47.569" x2="13.623" y1="55.227" y2="18.824" gradientUnits="userSpaceOnUse"><stop offset="0" style="stop-color:#0828ff"/><stop offset="1" style="stop-color:#00b1ff"/></linearGradient><path d="m20.69 20.3-3.63-.8c-1.14-.26-2.23.61-2.23 1.78v4.69c0 .86.59 1.6 1.43 1.78l3.63.8c1.14.26 2.23-.61 2.23-1.78v-4.69c0-.85-.6-1.59-1.43-1.78zm-4.11 4.82v-2.54a.95.95 0 0 1 1.17-.93l1.88.46c.43.1.73.49.73.93v2.51c0 .61-.57 1.06-1.16.93l-1.88-.42a.982.982 0 0 1-.74-.94z" style="fill:url(#b)"/><linearGradient id="c" x1="48.192" x2="14.587" y1="53.692" y2="17.655" gradientUnits="userSpaceOnUse"><stop offset="0" style="stop-color:#0828ff"/><stop offset="1" style="stop-color:#00b1ff"/></linearGradient><path d="m31.53 18.31-7.01-7.01a4.623 4.623 0 0 0-6.53 0l-7.01 7.01c-.52.52-.81 1.22-.81 1.96v9.07a2.77 2.77 0 0 0 2.77 2.77h16.63a2.77 2.77 0 0 0 2.77-2.77v-9.07c0-.73-.29-1.44-.81-1.96zm-1.04 11.03c0 .51-.41.92-.92.92H12.94c-.51 0-.92-.41-.92-.92v-9.07c0-.24.1-.48.27-.65l7.01-7.01a2.776 2.776 0 0 1 3.92 0l7.01 7.01c.17.17.27.41.27.65v9.07z" style="fill:url(#c)"/></svg>