<svg xmlns="http://www.w3.org/2000/svg" xml:space="preserve" viewBox="0 0 42.51 42.51"><path fill="#fff" d="M7.93 42.51h26.64c4.36 0 7.93-3.57 7.93-7.93V7.93C42.5 3.57 38.93 0 34.57 0H7.93C3.57 0 0 3.57 0 7.93v26.64c0 4.37 3.57 7.94 7.93 7.94z"/><linearGradient id="a" x1="45.609" x2="8.725" y1="50.175" y2="10.623" gradientUnits="userSpaceOnUse"><stop offset="0" stop-color="#0828ff"/><stop offset="1" stop-color="#00b1ff"/></linearGradient><path fill="url(#a)" d="M21.57 21.47c1.08-.93 1.7-2.29 1.7-3.72 0-2.76-2.24-5-5-5s-5 2.24-5 5c0 1.43.62 2.79 1.7 3.72a7.987 7.987 0 0 0-4.7 7.28c0 .55.45 1 1 1s1-.45 1-1c0-3.31 2.69-6 6-6s6 2.69 6 6c0 .55.45 1 1 1s1-.45 1-1a8.014 8.014 0 0 0-4.7-7.28zm-3.3-.72c-1.66 0-3-1.34-3-3s1.34-3 3-3 3 1.34 3 3-1.35 3-3 3zm9.74.32c1.83-2.06 1.65-5.23-.42-7.06-.92-.81-2.1-1.26-3.32-1.26-.55 0-1 .45-1 1s.45 1 1 1a2.996 2.996 0 0 1 1.5 5.59.997.997 0 0 0-.05 1.7l.39.26.13.07a7.011 7.011 0 0 1 4 6.38c0 .55.45 1 1 1s1-.45 1-1a9.037 9.037 0 0 0-4.23-7.68z"/></svg>