<svg xmlns="http://www.w3.org/2000/svg" xml:space="preserve" viewBox="0 0 42.51 42.51"><path fill="#fff" d="M7.93 42.51h26.64c4.36 0 7.93-3.57 7.93-7.93V7.93C42.5 3.57 38.93 0 34.57 0H7.93C3.57 0 0 3.57 0 7.93v26.64c0 4.37 3.57 7.94 7.93 7.94z"/><linearGradient id="a" x1="36.658" x2="13.547" y1="38.4" y2="13.617" gradientUnits="userSpaceOnUse"><stop offset="0" stop-color="#0828ff"/><stop offset="1" stop-color="#00b1ff"/></linearGradient><path fill="url(#a)" d="M29.89 27.02c.55-.63.86-1.44.86-2.27 0-1.93-1.57-3.5-3.5-3.5-1.48 0-2.74.92-3.25 2.22-.16.4-.25.83-.25 1.28 0 .44.09.87.25 1.27.14.36.35.71.61 1.01a4.936 4.936 0 0 0-1.83 2.03 4.99 4.99 0 0 0-.53 2.2c0 .55.45 1 1 1 .3 0 .57-.14.75-.36.15-.17.25-.4.25-.64 0-.87.38-1.65.97-2.2.53-.49 1.24-.8 2.03-.8 1.66 0 3 1.34 3 3 0 .55.45 1 1 1s1-.45 1-1c0-1.73-.89-3.33-2.36-4.24zm-2.64-.77c-.83 0-1.5-.67-1.5-1.5s.67-1.5 1.5-1.5 1.5.67 1.5 1.5-.67 1.5-1.5 1.5z"/><linearGradient id="b" x1="34.599" x2="11.66" y1="39.721" y2="15.121" gradientUnits="userSpaceOnUse"><stop offset="0" stop-color="#0828ff"/><stop offset="1" stop-color="#00b1ff"/></linearGradient><path fill="url(#b)" d="M19.73 30.25h-6.48c-.55 0-1-.45-1-1v-16c0-.55.45-1 1-1h7.71v3c0 1.66 1.34 3 3 3h4c.4 0 .77-.25.92-.62.16-.37.07-.8-.21-1.09l-6-6c-.08-.08-.18-.14-.28-.19h-.09l-.28-.1h-8.77c-1.66 0-3 1.34-3 3v16c0 1.66 1.34 3 3 3h6.48c.55 0 1-.45 1-1s-.44-1-1-1zm3.23-16.59 2.59 2.59h-1.59c-.55 0-1-.45-1-1v-1.59zm-.91 7.59c0-.55-.45-1-1-1h-5.8c-.55 0-1 .45-1 1s.45 1 1 1h5.8c.55 0 1-.44 1-1zm-6.8-3h1c.55 0 1-.45 1-1s-.45-1-1-1h-1c-.55 0-1 .45-1 1 0 .56.45 1 1 1zm0 6c-.55 0-1 .45-1 1s.45 1 1 1h3.48c.55 0 1-.45 1-1s-.45-1-1-1h-3.48z"/></svg>