<svg xmlns="http://www.w3.org/2000/svg" xml:space="preserve" viewBox="0 0 42.5 42.5"><path fill="#fff" d="M7.9 42.5h26.6c4.4 0 7.9-3.6 7.9-7.9V7.9c0-4.4-3.6-7.9-7.9-7.9H7.9C3.6 0 0 3.6 0 7.9v26.6c0 4.4 3.6 8 7.9 8z"/><linearGradient id="a" x1="33.554" x2="8.585" y1="37.263" y2="10.487" gradientUnits="userSpaceOnUse"><stop offset="0" stop-color="#0828ff"/><stop offset="1" stop-color="#00b1ff"/></linearGradient><path fill="url(#a)" d="m32.3 30.2-1-3.9L27 10.6c-.1-.5-.7-.8-1.2-.7l-3.9 1c-.2-.2-.5-.3-.7-.3h-10c-.6 0-1 .4-1 1v20.1c0 .6.4 1 1 1h10c.6 0 1-.4 1-1V19.5l3.3 12.3c.1.4.5.8 1 .7h.3l4.8-1.3c.3-.1.5-.2.6-.5.1-.1.1-.3.1-.5zm-18.6.5c-.8 0-1.5-.7-1.5-1.5s.7-1.5 1.5-1.5 1.5.7 1.5 1.5-.7 1.5-1.5 1.5zm1.5-5h-3v-9.1h3v9.1zm0-11.1h-3v-2h3v2zm3.5 16.1c-.8 0-1.5-.7-1.5-1.5s.7-1.5 1.5-1.5 1.5.7 1.5 1.5-.7 1.5-1.5 1.5zm1.5-5h-3v-9.1h3v9.1zm0-11.1h-3v-2h3v2zm2.2-1.8 2.9-.8.5 1.9-2.9.8-.5-1.9zm3.5 13-2.4-9.1 2.9-.8 2.4 9.1-2.9.8zm.8 3.3c-.2-.8.2-1.6 1-1.8h.1c.8-.2 1.6.2 1.8 1 .2.8-.2 1.6-1 1.8h-.1c-.8.2-1.5-.2-1.8-1z"/></svg>