<svg xmlns="http://www.w3.org/2000/svg" xmlns:xlink="http://www.w3.org/1999/xlink" width="42.4" height="42.5" viewBox="0 0 42.4 42.5"><defs><linearGradient id="a" x1="0.256" x2="0.769" y2="1" gradientUnits="objectBoundingBox"><stop offset="0" stop-color="#00b1ff"/><stop offset="1" stop-color="#0828ff"/></linearGradient></defs><g transform="translate(-39 -232)"><path d="M7.9,42.5H34.5a7.917,7.917,0,0,0,7.9-7.9V7.9A7.917,7.917,0,0,0,34.5,0H7.9A7.982,7.982,0,0,0,0,7.9V34.5A8,8,0,0,0,7.9,42.5Z" transform="translate(39 232)" fill="#fff"/><g transform="translate(46.443 239.484)"><path d="M20.835,4.02H19.361V3.135a.885.885,0,1,0-1.77,0V4.02H9.922V3.135a.885.885,0,1,0-1.77,0V4.02H6.678A3.991,3.991,0,0,0,2.254,8.444V20.831a3.991,3.991,0,0,0,4.424,4.424H20.835a3.991,3.991,0,0,0,4.424-4.424V8.444A3.991,3.991,0,0,0,20.835,4.02ZM6.678,5.789H8.153v.885a.885.885,0,0,0,1.77,0V5.789h7.668v.885a.885.885,0,0,0,1.77,0V5.789h1.475c1.86,0,2.654.794,2.654,2.654v.885H4.024V8.444C4.024,6.583,4.818,5.789,6.678,5.789Zm14.157,17.7H6.678c-1.86,0-2.654-.794-2.654-2.654V11.1H23.49v9.733C23.49,22.692,22.7,23.486,20.835,23.486Zm-3.5-8.789a.885.885,0,0,1,0,1.252L13.4,19.887a.882.882,0,0,1-1.251,0l-1.97-1.97a.885.885,0,0,1,1.251-1.251l1.341,1.34,3.3-3.3a.884.884,0,0,1,1.254-.007Z" transform="translate(0)" fill="url(#a)"/></g></g></svg>