<svg xmlns="http://www.w3.org/2000/svg" xml:space="preserve" viewBox="0 0 42.51 42.51"><path fill="#fff" d="M7.93 42.51h26.64c4.36 0 7.93-3.57 7.93-7.93V7.93C42.5 3.57 38.93 0 34.57 0H7.93C3.57 0 0 3.57 0 7.93v26.64c0 4.37 3.57 7.94 7.93 7.94z"/><linearGradient id="a" x1="58.313" x2="11.908" y1="56.801" y2="7.037" gradientUnits="userSpaceOnUse"><stop offset="0" stop-color="#0828ff"/><stop offset="1" stop-color="#00b1ff"/></linearGradient><path fill="url(#a)" d="M34.47 18.24c0 .29-.34.61-.54.82L21.99 31.72c-.18.19-.37.36-.64.4-.35.04-.61-.12-.84-.36-1.29-1.37-9.33-9.9-12.06-12.79-.51-.54-.54-.83-.15-1.46 1.36-2.18 2.72-4.36 4.06-6.54.25-.41.58-.59 1.06-.59 5.21.01 10.41.01 15.62 0 .48 0 .81.17 1.06.58 1.36 2.2 2.73 4.39 4.09 6.58.09.14.28.44.28.7zm-17.19.81s2.63 6.56 3.96 9.9c1.34-3.34 3.98-9.9 3.98-9.9h-7.94zm7.97-1.73c.12 0 .24.03.19-.18-.35-1.61-.69-3-1.03-4.61-.03-.15-.09-.19-.24-.19-1.96 0-3.92.01-5.88 0-.17 0-.22.07-.25.21-.31 1.58-.62 2.95-.94 4.53-.05.22.01.25.21.25 1.32-.01 6.61-.01 7.94-.01zm-10.17 0c.15 0 .23-.04.26-.2.31-1.6.63-2.98.95-4.57.04-.17 0-.22-.18-.22-.75.01-1.49.01-2.24 0-.12 0-.2.03-.27.14 0 0-1.89 3.03-2.91 4.65-.1.15-.08.2.11.2h4.28zm16.46 0c.06 0 .15.04.19-.03.04-.07-.04-.12-.07-.18-1-1.61-2.77-4.61-2.77-4.61-.07-.12-.15-.17-.28-.16-.76.01-1.51.01-2.27 0-.15 0-.21.02-.17.2.35 1.59.69 2.96 1.02 4.56.04.2.14.23.31.23.7-.01 3.32-.01 4.04-.01zM10.9 19.04s5.19 5.51 7.77 8.24c.02-.05.01-.08 0-.11-1.06-2.65-2.12-5.3-3.18-7.96-.06-.14-.14-.17-.27-.17-.87.01-4.32 0-4.32 0zm20.29 0h-3.86c-.18 0-.26.06-.33.23-.95 2.39-1.92 4.78-2.88 7.16-.1.26-.21.52-.31.78.02.01.03.02.05.03 2.55-2.72 7.33-8.2 7.33-8.2z"/></svg>