<svg xmlns="http://www.w3.org/2000/svg" xml:space="preserve" viewBox="0 0 42.51 42.51"><path fill="#fff" d="M7.93 42.51h26.64c4.36 0 7.93-3.57 7.93-7.93V7.93C42.5 3.57 38.93 0 34.57 0H7.93C3.57 0 0 3.57 0 7.93v26.64c0 4.37 3.57 7.94 7.93 7.94z"/><path fill="none" d="m21.2 21.19.11.12z"/><linearGradient id="a" x1="48.087" x2="15.17" y1="51.529" y2="16.229" gradientUnits="userSpaceOnUse"><stop offset="0" stop-color="#0828ff"/><stop offset="1" stop-color="#00b1ff"/></linearGradient><path fill="url(#a)" d="M29.25 13.25h-8.28l-.32-1c-.43-1.2-1.56-2-2.84-2h-4.56c-1.66 0-3 1.34-3 3v16c0 1.66 1.34 3 3 3h16c1.66 0 3-1.34 3-3v-13c0-1.65-1.34-3-3-3zm1 16c0 .55-.45 1-1 1h-16c-.55 0-1-.45-1-1v-16c0-.55.45-1 1-1h4.56a1 1 0 0 1 .95.68l.54 1.64a1 1 0 0 0 .95.68h9c.55 0 1 .45 1 1v13z"/><linearGradient id="b" x1="47.857" x2="15.248" y1="51.298" y2="16.329" gradientUnits="userSpaceOnUse"><stop offset="0" stop-color="#0828ff"/><stop offset="1" stop-color="#00b1ff"/></linearGradient><path fill="url(#b)" d="M26.21 20.2a.313.313 0 0 0-.09-.11l-.09-.08h-.05l-4.2-2.71a.803.803 0 0 0-.29-.15h-.08c-.09-.01-.18-.01-.27 0h-.1c-.12.03-.23.07-.33.13l-4.07 2.59-.09.07-.09.08-.1.07-.05.06-.06.15v.15a.67.67 0 0 0 0 .2v4.24c0 .35.18.67.47.85l4.04 2.56.15.06h.08c.17.05.35.05.52 0h.08l.15-.06 4.04-2.51c.29-.18.47-.5.47-.85V20.7s.02-.07.02-.11a.11.11 0 0 1 0-.08v-.16l-.06-.15zm-6.03 5.5-2.04-1.28v-1.9l2.04 1.32v1.86zm.99-3.72-2.13-1.26 2.2-1.4 2.14 1.38-2.21 1.28zm3.11 2.39-2.1 1.36v-1.89l2.1-1.34v1.87z"/></svg>