<svg xmlns="http://www.w3.org/2000/svg" xml:space="preserve" viewBox="0 0 42.5 42.5"><path fill="#fff" d="M7.9 42.5h26.6c4.4 0 7.9-3.6 7.9-7.9V7.9c0-4.4-3.6-7.9-7.9-7.9H7.9C3.6 0 0 3.6 0 7.9v26.6c0 4.4 3.6 8 7.9 8z"/><linearGradient id="a" x1="30.01" x2="12.196" y1="32.644" y2="13.541" gradientUnits="userSpaceOnUse"><stop offset="0" stop-color="#0828ff"/><stop offset=".945" stop-color="#00b1ff"/></linearGradient><path fill="url(#a)" d="M29.5 14.3h-3v-1c0-1.7-1.3-3-3-3H19c-1.7 0-3 1.3-3 3v1h-3c-1.7 0-3 1.3-3 3v11.9c0 1.7 1.3 3 3 3h16.4c1.7 0 3-1.3 3-3V17.3c.1-1.7-1.3-3-2.9-3zm-11.5-1c0-.6.4-1 1-1h4.4c.6 0 1 .4 1 1v1H18v-1zm12.5 15.9c0 .6-.4 1-1 1H13c-.6 0-1-.4-1-1v-8h3v1c0 .6.4.5 1 .5s1 0 1-.5v-1h8.4v1c0 .6.4.5 1 .5s1 0 1-.5v-1h3v8zm0-9.9H12v-2c0-.6.4-1 1-1h16.4c.6 0 1 .4 1 1v2z"/></svg>