<svg xmlns="http://www.w3.org/2000/svg" xml:space="preserve" viewBox="0 0 42.5 42.5"><path fill="#fff" d="M7.9 42.5h26.6c4.4 0 7.9-3.6 7.9-7.9V7.9c0-4.4-3.6-7.9-7.9-7.9H7.9C3.6 0 0 3.6 0 7.9v26.6c0 4.4 3.6 8 7.9 8z"/><linearGradient id="a" x1="30.594" x2="9.089" y1="5.536" y2="33.813" gradientTransform="matrix(1 0 0 -1 0 41.89)" gradientUnits="userSpaceOnUse"><stop offset="0" stop-color="#0828ff"/><stop offset=".262" stop-color="#064eff"/><stop offset=".945" stop-color="#00b1ff"/></linearGradient><path fill="url(#a)" d="M8.9 22.1c.1-.1.1-.2.1-.3.4-1.4 1.6-2.4 3.1-2.3.7 0 1.3.3 1.8.8 1 .9 1.2 1.1 2.1 2 .4.3.7.7 1.1 1 .1-.2.2-.3.3-.5.6-.8 1.4-1.3 2.4-1.3h9.7c.7 0 1.4.1 2 .5 1.3.7 2.1 1.8 2.3 3.2 0 .1 0 .2.1.2v1.7c-.1 0-.1.1-.1.2-.2.4-.6.7-1 .6-.4 0-.8-.4-.9-.8v-1.6c-.1-.6-.3-1-.7-1.4-.5-.4-1.1-.6-1.7-.6h-9.7c-.4.1-.7.3-.9.7-.1.4 0 .8.3 1.1.2.2.5.3.8.3h4.9c.2 0 .4.1.6.2.4.3.5.7.4 1.1-.1.4-.5.7-1 .7h-5.1c-.3 0-.7-.1-1-.2-.5-.2-.9-.5-1.2-.8-1.7-1.6-2.8-2.5-4.5-4.1-.2-.2-.4-.4-.7-.6-.4-.3-.9-.2-1.3.1-.4.4-.4.9-.1 1.3.1.1.1.2.2.2 1.3 1.2 1.9 1.8 3.2 3 .6.5 1.1 1.1 1.7 1.6 1.5 1.3 3.2 2.1 5.1 2.6 1 .2 2.1.3 3.1.3h8.5c.5 0 .8.3.9.7 0 0 0 .1.1.1v.5c-.1.3-.3.6-.7.7h-10c-.2 0-.4 0-.6-.1-.9-.1-1.8-.3-2.7-.6-1.6-.5-3.1-1.3-4.5-2.3-.6-.5-1.1-1-1.7-1.5-1.5-1.4-2.3-2.2-3.9-3.6-.5-.4-.8-1-.9-1.6 0-.1 0-.2-.1-.3.2-.3.2-.6.2-.9z"/><linearGradient id="b" x1="33.387" x2="11.882" y1="10.782" y2="39.059" gradientTransform="matrix(1 0 0 -1 0 41.89)" gradientUnits="userSpaceOnUse"><stop offset="0" stop-color="#0828ff"/><stop offset=".262" stop-color="#064eff"/><stop offset=".945" stop-color="#00b1ff"/></linearGradient><path fill="url(#b)" d="M21.8 9.5c.1.1.2 0 .3.1.5.1.9.3 1.2.7 1.3 1.2 2.6 2.3 3.8 3.5.1.1.3.3.3.4.1.3 0 .7-.2.9-.3.2-.6.3-.9.2 0 0-.1 0-.1-.1v2.4c0 .7-.3 1.4-.8 1.8-.5.4-1 .6-1.6.6h-4.5c-1.2 0-2.2-.9-2.3-2v-2.8h-.2c-.4.1-.7 0-1-.4-.2-.3-.2-.7.1-1l.2-.2c1.3-1.1 2.5-2.3 3.8-3.4.3-.3.8-.6 1.3-.6.2-.1.4-.1.6-.1zm2.4 4.2c-.7-.7-1.5-1.3-2.2-2-.3-.3-.6-.2-.9 0l-.1.1c-.4.4-.9.8-1.3 1.2-.3.2-.5.5-.8.7v3.7c0 .3.2.5.5.6h4.2c.3 0 .5-.2.6-.5v-3.8z"/></svg>