<svg xmlns="http://www.w3.org/2000/svg" xml:space="preserve" viewBox="0 0 42.5 42.5"><path fill="#fff" d="M7.9 42.5h26.6c4.4 0 7.9-3.6 7.9-7.9V7.9c0-4.4-3.6-7.9-7.9-7.9H7.9C3.6 0 0 3.6 0 7.9v26.6c0 4.4 3.6 8 7.9 8z"/><linearGradient id="a" x1="28.627" x2="9.023" y1="32.024" y2="11.707" gradientUnits="userSpaceOnUse"><stop offset="0" stop-color="#0828ff"/><stop offset=".945" stop-color="#00b1ff"/></linearGradient><path fill="url(#a)" d="M25 21.5c1.2-1.1 1.9-2.6 1.9-4.2 0-3.1-2.5-5.7-5.7-5.7s-5.7 2.5-5.7 5.7c0 1.6.7 3.2 1.9 4.2-3.3 1.5-5.3 4.7-5.4 8.3 0 .6.5 1.1 1.1 1.1s1.1-.5 1.1-1.1c0-3.8 3.1-6.8 6.8-6.8s6.8 3.1 6.8 6.8c0 .6.5 1.1 1.1 1.1s1.1-.5 1.1-1.1c.4-3.6-1.7-6.8-5-8.3zm-3.7-.8c-1.9 0-3.4-1.5-3.4-3.4s1.5-3.4 3.4-3.4 3.4 1.5 3.4 3.4-1.6 3.4-3.4 3.4z"/><linearGradient id="b" x1="28.395" x2="8.791" y1="32.248" y2="11.931" gradientUnits="userSpaceOnUse"><stop offset="0" stop-color="#0828ff"/><stop offset=".945" stop-color="#00b1ff"/></linearGradient><circle cx="21.3" cy="24.8" r="1.1" fill="url(#b)"/><linearGradient id="c" x1="26.178" x2="6.574" y1="34.387" y2="14.07" gradientUnits="userSpaceOnUse"><stop offset="0" stop-color="#0828ff"/><stop offset=".945" stop-color="#00b1ff"/></linearGradient><path fill="url(#c)" d="M21.3 26.8c-.3 0-.6.2-.6.5l-.9 3.1c0 .3.2.6.6.6h1.8c.3 0 .6-.3.6-.6l-.8-3.1c-.2-.3-.4-.5-.7-.5z"/></svg>