<svg xmlns="http://www.w3.org/2000/svg" xml:space="preserve" viewBox="0 0 42.5 42.5"><path fill="#fff" d="M7.9 42.5h26.6c4.4 0 7.9-3.6 7.9-7.9V7.9c0-4.4-3.6-7.9-7.9-7.9H7.9C3.6 0 0 3.6 0 7.9v26.6c0 4.4 3.6 8 7.9 8z"/>
    <linearGradient id="a" x1="33.751" x2="7.739" y1="33.751" y2="7.739"
        gradientUnits="userSpaceOnUse"><stop offset="0" stop-color="#0828ff"/>
        <stop offset=".262" stop-color="#064eff" />
        <stop offset=".945" stop-color="#00b1ff" /></linearGradient>
    <path fill="url(#a)"
        d="M29.3 10.3h-16c-1.7 0-3 1.3-3 3v16c0 1.7 1.3 3 3 3h16c1.7 0 3-1.3 3-3v-16c0-1.7-1.4-3-3-3zm1 19c0 .6-.4 1-1 1h-16c-.6 0-1-.4-1-1v-9h18v9zm0-11h-18v-5c0-.6.4-1 1-1h16c.6 0 1 .4 1 1v5z" />
    <linearGradient id="b" x1="33.751" x2="7.739" y1="33.751" y2="7.739"
        gradientUnits="userSpaceOnUse"><stop offset="0" stop-color="#0828ff"/>
        <stop offset=".945" stop-color="#00b1ff" /></linearGradient>
    <circle cx="15.3" cy="15.3" r="1" fill="url(#b)" />
    <linearGradient id="c" x1="36.079" x2="10.067" y1="31.422" y2="5.411"
        gradientUnits="userSpaceOnUse"><stop offset="0" stop-color="#0828ff"/>
        <stop offset=".945" stop-color="#00b1ff" /></linearGradient>
    <path fill="url(#c)" d="M21.5 14.3h-3.3c-.6 0-1 .4-1 1s.4 1 1 1h3.3c.6 0 1-.4 1-1s-.4-1-1-1z" />
    <linearGradient id="d" x1="34.354" x2="8.343" y1="33.147" y2="7.136"
        gradientUnits="userSpaceOnUse"><stop offset="0" stop-color="#0828ff"/>
        <stop offset=".945" stop-color="#00b1ff" /></linearGradient>
    <path fill="url(#d)"
        d="M22.2 22.9c-.4.2-.6.7-.4 1.1l1.4 2.3c.3.6 1.2.6 1.5 0l.4-.7c.1-.2.3-.2.4 0l.4.7c.3.6 1.2.6 1.5 0l1.4-2.3c.2-.4 0-.9-.4-1.1-.4-.2-.9 0-1.1.4l-.7 1.3-.5-.8c-.4-.6-1.2-.6-1.6 0l-.5.8-.6-1.3c-.3-.5-.8-.6-1.2-.4z" />
    <linearGradient id="e" x1="30.418" x2="4.407" y1="37.083" y2="11.072"
        gradientUnits="userSpaceOnUse"><stop offset="0" stop-color="#0828ff"/>
        <stop offset=".945" stop-color="#00b1ff" /></linearGradient>
    <path fill="url(#e)"
        d="M14.3 22.9c-.4.2-.6.7-.4 1.1l1.4 2.3c.3.6 1.2.6 1.5 0l.4-.7c.1-.2.3-.2.4 0l.4.7c.3.6 1.2.6 1.5 0l1.4-2.3c.2-.4 0-.9-.4-1.1-.4-.2-.9 0-1.1.4l-.7 1.3-.5-.8c-.4-.6-1.2-.6-1.6 0l-.5.8-.6-1.3c-.2-.5-.7-.6-1.2-.4z" /></svg>