<svg xmlns="http://www.w3.org/2000/svg" xml:space="preserve" viewBox="0 0 42.51 42.51"><path fill="#fff" d="M7.93 42.51h26.64c4.36 0 7.93-3.57 7.93-7.93V7.93C42.5 3.57 38.93 0 34.57 0H7.93C3.57 0 0 3.57 0 7.93v26.64c0 4.37 3.57 7.94 7.93 7.94z"/><linearGradient id="a" x1="46.675" x2="10.748" y1="49.002" y2="10.475" gradientUnits="userSpaceOnUse"><stop offset="0" stop-color="#0828ff"/><stop offset="1" stop-color="#00b1ff"/></linearGradient><path fill="url(#a)" d="M28.56 21.24a.352.352 0 0 0-.46.05c-.47.54-.85.73-1.21.7-.35-.03-.71-.28-1.08-.61-.09-.08-.22-.2-.36-.33-.27-.25-.57-.53-.88-.77-1-.78-1.96-.79-2.72-.57-.22.06-.43.18-.61.33-.19-.15-.39-.27-.61-.33-.77-.22-1.72-.21-2.72.57-.31.24-.6.51-.88.77-.14.13-.27.25-.36.33-.36.32-.72.57-1.08.61-.35.03-.74-.16-1.21-.7-.11-.13-.31-.15-.46-.05-.1.08-.15.2-.11.32.07.21.15.42.25.62.43.9 1.27 1.58 2.28 1.86.94.25 1.94.25 2.88-.01.27-.07.53-.16.78-.27.47-.2.84-.43 1.12-.7.05-.05.07-.1.12-.15.04.05.07.1.12.15.27.27.65.5 1.12.7.25.11.51.2.78.27.94.26 1.94.26 2.88.01 1.02-.28 1.85-.96 2.28-1.86.1-.2.18-.41.25-.62.04-.12 0-.25-.11-.32z"/><linearGradient id="b" x1="44.572" x2="10.992" y1="47.76" y2="11.75" gradientUnits="userSpaceOnUse"><stop offset="0" stop-color="#0828ff"/><stop offset="1" stop-color="#00b1ff"/></linearGradient><path fill="url(#b)" d="M29.25 13.25h-8.28l-.32-1c-.43-1.2-1.56-2-2.84-2h-4.56c-1.66 0-3 1.34-3 3v16c0 1.66 1.34 3 3 3h16c1.66 0 3-1.34 3-3v-13c0-1.65-1.34-3-3-3zm1 16c0 .55-.45 1-1 1h-16c-.55 0-1-.45-1-1v-16c0-.55.45-1 1-1h4.56a1 1 0 0 1 .95.68l.54 1.64a1 1 0 0 0 .95.68h9c.55 0 1 .45 1 1v13z"/></svg>