<svg xmlns="http://www.w3.org/2000/svg" width="43" height="43" viewBox="0 0 43 43">
    <defs>
        <linearGradient id="b" x1="13.406" x2="27.782" y1="12.528" y2="27.921" gradientUnits="userSpaceOnUse">
            <stop stop-color="#0828FF"/>
            <stop offset="1" stop-color="#00B1FF"/>
        </linearGradient>
        <clipPath id="a">
            <path fill="#fff" d="M0 0h42.5v42.5H0z"/>
        </clipPath>
    </defs>
    <g style="fill:url(#a)">
        <path fill="#fff"
              d="M7.938 42.5h26.634c4.359 0 7.928-3.57 7.928-7.928V7.938C42.5 3.58 38.93.01 34.572.01H7.938C3.57 0 0 3.57 0 7.938v26.634C0 38.93 3.57 42.5 7.938 42.5Z"/>
        <path style="fill:url(#b)"
              d="M28.075 25.896a.532.532 0 0 1-.059-.641 9.673 9.673 0 0 0 1.571-5.29c0-5.382-4.38-9.76-9.762-9.76-5.381 0-9.76 4.378-9.76 9.76 0 5.384 4.379 9.762 9.76 9.762a9.69 9.69 0 0 0 5.632-1.805.502.502 0 0 1 .63.047l3.491 3.489a8.797 8.797 0 0 1 .443.416l.415.414a.421.421 0 0 0 .592 0l1.425-1.424a.421.421 0 0 0 0-.592l-4.378-4.376Zm-2.343-1.382a7.439 7.439 0 0 1-5.906 2.917c-4.115 0-7.464-3.35-7.464-7.466 0-4.117 3.349-7.464 7.463-7.464 4.117 0 7.466 3.35 7.466 7.464a7.425 7.425 0 0 1-1.56 4.55Zm-11.484-5.706v.91c0 .231.146.303.328.162l4.855-3.768a.564.564 0 0 1 .66 0l4.853 3.768c.182.141.33.07.33-.162v-.91a.965.965 0 0 0-.33-.673l-4.853-3.768a.564.564 0 0 0-.66 0l-4.855 3.768a.962.962 0 0 0-.328.673Zm1.377 1.592v3.3c0 .229.187.416.419.416h1.92a.417.417 0 0 0 .419-.417v-1.922c0-.232.186-.419.416-.419h1.922c.232 0 .419.187.419.42v1.921c0 .23.187.417.416.417h1.922a.42.42 0 0 0 .42-.417v-3.3a.938.938 0 0 0-.336-.668l-3.466-2.602a.594.594 0 0 0-.669 0l-3.469 2.602a.936.936 0 0 0-.333.669Z"/>
    </g>

</svg>
