<svg xmlns="http://www.w3.org/2000/svg" xml:space="preserve" style="enable-background:new 0 0 42.5 42.5"
     viewBox="0 0 42.5 42.5"><path d="M7.9 42.5h26.6c4.4 0 7.9-3.6 7.9-7.9V7.9c0-4.4-3.6-7.9-7.9-7.9H7.9C3.6 0 0 3.6 0 7.9v26.6c0 4.4 3.6 8 7.9 8z" style="fill:#fff"/>
    <linearGradient id="a" x1="30.692" x2="9.722" y1="31.665" y2="8.496" gradientUnits="userSpaceOnUse"><stop offset="0" style="stop-color:#0828ff"/>
        <stop offset=".262" style="stop-color:#064eff"/>
        <stop offset=".945" style="stop-color:#00b1ff"/></linearGradient>
    <path d="M28.1 10.3h2.5c.6.1 1 .4 1.3 1 .1.2.2.6.2.9v16c0 .1 0 .1-.1.2-.2.6-.5 1-1.1 1.2-.3.1-.6.2-.9.2H14.9c-.1 0-.2 0-.2.1v1.8c0 .4-.2.7-.7.7h-2c-.7 0-1.2-.3-1.6-.9-.2-.4-.3-.7-.3-1.2V14.8c0-1.4 1.3-1.9 2-1.9h15.2v-1.7c.2-.7.5-.9.8-.9zM27 14.9H12.7c-.2 0-.4.2-.5.4v12.3c.3-.1.5-.1.8-.1h16.7c.3 0 .6-.4.5-.7-.1-.3-.3-.4-.6-.4h-1.8c-.6 0-.8-.2-.8-.8V15.1s.1-.1 0-.2zm2.4-2.5V25h.9V12.5c0-.1-.1-.2-.2-.2H30c0 .1-.5.1-.6.1zM13.6 30.1h-1.3c-.2 0-.4.2-.4.4s.2.4.4.4h1.3V30.1z"
          style="fill:url(#a)"/>
    <linearGradient id="b" x1="29.103" x2="8.133" y1="33.102" y2="9.934" gradientUnits="userSpaceOnUse"><stop offset="0" style="stop-color:#0828ff"/>
        <stop offset=".262" style="stop-color:#064eff"/>
        <stop offset=".945" style="stop-color:#00b1ff"/></linearGradient>
    <path d="M16.2 18.8v-1.6c0-.4.2-.8.8-.8h5c.4 0 .7.3.7.7v7.7c0 .6-.3.9-.9.9h-7.6c-.3-.1-.5-.3-.5-.7v-6.4c0-.5.5-.8.9-.6.3.1 1.6.8 1.6.8zm1.8.6s1.5.7 1.7.8c.2.1.4.3.4.6v2.9h1v-5.6h-3v1.3zm-1.6 4.3v-.6c0-.2.2-.4.4-.4s.4.1.5.4v.6h.8v-2.1l-2.6-1.2v3.3h.9z"
          style="fill:url(#b)"/>
    <linearGradient id="c" x1="34.913" x2="13.943" y1="27.843" y2="4.675" gradientUnits="userSpaceOnUse"><stop offset="0" style="stop-color:#0828ff"/>
        <stop offset=".262" style="stop-color:#064eff"/>
        <stop offset=".945" style="stop-color:#00b1ff"/></linearGradient>
    <path d="M24.8 16.3h1c.5 0 .9.4.9.9s-.4.9-.9.9h-1c-.5 0-.9-.4-.9-.9s.4-.9.9-.9z" style="fill:url(#c)"/>
    <linearGradient id="d" x1="33.029" x2="12.059" y1="29.549" y2="6.381" gradientUnits="userSpaceOnUse"><stop offset="0" style="stop-color:#0828ff"/>
        <stop offset=".262" style="stop-color:#064eff"/>
        <stop offset=".945" style="stop-color:#00b1ff"/></linearGradient>
    <path d="M24.8 20.1h1c.5 0 .9.4.9.9s-.4.9-.9.9h-1c-.5 0-.9-.4-.9-.9s.4-.9.9-.9z" style="fill:url(#d)"/>
    <linearGradient id="e" x1="31.145" x2="10.174" y1="31.255" y2="8.086" gradientUnits="userSpaceOnUse"><stop offset="0" style="stop-color:#0828ff"/>
        <stop offset=".262" style="stop-color:#064eff"/>
        <stop offset=".945" style="stop-color:#00b1ff"/></linearGradient>
    <path d="M24.8 23.9h1c.5 0 .9.4.9.9s-.4.9-.9.9h-1c-.5 0-.9-.4-.9-.9s.4-.9.9-.9z" style="fill:url(#e)"/></svg>