<svg xmlns="http://www.w3.org/2000/svg" xml:space="preserve" style="enable-background:new 0 0 42.51 42.51"
     viewBox="0 0 42.51 42.51"><path d="M7.93 42.51h26.64c4.36 0 7.93-3.57 7.93-7.93V7.93C42.5 3.57 38.93 0 34.57 0H7.93C3.57 0 0 3.57 0 7.93v26.64c0 4.37 3.57 7.94 7.93 7.94z" style="fill:#fff"/>
    <linearGradient id="a" x1="36.928" x2="15.147" y1="40.87" y2="17.513" gradientUnits="userSpaceOnUse"><stop offset="0" style="stop-color:#0828ff"/>
        <stop offset="1" style="stop-color:#00b1ff"/></linearGradient>
    <path d="M28.56 23.56a.352.352 0 0 0-.46.05c-.47.54-.85.73-1.21.7-.35-.03-.71-.28-1.08-.61-.09-.08-.22-.2-.36-.33-.27-.25-.57-.53-.88-.77-1-.78-1.96-.79-2.72-.57-.22.06-.43.18-.61.33-.19-.15-.39-.27-.61-.33-.77-.22-1.72-.21-2.72.57-.31.24-.6.51-.88.77-.14.13-.27.25-.36.33-.36.32-.72.57-1.08.61-.35.03-.74-.16-1.21-.7-.11-.13-.31-.15-.46-.05-.1.08-.15.2-.11.32.07.21.15.42.25.62.43.9 1.27 1.58 2.28 1.86.94.25 1.94.25 2.88-.01.27-.07.53-.16.78-.27.47-.2.84-.43 1.12-.7.05-.05.07-.1.12-.15.04.05.07.1.12.15.27.27.65.5 1.12.7.25.11.51.2.78.27.94.26 1.94.26 2.88.01 1.02-.28 1.85-.96 2.28-1.86.1-.2.18-.41.25-.62.04-.12 0-.25-.11-.32z"
          style="fill:url(#a)"/>
    <linearGradient id="b" x1="38.695" x2="16.317" y1="39.958" y2="15.96" gradientUnits="userSpaceOnUse"><stop offset="0" style="stop-color:#0828ff"/>
        <stop offset="1" style="stop-color:#00b1ff"/></linearGradient>
    <path d="M29.25 10.25h-16c-1.66 0-3 1.34-3 3v16c0 1.66 1.34 3 3 3h16c1.66 0 3-1.34 3-3v-16c0-1.65-1.34-3-3-3zm1 10v9c0 .55-.45 1-1 1h-16c-.55 0-1-.45-1-1v-16c0-.55.45-1 1-1h16c.55 0 1 .45 1 1v7z"
          style="fill:url(#b)"/>
    <linearGradient id="c" x1="44.364" x2="20.802" y1="36.174" y2="10.908" gradientUnits="userSpaceOnUse"><stop offset="0" style="stop-color:#0828ff"/>
        <stop offset="1" style="stop-color:#00b1ff"/></linearGradient>
    <path d="m26.61 14.99-2.12 2.12a.996.996 0 1 0 1.41 1.41l2.12-2.12a.996.996 0 0 0 0-1.41.978.978 0 0 0-1.41 0z"
          style="fill:url(#c)"/>
    <linearGradient id="d" x1="43.413" x2="21.029" y1="35.247" y2="11.243" gradientUnits="userSpaceOnUse"><stop offset="0" style="stop-color:#0828ff"/>
        <stop offset="1" style="stop-color:#00b1ff"/></linearGradient>
    <path d="M24.9 14.69h-.01c-.38 0-.69.31-.69.69 0 .38.31.69.69.69h.01c.38 0 .69-.31.69-.69 0-.38-.31-.69-.69-.69z"
          style="fill:url(#d)"/>
    <linearGradient id="e" x1="43.504" x2="21.12" y1="35.161" y2="11.157" gradientUnits="userSpaceOnUse"><stop offset="0" style="stop-color:#0828ff"/>
        <stop offset="1" style="stop-color:#00b1ff"/></linearGradient>
    <path d="M27.62 17.43h-.01c-.38 0-.69.31-.69.69 0 .38.31.69.69.69h.01c.38 0 .69-.31.69-.69 0-.38-.31-.69-.69-.69z"
          style="fill:url(#e)"/>
    <linearGradient id="f" x1="38.261" x2="15.881" y1="40.383" y2="16.384" gradientUnits="userSpaceOnUse"><stop offset="0" style="stop-color:#0828ff"/>
        <stop offset="1" style="stop-color:#00b1ff"/></linearGradient>
    <path d="M14.13 18.85c.39.39 1.02.39 1.41 0l.71-.71.71.71a.996.996 0 1 0 1.41-1.41l-.71-.71.71-.71a.999.999 0 0 0-1.41-1.41l-.71.71-.71-.71a.999.999 0 0 0-1.41 1.41l.71.71-.71.71c-.38.39-.38 1.02 0 1.41z"
          style="fill:url(#f)"/></svg>