<svg xmlns="http://www.w3.org/2000/svg" xmlns:xlink="http://www.w3.org/1999/xlink" width="42.4" height="42.5" viewBox="0 0 42.4 42.5">
  <defs>
    <linearGradient id="linear-gradient" x1="0.211" y1="0.05" x2="0.556" y2="0.723" gradientUnits="objectBoundingBox">
      <stop offset="0" stop-color="#00b1ff"/>
      <stop offset="1" stop-color="#0828ff"/>
    </linearGradient>
  </defs>
  <g id="neighborhoodFacilities" transform="translate(-84 -136)">
    <path id="Path_18" d="M7.9,42.5H34.5a7.917,7.917,0,0,0,7.9-7.9V7.9A7.917,7.917,0,0,0,34.5,0H7.9A7.982,7.982,0,0,0,0,7.9V34.5A8,8,0,0,0,7.9,42.5Z" transform="translate(84 136)" fill="#fff"/>
    <path id="Path_35" d="M2.777,13.087l-.447.256A.888.888,0,0,1,1.45,11.8L6.782,8.755a2.663,2.663,0,0,1,2.208-.2V5.987l-.447.256A.888.888,0,0,1,7.662,4.7l5.332-3.047a2.662,2.662,0,0,1,2.641,0L20.968,4.7a.888.888,0,0,1-.88,1.541l-.447-.256V8.556a2.663,2.663,0,0,1,2.208.2L27.181,11.8a.888.888,0,0,1-.88,1.541l-.447-.256V17.9A2.664,2.664,0,0,1,23.19,20.56H17.865A2.664,2.664,0,0,1,15.2,17.9V13.46H13.428V17.9a2.664,2.664,0,0,1-2.663,2.663H5.44A2.664,2.664,0,0,1,2.777,17.9Zm7.988-8.115V10.8a.885.885,0,0,0,.888.888h5.325a.885.885,0,0,0,.888-.888V4.972L14.755,3.2a.89.89,0,0,0-.88,0ZM8.99,10.551,8.543,10.3a.89.89,0,0,0-.88,0l-3.11,1.777V17.9a.885.885,0,0,0,.888.888h5.325a.885.885,0,0,0,.888-.888V13.46A2.664,2.664,0,0,1,8.99,10.8Zm15.088,1.521L20.968,10.3a.89.89,0,0,0-.88,0l-.447.256V10.8a2.664,2.664,0,0,1-2.663,2.663V17.9a.885.885,0,0,0,.888.888H23.19a.885.885,0,0,0,.888-.888ZM3.205,25.559A.887.887,0,1,1,2.349,24c8.5-2.4,15.126-2.04,23.929,0a.888.888,0,1,1-.85,1.558c-7.415-1.806-12.7-2.433-22.223,0Z" transform="translate(90.885 143.763)" fill-rule="evenodd" fill="url(#linear-gradient)"/>
  </g>
</svg>
