<svg xmlns="http://www.w3.org/2000/svg" xml:space="preserve" viewBox="0 0 42.51 42.51"><path fill="#fff" d="M7.93 42.51h26.64c4.36 0 7.93-3.57 7.93-7.93V7.93C42.5 3.57 38.93 0 34.57 0H7.93C3.57 0 0 3.57 0 7.93v26.64c0 4.37 3.57 7.94 7.93 7.94z"/>
    <linearGradient id="a" x1="44.303" x2="12.986" y1="47.044" y2="13.461"
        gradientUnits="userSpaceOnUse"><stop offset="0" stop-color="#0828ff"/>
        <stop offset="1" stop-color="#00b1ff" /></linearGradient>
    <path fill="url(#a)"
        d="M31.33 30.25h-1v-19c0-.55-.45-1-1-1H13.17c-.55 0-1 .45-1 1v19h-1c-.55 0-1 .45-1 1s.45 1 1 1h20.16c.55 0 1-.45 1-1s-.45-1-1-1zm-7.58 0h-4.99v-4h4.99v4zm4.58 0h-2.58v-5c0-.55-.45-1-1-1h-6.99c-.55 0-1 .45-1 1v5h-2.58v-18h14.16v18z" />
    <linearGradient id="b" x1="49.57" x2="18.142" y1="42.408" y2="8.705"
        gradientUnits="userSpaceOnUse"><stop offset="0" stop-color="#0828ff"/>
        <stop offset="1" stop-color="#00b1ff" /></linearGradient>
    <path fill="url(#b)"
        d="M23.75 16.25h1c.55 0 1-.45 1-1s-.45-1-1-1h-1c-.55 0-1 .45-1 1 0 .56.45 1 1 1z" />
    <linearGradient id="c" x1="47.939" x2="16.511" y1="43.88" y2="10.177"
        gradientUnits="userSpaceOnUse"><stop offset="0" stop-color="#0828ff"/>
        <stop offset="1" stop-color="#00b1ff" /></linearGradient>
    <path fill="url(#c)"
        d="M23.75 19.47h1c.55 0 1-.45 1-1s-.45-1-1-1h-1c-.55 0-1 .45-1 1 0 .56.45 1 1 1z" />
    <linearGradient id="d" x1="46.338" x2="14.91" y1="45.365" y2="11.662"
        gradientUnits="userSpaceOnUse"><stop offset="0" stop-color="#0828ff"/>
        <stop offset="1" stop-color="#00b1ff" /></linearGradient>
    <path fill="url(#d)"
        d="M17.76 16.25h1c.55 0 1-.45 1-1s-.45-1-1-1h-1c-.55 0-1 .45-1 1 0 .56.45 1 1 1z" />
    <linearGradient id="e" x1="44.708" x2="13.279" y1="46.836" y2="13.133"
        gradientUnits="userSpaceOnUse"><stop offset="0" stop-color="#0828ff"/>
        <stop offset="1" stop-color="#00b1ff" /></linearGradient>
    <path fill="url(#e)"
        d="M17.76 19.47h1c.55 0 1-.45 1-1s-.45-1-1-1h-1c-.55 0-1 .45-1 1 0 .56.45 1 1 1z" />
    <linearGradient id="f" x1="46.309" x2="14.88" y1="45.351" y2="11.648"
        gradientUnits="userSpaceOnUse"><stop offset="0" stop-color="#0828ff"/>
        <stop offset="1" stop-color="#00b1ff" /></linearGradient>
    <path fill="url(#f)"
        d="M23.75 22.69h1c.55 0 1-.45 1-1s-.45-1-1-1h-1c-.55 0-1 .45-1 1 0 .56.45 1 1 1z" />
    <linearGradient id="g" x1="43.077" x2="11.648" y1="48.308" y2="14.605"
        gradientUnits="userSpaceOnUse"><stop offset="0" stop-color="#0828ff"/>
        <stop offset="1" stop-color="#00b1ff" /></linearGradient>
    <path fill="url(#g)"
        d="M17.76 22.69h1c.55 0 1-.45 1-1s-.45-1-1-1h-1c-.55 0-1 .45-1 1 0 .56.45 1 1 1z" /></svg>