<svg xmlns="http://www.w3.org/2000/svg" xml:space="preserve" viewBox="0 0 42.51 42.51"><path fill="#fff" d="M7.93 42.51h26.64c4.36 0 7.93-3.57 7.93-7.93V7.93C42.5 3.57 38.93 0 34.57 0H7.93C3.57 0 0 3.57 0 7.93v26.64c0 4.37 3.57 7.94 7.93 7.94z"/><linearGradient id="a" x1="34.203" x2="15.489" y1="37.542" y2="17.474" gradientUnits="userSpaceOnUse"><stop offset="0" stop-color="#0828ff"/><stop offset="1" stop-color="#00b1ff"/></linearGradient><path fill="url(#a)" d="M16.75 25.25c.83 0 1.5-.67 1.5-1.5v-.15l2.79-2.79h.46l1.61 1.61v.08c0 .83.67 1.5 1.5 1.5s1.5-.67 1.5-1.5v-.08l3.64-3.67c.83 0 1.5-.67 1.5-1.5s-.67-1.5-1.5-1.5-1.5.67-1.5 1.5v.15l-3.61 3.61h-.16l-1.73-1.76c0-.83-.67-1.5-1.5-1.5s-1.5.67-1.5 1.5l-3 3c-.83 0-1.5.67-1.5 1.5s.67 1.5 1.5 1.5zm13.5 4h-17v-17c0-.55-.45-1-1-1s-1 .45-1 1v18c0 .55.45 1 1 1h18c.55 0 1-.45 1-1s-.44-1-1-1z"/></svg>