<svg xmlns="http://www.w3.org/2000/svg" xmlns:xlink="http://www.w3.org/1999/xlink" width="42.4"
    height="42.5" viewBox="0 0 42.4 42.5">
    <defs>
        <linearGradient id="a" x1="0.309" y1="0.186" x2="1" y2="1.061"
            gradientUnits="objectBoundingBox">
            <stop offset="0" stop-color="#00b1ff" />
            <stop offset="1" stop-color="#0828ff" />
        </linearGradient>
    </defs>
    <g transform="translate(-84 -40)">
        <path
            d="M7.9,42.5H34.5a7.917,7.917,0,0,0,7.9-7.9V7.9A7.917,7.917,0,0,0,34.5,0H7.9A7.982,7.982,0,0,0,0,7.9V34.5A8,8,0,0,0,7.9,42.5Z"
            transform="translate(84 40)" fill="#fff" />
        <path
            d="M16.335,11.05V5.658A2.575,2.575,0,0,1,18.913,3.08h2.933a2.578,2.578,0,0,1,.016,5.155l-3.554.021V11.05h6.379A3.625,3.625,0,0,1,28.3,14.667v8.259a3.625,3.625,0,0,1-3.617,3.617H5.617A3.625,3.625,0,0,1,2,22.926V17.507A6.461,6.461,0,0,1,8.457,11.05Zm1.973-5.392a.6.6,0,0,1,.6-.6h2.933a.605.605,0,0,1,.013,1.21h-.005l-3.546.021ZM8.457,13.023a4.489,4.489,0,0,0-4.485,4.485v5.418A1.651,1.651,0,0,0,5.617,24.57h7.325V17.507A4.489,4.489,0,0,0,8.457,13.023Zm6.457,4.485A6.432,6.432,0,0,0,13.1,13.023H24.687a1.651,1.651,0,0,1,1.644,1.644v8.259a1.651,1.651,0,0,1-1.644,1.644H14.915Z"
            transform="translate(90.048 46.109)" fill-rule="evenodd" fill="url(#a)" />
    </g>
</svg>