<svg xmlns="http://www.w3.org/2000/svg" width="42.4" height="42.5" viewBox="0 0 42.4 42.5"><g transform="translate(-84 -88)"><path d="M7.9,42.5H34.5a7.917,7.917,0,0,0,7.9-7.9V7.9A7.917,7.917,0,0,0,34.5,0H7.9A7.982,7.982,0,0,0,0,7.9V34.5A8,8,0,0,0,7.9,42.5Z" transform="translate(84 88)" fill="#fff"/><g transform="translate(80.534 84.584)"><path d="M317,318.385,319.385,316l2.385,2.385v2.385H317Zm2.385,1.192v1.193" transform="translate(-289.402 -288.441)" fill="none" stroke="#037cff" stroke-linecap="round" stroke-linejoin="round" stroke-miterlimit="10" stroke-width="1.7"/><path d="M264.155,197.385a2.385,2.385,0,0,0-4.77,0A2.385,2.385,0,0,0,257,199.77V207h9.54V199.77A2.385,2.385,0,0,0,264.155,197.385Z" transform="translate(-231.787 -172.251)" fill="none" stroke="#037cff" stroke-linecap="round" stroke-linejoin="round" stroke-miterlimit="10" stroke-width="1.7"/><path d="M173.427,110.962v-3.577A2.385,2.385,0,0,0,171.042,105H165" transform="translate(-143.443 -85.828)" fill="none" stroke="#037cff" stroke-linecap="round" stroke-linejoin="round" stroke-miterlimit="10" stroke-width="1.7"/><circle cx="5.133" cy="5.133" r="5.133" transform="translate(14.579 14.579)" fill="none" stroke="#037cff" stroke-linecap="round" stroke-linejoin="round" stroke-miterlimit="10" stroke-width="1.7"/><path d="M107.385,251.219V259.8l-1.192,1.192L105,259.8v-8.577" transform="translate(-85.828 -226.235)" fill="none" stroke="#037cff" stroke-linecap="round" stroke-linejoin="round" stroke-miterlimit="10" stroke-width="1.7"/><circle cx="1.711" cy="1.711" r="1.711" transform="translate(18.002 18.002)" fill="none" stroke="#037cff" stroke-linecap="round" stroke-linejoin="round" stroke-miterlimit="10" stroke-width="1.7"/><path d="M166.192,348.385H165M166.192,346H165" transform="translate(-143.443 -317.249)" fill="none" stroke="#037cff" stroke-linecap="round" stroke-linejoin="round" stroke-miterlimit="10" stroke-width="1.7"/></g></g></svg>