<svg xmlns="http://www.w3.org/2000/svg" xml:space="preserve" viewBox="0 0 42.51 42.51"><path fill="#2f2f2f" d="M25.47 34.04c1.17 0 2.12-.95 2.12-2.12v-4.24a2.121 2.121 0 0 0-4.24 0v4.24c0 1.17.95 2.12 2.12 2.12zm-8.47 0c1.17 0 2.12-.95 2.12-2.12v-4.24a2.121 2.121 0 0 0-4.24 0v4.24c0 1.17.95 2.12 2.12 2.12zM36.06 8.61h-2.92L29.47 1.3a2.118 2.118 0 1 0-3.91 1.63c.04.1.09.19.14.28l2.69 5.4H14.07l2.69-5.4c.45-1.08-.06-2.32-1.14-2.77a2.12 2.12 0 0 0-2.63.86L9.33 8.61H6.4a6.355 6.355 0 0 0-1.95 12.37l1.57 15.8a6.356 6.356 0 0 0 6.36 5.72h17.75c3.28.02 6.03-2.46 6.36-5.72l1.57-15.8a6.355 6.355 0 0 0 3.97-8.06 6.397 6.397 0 0 0-5.97-4.31zm-3.83 27.76a2.127 2.127 0 0 1-2.12 1.91H12.36c-1.09.01-2.01-.82-2.12-1.91l-1.5-15.04h25l-1.51 15.04zm3.83-19.28H6.4a2.121 2.121 0 0 1 0-4.24h29.66a2.121 2.121 0 0 1 0 4.24z"/></svg>