<svg xmlns="http://www.w3.org/2000/svg" width="42.4" height="42.5" viewBox="0 0 42.4 42.5"><g transform="translate(-39 -184)"><path d="M7.9,42.5H34.5a7.917,7.917,0,0,0,7.9-7.9V7.9A7.917,7.917,0,0,0,34.5,0H7.9A7.982,7.982,0,0,0,0,7.9V34.5A8,8,0,0,0,7.9,42.5Z" transform="translate(39 184)" fill="#fff"/><g transform="translate(-5.39 174.142)"><path d="M59.836,225.37a1.918,1.918,0,0,1-3.836,0v-3.452a1.918,1.918,0,0,1,3.836,0Zm15.344,0a1.918,1.918,0,0,1-3.836,0v-3.452a1.918,1.918,0,0,1,3.836,0Z" transform="translate(0 -190.41)" fill="none" stroke="#037cff" stroke-linecap="round" stroke-linejoin="round" stroke-miterlimit="10" stroke-width="2"/><path d="M56,31.508V29.59a9.59,9.59,0,0,1,19.18,0v1.918m0,3.452v1.918a3.836,3.836,0,0,1-3.836,3.836H67.508" fill="none" stroke="#037cff" stroke-linecap="round" stroke-linejoin="round" stroke-miterlimit="10" stroke-width="2"/><circle cx="1.668" cy="1.668" r="1.668" transform="translate(63.922 38.879)" fill="none" stroke="#037cff" stroke-linecap="round" stroke-linejoin="round" stroke-miterlimit="10" stroke-width="2"/></g></g></svg>