<svg xmlns="http://www.w3.org/2000/svg" xml:space="preserve" viewBox="0 0 42.51 42.51"><path fill="#fff" d="M7.93 42.51h26.64c4.36 0 7.93-3.57 7.93-7.93V7.93C42.5 3.57 38.93 0 34.57 0H7.93C3.57 0 0 3.57 0 7.93v26.64c0 4.37 3.57 7.94 7.93 7.94z"/><linearGradient id="a" x1="52.411" x2="13.382" y1="54.665" y2="12.812" gradientUnits="userSpaceOnUse"><stop offset="0" stop-color="#0828ff"/><stop offset="1" stop-color="#00b1ff"/></linearGradient><path fill="url(#a)" d="M29.25 10.25h-16c-1.66 0-3 1.34-3 3v16c0 1.66 1.34 3 3 3h16c1.66 0 3-1.34 3-3v-16c0-1.65-1.34-3-3-3zm-10 2h4v3.13l-1.45-1a1 1 0 0 0-1.1 0l-1.45 1v-3.13zm11 17c0 .55-.45 1-1 1h-16c-.55 0-1-.45-1-1v-16c0-.55.45-1 1-1h4v5c0 .37.2.71.53.88.32.16.7.14 1-.05l2.47-1.63 2.45 1.63c.46.3 1.08.18 1.39-.29.11-.16.16-.35.16-.54v-5h4c.55 0 1 .45 1 1v16z"/></svg>