<svg xmlns="http://www.w3.org/2000/svg" xml:space="preserve" viewBox="0 0 42.5 42.5"><path fill="#fff" d="M7.9 42.5h26.6c4.4 0 7.9-3.6 7.9-7.9V7.9c0-4.4-3.6-7.9-7.9-7.9H7.9C3.6 0 0 3.6 0 7.9v26.6c0 4.4 3.6 8 7.9 8z"/><linearGradient id="a" x1="31.833" x2="6.361" y1="32.564" y2="5.249" gradientUnits="userSpaceOnUse"><stop offset="0" stop-color="#0828ff"/><stop offset=".945" stop-color="#00b1ff"/></linearGradient><path fill="url(#a)" d="M32.4 16.1v-.2l-2-5c-.2-.4-.6-.7-1-.6H13.1c-.4 0-.8.2-.9.6l-2 5c0 .1-.1.3-.1.4 0 1.4.8 2.7 2 3.4v11.6c0 .6.4 1 1 1h16.2c.6 0 1-.4 1-1V19.7c1.2-.7 2-2 2-3.4.1-.1.1-.2.1-.2zm-9 14.2h-4.2v-4h4.2v4zm5 0h-3v-5c0-.6-.4-1-1-1h-6.2c-.6 0-1 .4-1 1v5h-3v-10c1.2 0 2.2-.5 3-1.4.9 3.3 7.3 3.3 8.2 0 .8.9 1.8 1.4 3 1.4v10zm0-12.1c-1.1 0-2-.9-2-2 0-.6-.4-1-1-1s-1 .4-1 1c0 4.1-6.2 4.1-6.2 0 0-.6-.4-1-1-1s-1 .4-1 1c0 1.1-.8 2-1.9 2.1-1.1 0-2-.8-2.1-1.9l1.7-4.2h14.9l1.7 4.2c-.2 1-1.1 1.8-2.1 1.8z"/></svg>