<svg xmlns="http://www.w3.org/2000/svg" xml:space="preserve" viewBox="0 0 42.5 42.5"><path fill="#fff" d="M7.9 42.5h26.6c4.4 0 7.9-3.6 7.9-7.9V7.9c0-4.4-3.6-7.9-7.9-7.9H7.9C3.6 0 0 3.6 0 7.9v26.6c0 4.4 3.6 8 7.9 8z"/><linearGradient id="a" x1="38.029" x2="1.138" y1="38.84" y2="1.77" gradientUnits="userSpaceOnUse"><stop offset="0" stop-color="#0828ff"/><stop offset=".262" stop-color="#064eff"/><stop offset=".945" stop-color="#00b1ff"/></linearGradient><path fill="url(#a)" d="M31.6 13.9h-2.9v-.8c0-.4-.3-.7-.7-.7h-2.8c-.4 0-.8.3-.8.8v.7H21s-1.4-2.4-1.9-3.2c-.1-.2-.3-.5-.7-.5h-3.3c-.5 0-.6.3-.6.7v2.9h-3.4c-.3 0-.5.2-.6.4v4.1c0 .3.3.7.7.7h3.5v7.9h-.3c-.4 0-.6.2-.8.5-.3.9-.7 2.7-1 3.6-.2.5 0 1.1.6 1.1h8.7c.8 0 .7-.6.6-.9-.1-.5-.8-2.9-1-3.7 0-.1-.1-.2-.1-.2-.1-.2-.3-.3-.5-.3h-.4v-7.9h4v.8c0 .4.3.7.7.7h.8v.4c0 .1 0 .2-.1.3l-2.1 3h-.6c-.4 0-.8.3-.7.7v3.5c0 .4.3.7.7.7h7.1c.4 0 .7-.4.7-.8v-3.3c0-.6-.3-.9-.7-.9h-.6s-1.6-2.2-2.1-3c-.1-.1-.1-.2-.1-.4v-.3h.8c.4 0 .7-.3.7-.7V19h2.9c.4 0 .5-.1.5-.5v-4.3c-.4-.2-.6-.3-.8-.3zm-13.9-1.6.7 1.1h-2v-1.1h1.3zm1.6 18.2h-3.6l.3-1.7h3l.3 1.7zm-.8-7.1v3.7h-2v-2.5l2-1.2zm-2-1.3v-3h2V21l-2 1.1zm8-4.9H12.4v-1.4h12.1v1.4zm4.1 10.4h-4v-1.5h4v1.5zm-1.4-3.7H26l.6-.9.6.9zm-.4-5.2h-.4v-4.3h.4v4.3zm3.3-1.5h-1.4v-1.4h1.4v1.4z"/></svg>