<svg xmlns="http://www.w3.org/2000/svg" width="42.4" height="42.5" viewBox="0 0 42.4 42.5"><g transform="translate(-39 -88)"><path d="M7.9,42.5H34.5a7.917,7.917,0,0,0,7.9-7.9V7.9A7.917,7.917,0,0,0,34.5,0H7.9A7.982,7.982,0,0,0,0,7.9V34.5A8,8,0,0,0,7.9,42.5Z" transform="translate(39 88)" fill="#fff"/><g transform="translate(46.865 96.942)"><path d="M29.837,167.282H32.8a4.774,4.774,0,0,0,3.056-1.107,4.78,4.78,0,0,1,3.057-1.107H41.67m-17.319.885,2.877,2.877a1.564,1.564,0,0,1,0,2.213l-.033.033a1.565,1.565,0,0,1-2.179.033l-6.42-6.042H15V154.887h1.772a2.271,2.271,0,0,0,1.6-.664,2.267,2.267,0,0,1,1.6-.664H24.3a2.267,2.267,0,0,1,1.6.664l.531.531m2.592,2.592,4.845,4.845a1.565,1.565,0,1,1-2.213,2.213" transform="translate(-15 -146.919)" fill="none" stroke="#0473ff" stroke-linecap="round" stroke-linejoin="round" stroke-miterlimit="10" stroke-width="2"/><path d="M264,297.559l2.877,2.878a1.565,1.565,0,1,1-2.213,2.213" transform="translate(-250.222 -282.951)" fill="none" stroke="#0473ff" stroke-linecap="round" stroke-linejoin="round" stroke-miterlimit="10" stroke-width="2"/><path d="M140.869,50.38l2.877,2.877a1.565,1.565,0,0,1-2.213,2.213m8.632-9.96h-2.808a6.046,6.046,0,0,1-4.275-1.771h0l-1.813,1.36a2.49,2.49,0,0,1-3.254-.231l-.686-.686,3.952-3.234a3.319,3.319,0,0,1,2.1-.75h4.348a3.321,3.321,0,0,1,1.992.664h0a3.32,3.32,0,0,0,1.992.664h4.26V51.708M140.869,36.215V33.559M136,35.33l1.328,1.328m8.41-1.328-1.328,1.328" transform="translate(-129.304 -33.559)" fill="none" stroke="#0473ff" stroke-linecap="round" stroke-linejoin="round" stroke-miterlimit="10" stroke-width="2"/></g></g></svg>