<svg xmlns="http://www.w3.org/2000/svg" xmlns:xlink="http://www.w3.org/1999/xlink" width="42.4" height="42.5" viewBox="0 0 42.4 42.5"><defs><linearGradient id="a" x1="0.121" y1="-0.073" x2="0.938" y2="1.114" gradientUnits="objectBoundingBox"><stop offset="0" stop-color="#00b1ff"/><stop offset="1" stop-color="#0828ff"/></linearGradient></defs><g transform="translate(-39 -136)"><path d="M7.9,42.5H34.5a7.917,7.917,0,0,0,7.9-7.9V7.9A7.917,7.917,0,0,0,34.5,0H7.9A7.982,7.982,0,0,0,0,7.9V34.5A8,8,0,0,0,7.9,42.5Z" transform="translate(39 136)" fill="#fff"/><g transform="translate(48 145)"><path d="M18,2a4,4,0,0,1,4,4V18a4,4,0,0,1-4,4H6a4,4,0,0,1-4-4V6A4,4,0,0,1,6,2Zm0-2H6A6,6,0,0,0,0,6V18a6,6,0,0,0,6,6H18a6,6,0,0,0,6-6V6A6,6,0,0,0,18,0Z" fill="url(#a)"/><path d="M12,18a1,1,0,0,1-1-1V7a1,1,0,0,1,2,0V17A1,1,0,0,1,12,18Z" fill="url(#a)"/><path d="M6,12a1,1,0,0,1,1-1H17a1,1,0,0,1,0,2H7A1,1,0,0,1,6,12Z" fill="url(#a)"/></g></g></svg>