<svg xmlns="http://www.w3.org/2000/svg" viewBox="0 0 42.51 42.51" xml:space="preserve">
    <path d="M35.67 42.5c-1.32 0-2.59-.54-3.52-1.48L21.25 30.2 10.36 41.03a4.966 4.966 0 0 1-5.48 1.08 4.968 4.968 0 0 1-3.11-4.65V8.85C1.77 3.96 5.74 0 10.63 0h21.25c4.89 0 8.85 3.96 8.85 8.85v28.61a4.969 4.969 0 0 1-3.1 4.65 4.9 4.9 0 0 1-1.96.39zM10.63 3.54c-2.93 0-5.31 2.38-5.31 5.31v28.61c0 .82.67 1.49 1.49 1.5.4 0 .77-.16 1.06-.43l12.15-12.08c.69-.69 1.81-.69 2.5 0l12.14 12.08a1.488 1.488 0 0 0 2.54-1.07V8.85c0-2.93-2.38-5.31-5.31-5.31H10.63z"/>
</svg>
