<svg xmlns="http://www.w3.org/2000/svg" viewBox="0 0 490 490">
    <path fill="#383838"
        d="M10.6 239.4c.7-70.8 71.8-111.9 131.2-74.5 21.1 13.3 35.1 11.6 54.1 1.3 27-14.8 54.6-28.4 82.6-41.2 16.3-7.5 23-17.2 25.1-36.4C309.4 36 342.4 5.7 389 4.9c39.5-.7 68.6 17.7 83.5 52.7 14.5 34.2 6.5 70.8-21.1 97.1-26.6 25.3-67.1 35.7-96.8 14-28.7-20.9-73.9 1-73.9 1l-71.2 34.7c-20.9 8-22.2 22.7-24.4 41.6-2.2 19.2 10.5 21.9 21.4 28l92.5 51c16.9 9.9 30.7 11.6 48-.9 25.7-18.5 54.6-19 83.3-5 36.9 18 56.7 58.9 47.6 100.2-8.6 39.1-49 69.1-87.3 66.8-43.4-2.6-77.3-29.4-86.5-73.9-1.2-5.7-1.8-11.9-1.1-17.6 2-15.5-4.8-24.2-18.2-31.1l-100.5-54.7c-14.3-8.2-25.1-7.5-39.4 2.1-34.2 22.8-69.7 21.1-102.3-3.9-22.1-16.9-34.3-40.1-32-67.6zm132.6-2.6c-1-26.4-23.3-46.4-49.7-44.5-24.5 1.8-43.7 23-43 47.5.6 23.3 22.8 44.9 46.2 45 27 .2 47.5-21 46.5-48zM436.3 90.3c-.5-24.9-20-45.5-43.9-46.2-25.3-.8-46.8 21.9-46.1 48.3.7 25.1 20 45 44.2 45.6 26.6.7 46.3-19.9 45.8-47.7zm-44.7 352.4c27.1 0 43.9-16.3 44.6-43.1.7-28.7-17.5-48-45-47.6-26.7.4-45.9 21-45.1 48.3.9 26.2 18.4 42.5 45.5 42.4z" />
</svg>