<svg xmlns="http://www.w3.org/2000/svg" xml:space="preserve" viewBox="0 0 20 5.9"><path fill="#fff" d="M19.4 1.2c-.1-.1-.3-.2-.5-.2h-.4c-.5 0-.9.3-1.1.8-.1.2.1.3.3.1.1-.2.3-.3.5-.3.4 0 .7.4.7.7 0 .2 0 .3-.1.4-.1.2-.3.4-.7.5H18c-.9.2-1.8-.5-2.1-.8-.4-.3-.8-.7-1.2-1.1-.4-.3-.7-.7-1.2-.9-.7-.5-1.5-.6-2.3-.3-.3.1-.7.3-1 .4H10C9.7.3 9.3.2 9 .1 8.1-.1 7.3 0 6.6.4c-.5.3-.8.6-1.2 1-.4.3-.8.7-1.2 1.1-.3.2-1.2.9-2.2.7h-.1c-.4-.1-.7-.3-.8-.5 0-.1-.1-.3-.1-.4 0-.4.3-.7.7-.7.2 0 .3.1.5.3.1.1.3 0 .3-.2v-.1c-.2-.4-.6-.7-1.1-.7H1c-.1.1-.3.2-.4.3-.5.4-.8 1.1-.5 2 .4 1.4 2.5 3.2 6.1 2.5 2.1-.4 3.1-1.2 3.5-1.6.1-.1.4-.1.5 0 .4.4 1.4 1.2 3.5 1.6 3.6.7 5.7-1.1 6.1-2.5.4-.9.1-1.7-.4-2z"/></svg>