<svg xmlns="http://www.w3.org/2000/svg" viewBox="0 0 512 512"><path d="M462.9 255.3c4.4 98-75.2 202.9-203.2 207.6-112.4 4.2-208.9-92.2-210.7-205-1.8-104.9 85-208 206.3-209 111-.9 210.3 90 207.6 206.4zM258.8 86.1c-91.5-4.7-172.6 76.1-173.1 167.7-.5 78.5 59.7 171.2 169.3 172.6 93.1 1.2 173.9-66.2 173.1-172.5-.9-113.7-97.8-172.1-169.3-167.8z"/><path d="M232.9 204.1c0-16.4-.7-32.8.2-49.2.9-17.3 9.6-28.1 20.4-26.2 13.9 2.5 17.1 12.8 17 25.5-.3 22.7.7 45.5-.3 68.1-.7 16.9 6.8 22.1 22.6 21.3 16.4-.8 32.9-.3 49.4 0 12.2.2 24.3 3 23.8 17.8-.4 12.3-10.9 15.5-22 15.5h-95c-11 0-16.1-5.2-16.1-16.1.2-18.8.1-37.7 0-56.7z"/></svg>