<svg xmlns="http://www.w3.org/2000/svg" viewBox="0 0 50 50"><path fill="#fff" d="M36.1 29.7v.2c-4.5-2.2-4.9-2.5-5.5-1.7-.4.6-1.6 2-1.9 2.4-.3.4-.7.4-1.3.1-.6-.3-2.6-.9-4.9-3-1.8-1.6-3-3.6-3.4-4.2-.6-1 .6-1.2 1.8-3.3.2-.4.1-.8-.1-1.1-.2-.3-1.4-3.3-1.9-4.5-.5-1.2-1-1-1.4-1-1.2-.1-2-.1-2.8.7-3.3 3.6-2.4 7.4.4 11.3 5.5 7.3 8.4 8.6 13.8 10.4 1.4.5 2.8.4 3.8.2 1.2-.2 3.6-1.5 4.1-2.9.5-1.4.5-2.6.4-2.9 0-.3-.4-.4-1.1-.7zm6.1-22.1C26.7-7.6.9 3.4.9 24.8c0 4.3 1.1 8.5 3.2 12.1L.7 49.5l12.8-3.4c16 8.7 35.8-2.9 35.8-21.3 0-6.5-2.5-12.6-7.1-17.2zM14.9 42.1l-.7-.4-7.6 2 2-7.4-.5-.8c-8.4-13.5 1.2-31 17-31 5.4 0 10.4 2.1 14.2 5.9 3.8 3.8 5.9 8.9 5.9 14.3 0 15.6-16.9 25.3-30.3 17.4z"/></svg>