<svg xmlns="http://www.w3.org/2000/svg" viewBox="0 0 141.7 141.7"><path d="M14 .9h4.4c.4.3.9.2 1.3.2 2.8.1 5.5.6 8.2 1.2C31 3 34.1 3.8 37 5.2c9.7 4.6 17.7 11.4 25.1 19 .2.2.4.4.5.6 1.2 1.7 1.4 3.5.5 5.4-.4.9-1 1.5-1.6 2.2-3.3 3.3-6.7 6.6-10 9.9-.3.3-.7.6-.9 1.1C57.3 50 64 56.5 70.5 63c8.1-8.1 16.1-16.1 24.2-24.1 0-.2-.2-.3-.3-.5-7.9-8-16.3-15.5-25.4-22.1-2.5-1.9-5.2-3.5-7.8-5.2-1.9-1.2-3-3-2.7-5.3.3-2.3 1.6-3.9 3.8-4.7.2-.1.3-.2.5-.3h2.7c.3.2.6.2.9.3 5.6.6 11 1.8 16.4 3.3 10.9 3.2 21.1 8 30 15.2.3.2.5.5 1 .6l1.9-1.9c.5-.5 1-1 1.6-1.5 2.9-2.1 6.9-.9 8.2 2.4.9 2.2.4 4.2-1.2 5.9-.9 1-1.8 1.9-2.7 2.8.1.5.4.8.7 1.1 4.7 5.7 8.3 12 11.2 18.8 3.5 8.2 5.8 16.7 7 25.4.1 1 .1 2 .5 2.9v3c-.3.2-.3.6-.4.9-.8 1.9-2.2 3.1-4.2 3.4-2.1.3-3.9-.4-5.2-2.1-.4-.5-.8-1.1-1.1-1.7-4.4-7.2-9.4-14-14.9-20.4-1-1.2-2.1-2.4-3.1-3.7-1-1.2-1.3-2.7-1-4.2.4-2 1.6-3.5 3.6-4.1 2-.7 3.9-.3 5.4 1.2.8.7 1.5 1.6 2.2 2.4.2.2.3.6.8.4 0 .1-.2.2 0 .3 0-.1 0-.2-.1-.3-.5-1-.9-2-1.4-3-6.6-13.9-17.2-23.6-31.3-29.6-.3-.1-.5-.2-.8-.1.1-.1.1-.2 0-.2-.1.1 0 .1.1.2.2.4.6.7 1 1 5.1 4.5 10 9.2 14.6 14.2.9 1 1.6 2.1 2.2 3.3.8 1.9.6 3.8-.7 5.5-.4.5-.9.9-1.3 1.4C82.1 67.2 59 90.3 35.9 113.5c-.4.4-.9.8-1.2 1.4.2.6.5 1.2.7 1.9 1.7 5 1.2 9.9-1.3 14.5-1.3 2.4-3.3 4.3-5.2 6.3-1.2 1.4-2.5 2.6-4.3 3.3h-2.2c-1.7-.6-3-1.8-4.2-3.1-4.8-4.9-9.6-9.8-14.4-14.6-1.2-1.2-2.4-2.5-2.9-4.2v-2.2c.6-1.8 1.9-3.1 3.2-4.3.6-.7 1.3-1.3 1.9-2 5.5-5.7 13-7.2 20.3-4 .3.1.6.3 1.1.2C39.1 94.8 51 82.9 63 70.9c-6.8-6.7-13.4-13.3-20.1-20-.4.4-.7.7-1.1 1-3.3 3.2-6.5 6.5-9.8 9.7-.7.7-1.5 1.4-2.6 1.8-2.2.7-4.1.2-5.8-1.4-1.7-1.6-3.3-3.3-4.9-4.9-4.3-4.2-8.1-8.9-10.9-14.2-2-3.7-3.6-7.6-4.7-11.6-1.1-3.9-1.8-7.8-2-11.8 0-.3 0-.5-.2-.8v-4.6c.2-.2.2-.4.3-.6C2.4 7 6.2 3 12.5 1.3c.5-.2 1.1 0 1.5-.4zM34.8 43c-.1-.2-.5-.5-.8-.8l-6-6c-.4-.4-.8-.8-1.2-1.3-2.2-3.1-.7-7.3 2.9-8.3 2.2-.6 4 .1 5.6 1.6 2.2 2.1 4.3 4.3 6.5 6.4.3.3.6.7 1.1.9 2.4-2.5 4.9-5 7.5-7.7-.2-.1-.6-.3-.9-.6-2.9-2.8-6.1-5.4-9.4-7.6-2.6-1.8-5.3-3.5-8.3-4.7-4.9-2-10.1-2.9-15.5-3-2.9-.1-4.6 1.7-4.5 4.6 0 2.1.2 4.3.5 6.4.8 5.4 2.5 10.4 5.1 15.2 2.5 4.5 5.7 8.3 9.4 11.9.3.2.4.6.8.6 2.4-2.6 4.7-5 7.2-7.6zm-11.2 84.2c2.6-2.3 2.5-6.9-.3-9.6-2.7-2.6-7-2.5-9.3.4 3.2 3 6.4 6.1 9.6 9.2z"/><path d="M116.8 140.9c-1.7-.7-3.1-1.9-4.3-3.2-1-1-2-2-2.9-3-4.8-5.6-5.7-11.9-3-18.7.2-.4.4-.7.4-1.2-.2-.5-.7-.8-1.1-1.2-7.7-7.6-15.3-15.2-23-22.8-.9-.9-1.7-1.8-2-3-.6-2.2.2-4.6 2.1-5.9 1.9-1.3 4.4-1.4 6.3 0 .5.4 1 .9 1.5 1.4 7.7 7.7 15.5 15.3 23.2 23 .4.3.7.7 1.1 1 1.4-.4 2.6-1 3.9-1.3 5.7-1.3 10.8 0 15.3 3.7 1.8 1.4 3.3 3.2 4.9 4.7.8.8 1.1 1.8 1.7 2.8v2.2c-.6 1.7-1.8 3-3.1 4.2-4.9 4.8-9.8 9.6-14.6 14.4-1.2 1.2-2.5 2.3-4.2 2.9h-2.2zm10.5-22.9c-2.1-2.2-6.2-3-10 1-2.2 2.3-1.7 6.5.8 8.6 3.1-3.2 6.1-6.4 9.2-9.6z"/></svg>